<svg viewBox="0 0 1707.2222900390625 400.0000305175781" xmlns="http://www.w3.org/2000/svg"><g><g><g><g><g><line x1="70" y1="377" x2="65" y2="377" style="visibility: inherit;" fill="rgb(0, 0, 0)" stroke="rgb(204, 204, 204)" stroke-width="1px"></line><line x1="70" y1="345.5833333333333" x2="65" y2="345.5833333333333" style="visibility: inherit;" fill="rgb(0, 0, 0)" stroke="rgb(204, 204, 204)" stroke-width="1px"></line><line x1="70" y1="314.1666666666667" x2="65" y2="314.1666666666667" style="visibility: inherit;" fill="rgb(0, 0, 0)" stroke="rgb(204, 204, 204)" stroke-width="1px"></line><line x1="70" y1="282.75" x2="65" y2="282.75" style="visibility: inherit;" fill="rgb(0, 0, 0)" stroke="rgb(204, 204, 204)" stroke-width="1px"></line><line x1="70" y1="251.33333333333337" x2="65" y2="251.33333333333337" style="visibility: inherit;" fill="rgb(0, 0, 0)" stroke="rgb(204, 204, 204)" stroke-width="1px"></line><line x1="70" y1="219.91666666666669" x2="65" y2="219.91666666666669" style="visibility: inherit;" fill="rgb(0, 0, 0)" stroke="rgb(204, 204, 204)" stroke-width="1px"></line><line x1="70" y1="188.5" x2="65" y2="188.5" style="visibility: inherit;" fill="rgb(0, 0, 0)" stroke="rgb(204, 204, 204)" stroke-width="1px"></line><line x1="70" y1="157.08333333333337" x2="65" y2="157.08333333333337" style="visibility: inherit;" fill="rgb(0, 0, 0)" stroke="rgb(204, 204, 204)" stroke-width="1px"></line><line x1="70" y1="125.66666666666669" x2="65" y2="125.66666666666669" style="visibility: inherit;" fill="rgb(0, 0, 0)" stroke="rgb(204, 204, 204)" stroke-width="1px"></line><line x1="70" y1="94.25" x2="65" y2="94.25" style="visibility: inherit;" fill="rgb(0, 0, 0)" stroke="rgb(204, 204, 204)" stroke-width="1px"></line><line x1="70" y1="62.833333333333364" x2="65" y2="62.833333333333364" style="visibility: inherit;" fill="rgb(0, 0, 0)" stroke="rgb(204, 204, 204)" stroke-width="1px"></line><line x1="70" y1="31.416666666666682" x2="65" y2="31.416666666666682" style="visibility: inherit;" fill="rgb(0, 0, 0)" stroke="rgb(204, 204, 204)" stroke-width="1px"></line><line x1="70" y1="0" x2="65" y2="0" style="visibility: inherit;" fill="rgb(0, 0, 0)" stroke="rgb(204, 204, 204)" stroke-width="1px"></line></g><g transform="translate(60, 0)"><text x="0" y="377" dx="0em" dy="0.3em" style="text-anchor: end; visibility: hidden; font-family: Roboto, sans-serif; font-size: 12px; font-weight: 200;" fill="rgb(33, 33, 33)" stroke="none" stroke-width="1px">-1e-4</text><text x="0" y="345.5833333333333" dx="0em" dy="0.3em" style="text-anchor: end; visibility: inherit; font-family: Roboto, sans-serif; font-size: 12px; font-weight: 200;" fill="rgb(33, 33, 33)" stroke="none" stroke-width="1px">0</text><text x="0" y="314.1666666666667" dx="0em" dy="0.3em" style="text-anchor: end; visibility: inherit; font-family: Roboto, sans-serif; font-size: 12px; font-weight: 200;" fill="rgb(33, 33, 33)" stroke="none" stroke-width="1px">1e-4</text><text x="0" y="282.75" dx="0em" dy="0.3em" style="text-anchor: end; visibility: inherit; font-family: Roboto, sans-serif; font-size: 12px; font-weight: 200;" fill="rgb(33, 33, 33)" stroke="none" stroke-width="1px">2e-4</text><text x="0" y="251.33333333333337" dx="0em" dy="0.3em" style="text-anchor: end; visibility: inherit; font-family: Roboto, sans-serif; font-size: 12px; font-weight: 200;" fill="rgb(33, 33, 33)" stroke="none" stroke-width="1px">3e-4</text><text x="0" y="219.91666666666669" dx="0em" dy="0.3em" style="text-anchor: end; visibility: inherit; font-family: Roboto, sans-serif; font-size: 12px; font-weight: 200;" fill="rgb(33, 33, 33)" stroke="none" stroke-width="1px">4e-4</text><text x="0" y="188.5" dx="0em" dy="0.3em" style="text-anchor: end; visibility: inherit; font-family: Roboto, sans-serif; font-size: 12px; font-weight: 200;" fill="rgb(33, 33, 33)" stroke="none" stroke-width="1px">5e-4</text><text x="0" y="157.08333333333337" dx="0em" dy="0.3em" style="text-anchor: end; visibility: inherit; font-family: Roboto, sans-serif; font-size: 12px; font-weight: 200;" fill="rgb(33, 33, 33)" stroke="none" stroke-width="1px">6e-4</text><text x="0" y="125.66666666666669" dx="0em" dy="0.3em" style="text-anchor: end; visibility: inherit; font-family: Roboto, sans-serif; font-size: 12px; font-weight: 200;" fill="rgb(33, 33, 33)" stroke="none" stroke-width="1px">7e-4</text><text x="0" y="94.25" dx="0em" dy="0.3em" style="text-anchor: end; visibility: inherit; font-family: Roboto, sans-serif; font-size: 12px; font-weight: 200;" fill="rgb(33, 33, 33)" stroke="none" stroke-width="1px">8e-4</text><text x="0" y="62.833333333333364" dx="0em" dy="0.3em" style="text-anchor: end; visibility: inherit; font-family: Roboto, sans-serif; font-size: 12px; font-weight: 200;" fill="rgb(33, 33, 33)" stroke="none" stroke-width="1px">9e-4</text><text x="0" y="31.416666666666682" dx="0em" dy="0.3em" style="text-anchor: end; visibility: inherit; font-family: Roboto, sans-serif; font-size: 12px; font-weight: 200;" fill="rgb(33, 33, 33)" stroke="none" stroke-width="1px">1e-3</text><text x="0" y="0" dx="0em" dy="0.3em" style="text-anchor: end; visibility: hidden; font-family: Roboto, sans-serif; font-size: 12px; font-weight: 200;" fill="rgb(33, 33, 33)" stroke="none" stroke-width="1px">1.1e-3</text></g><line x1="70" y1="0" x2="70" y2="377" fill="rgb(0, 0, 0)" stroke="rgb(204, 204, 204)" stroke-width="1px"></line></g></g><g transform="translate(70, 0)" clip-path="url(#clip_0)"><clipPath id="clip_0"><rect width="1637" height="376"></rect></clipPath><g><g><g><line x1="0" y1="0" x2="0" y2="377" fill="rgb(0, 0, 0)" stroke="rgb(66, 66, 66)" stroke-width="1px" opacity="0.25"></line><line x1="163.722" y1="0" x2="163.722" y2="377" fill="rgb(0, 0, 0)" stroke="rgb(66, 66, 66)" stroke-width="1px" opacity="0.25"></line><line x1="327.444" y1="0" x2="327.444" y2="377" fill="rgb(0, 0, 0)" stroke="rgb(66, 66, 66)" stroke-width="1px" opacity="0.25"></line><line x1="491.166" y1="0" x2="491.166" y2="377" fill="rgb(0, 0, 0)" stroke="rgb(66, 66, 66)" stroke-width="1px" opacity="0.25"></line><line x1="654.888" y1="0" x2="654.888" y2="377" fill="rgb(0, 0, 0)" stroke="rgb(66, 66, 66)" stroke-width="1px" opacity="0.25"></line><line x1="818.61" y1="0" x2="818.61" y2="377" fill="rgb(0, 0, 0)" stroke="rgb(66, 66, 66)" stroke-width="1px" opacity="0.25"></line><line x1="982.332" y1="0" x2="982.332" y2="377" fill="rgb(0, 0, 0)" stroke="rgb(66, 66, 66)" stroke-width="1px" opacity="0.25"></line><line x1="1146.0539999999999" y1="0" x2="1146.0539999999999" y2="377" fill="rgb(0, 0, 0)" stroke="rgb(66, 66, 66)" stroke-width="1px" opacity="0.25"></line><line x1="1309.776" y1="0" x2="1309.776" y2="377" fill="rgb(0, 0, 0)" stroke="rgb(66, 66, 66)" stroke-width="1px" opacity="0.25"></line><line x1="1473.498" y1="0" x2="1473.498" y2="377" fill="rgb(0, 0, 0)" stroke="rgb(66, 66, 66)" stroke-width="1px" opacity="0.25"></line><line x1="1637.22" y1="0" x2="1637.22" y2="377" fill="rgb(0, 0, 0)" stroke="rgb(66, 66, 66)" stroke-width="1px" opacity="0.25"></line></g><g><line x1="0" y1="377" x2="1637.22" y2="377" fill="rgb(0, 0, 0)" stroke="rgb(66, 66, 66)" stroke-width="1px" opacity="0.25"></line><line x1="0" y1="345.5833333333333" x2="1637.22" y2="345.5833333333333" fill="rgb(0, 0, 0)" stroke="rgb(66, 66, 66)" stroke-width="1px" opacity="0.25"></line><line x1="0" y1="314.1666666666667" x2="1637.22" y2="314.1666666666667" fill="rgb(0, 0, 0)" stroke="rgb(66, 66, 66)" stroke-width="1px" opacity="0.25"></line><line x1="0" y1="282.75" x2="1637.22" y2="282.75" fill="rgb(0, 0, 0)" stroke="rgb(66, 66, 66)" stroke-width="1px" opacity="0.25"></line><line x1="0" y1="251.33333333333337" x2="1637.22" y2="251.33333333333337" fill="rgb(0, 0, 0)" stroke="rgb(66, 66, 66)" stroke-width="1px" opacity="0.25"></line><line x1="0" y1="219.91666666666669" x2="1637.22" y2="219.91666666666669" fill="rgb(0, 0, 0)" stroke="rgb(66, 66, 66)" stroke-width="1px" opacity="0.25"></line><line x1="0" y1="188.5" x2="1637.22" y2="188.5" fill="rgb(0, 0, 0)" stroke="rgb(66, 66, 66)" stroke-width="1px" opacity="0.25"></line><line x1="0" y1="157.08333333333337" x2="1637.22" y2="157.08333333333337" fill="rgb(0, 0, 0)" stroke="rgb(66, 66, 66)" stroke-width="1px" opacity="0.25"></line><line x1="0" y1="125.66666666666669" x2="1637.22" y2="125.66666666666669" fill="rgb(0, 0, 0)" stroke="rgb(66, 66, 66)" stroke-width="1px" opacity="0.25"></line><line x1="0" y1="94.25" x2="1637.22" y2="94.25" fill="rgb(0, 0, 0)" stroke="rgb(66, 66, 66)" stroke-width="1px" opacity="0.25"></line><line x1="0" y1="62.833333333333364" x2="1637.22" y2="62.833333333333364" fill="rgb(0, 0, 0)" stroke="rgb(66, 66, 66)" stroke-width="1px" opacity="0.25"></line><line x1="0" y1="31.416666666666682" x2="1637.22" y2="31.416666666666682" fill="rgb(0, 0, 0)" stroke="rgb(66, 66, 66)" stroke-width="1px" opacity="0.25"></line><line x1="0" y1="0" x2="1637.22" y2="0" fill="rgb(0, 0, 0)" stroke="rgb(66, 66, 66)" stroke-width="1px" opacity="0.25"></line></g></g></g><g><g><line x1="0" y1="345.5833333333333" x2="1637.22" y2="345.5833333333333" fill="rgb(0, 0, 0)" stroke="rgb(153, 153, 153)" stroke-width="1.5px"></line></g></g><g><g><line x1="163.722" y1="0" x2="163.722" y2="377" fill="rgb(0, 0, 0)" stroke="rgb(153, 153, 153)" stroke-width="1.5px"></line></g></g><g><g><g><g><g><path stroke="rgb(255, 112, 67)" stroke-width="2px" d="M165.31337784000002,341.8519408605086L167.4384894,338.74244701409924L167.70371903999998,337.47326581585395L168.67622772,335.8654032525958L170.00237592,333.6966226410556L170.27088,332.24763515819865L172.0390776,329.71659762970796L177.43862916,323.0995774739254L177.7038588,318.9499274621041L178.49954772,315.7362458537046L183.98750916,308.6607699768086L184.42955856,304.0164436302442L186.28616603999998,299.49273339067685L186.73148988,296.3673674371961L187.35035904,293.9130038043026L187.88081832,291.9434649283577L190.97843856,287.8594116523427L191.15525832,285.2435668437077L191.86253736,283.01083019663685L194.42969832,279.2665121515264L196.19789592,275.3615750421106L200.97857832,268.5409370113251L201.0669882,264.3656908438624L202.8351858,260.2021606987256L204.42983808,256.21149560543574L204.7834776,253.48542264401337L205.66757640000003,251.02058314987966L211.15553784000002,244.40064688473254L213.54587904,238.18985381896326L214.96043712,233.1366604047937L215.57930628000003,229.52430760017117L215.66771616000003,227.27397606724912L218.58851664,223.18742314665013L219.8295294,219.57461304035533L220.53680844,216.74356948711974L220.97885784000002,214.63034263099703L221.15567760000002,213.19656622982606L222.21659616,211.34126224596335L223.1039694,209.39888201348413L226.90886867999998,204.6679020424756L227.61614772000001,201.16595286170218L228.32342676,198.40142581041417L230.62535807999998,194.5867966465424L231.42104700000002,191.55173779690085L231.77468652,189.39902188657615L231.95150628,187.94155204009326L233.19251904,185.90619534403447L233.3693388,184.5191410260234L233.98820795999998,183.10646738375556L234.695487,181.59550931148075L235.22594628,180.19141356685856L237.70469736,177.02719922895267L244.16516747999998,169.07552160512904L247.08596796,161.56816470342113L247.35119759999998,156.81499011176984L248.85744,152.5534501179654L249.65312892000003,149.25024476978945L249.74153880000003,147.18540141067385L250.27199808,145.4489744939419L250.36040796,144.32419819369238L250.80245735999998,143.2347389772531L252.39710964,141.0885007436012L252.66233928,139.5519973527787L253.4580282,137.88382128115384L257.79338676,132.81984290739177L258.0586164,129.5326954325032L258.58907568,127.0628860463073L259.1228094,125.08348682808972L259.56485879999997,123.48124654610687L260.4489576,121.69070087481252L260.97941688,120.1188598855359L261.42146628,118.76115454091764L266.02532892,113.6346981527282L266.46737832,110.14422356876227L266.5557882,107.96701866817223L268.14716604,105.16814033879263L269.29976892,102.41085870319164L270.44909736,99.67852776909503L273.81194724,94.88817813016504L275.31818964,90.60433310799196L277.08638724,86.37562309047894L278.23571568,82.76044244199784L280.18400748,78.76709806304179L280.44923712,76.12233098503674L281.69024988,73.37459595005001L282.0438894,71.39427432821613L286.29083808,66.2259287745392L286.90970724000005,62.544480390859796L288.85799904000004,58.511375370784705L289.9189176,55.096477870976905L290.8030164,52.21833786898758L293.45858724000004,48.00385667624293L294.43109592,44.56305362304383L295.1416494,42.24985522906934L295.67210868,40.86209711746445L298.50449928,40.03237547035285L298.8581388,39.53515692215448L301.0683858,39.24187297951325L302.48621832000003,39.07024758298508L302.5746282,38.967572250339785L303.90077640000004,38.91087525653867L304.25441592,38.87829806851419L305.76065832,38.86547402264051L308.85827856000003,38.874705956053724L309.5655576,38.88469980659903L311.33702964,38.90277279017929L312.57476796000003,38.92288438469561L313.37045688,38.941256666871254L313.90091616,38.95663963475862L314.34624,38.969592629716274L314.96510916,38.982718833003034L315.76079808000003,38.997726448628484L316.9985364,39.01836149073081L317.17535616000004,39.032461485231835L317.4405858,39.043525537461264L318.23954916,39.05814437492796L321.3371694,39.10057090068945L323.45900652,39.15150413470525L325.31888843999997,39.20595409016293L326.91026628,39.26029039061856L327.70922964,39.3041349611948L328.85855807999997,39.347170565884504L329.12378772,39.37692727104253L329.83106676,39.40543890342248L333.3707364,39.47907436916193L334.8769788,39.54891583623243L335.7610776,39.60637190202056L336.02630724,39.64557819297422L337.79777928000004,39.7014185892498L339.21233736000005,39.76174606191476L340.80698964000004,39.82914732328348L341.8679082,39.891005705353166L343.37087616,39.959281623788385L343.90460988,40.01147533562693L346.026447,40.088925771214285L347.17904988,40.161195200685306L347.44427952,40.21059153761314L347.5326894,40.24224821428095L348.23996844,40.27751025257415L348.59360796,40.306881954086265L349.21247712,40.33901014947021L353.54783568,40.46441695902621L353.90474964,40.54868014719536L354.5236188,40.615147669016L355.31930772,40.6757289606102L357.26759952,40.763822367058275L357.62123904,40.826260750092246L358.32851808000004,40.883049383022716L359.03579712,40.93666029401001L359.38943664000004,40.97867982598812L361.16090868000003,41.053946466477996L361.60295808,41.111826823144526L361.69136796000004,41.14910788933427L362.13341736,41.18429930809882L363.19433592,41.236523845211856L363.46284,41.27571462264261L363.9048894,41.312388347236904L365.58467712,41.38514240575501L367.00250964,41.472471289075685L367.88660844000003,41.55259156978247L368.947527,41.63438479435246L371.24945832000003,41.75815177124314L372.04514724,41.85878899175119L375.14276748000003,42.02431372341433L375.23117736,42.12669344799249L375.40799712,42.19425836866267L379.30130628,42.37317068746659L380.01185976,42.5063684502066L380.80754868,42.615619306363705L380.98436843999997,42.687723847456354L381.42641784,42.74743747347257L383.63993928,42.86672709173411L383.72834916,42.941680283068294L384.61244796,43.02064390023546L384.78926772000005,43.07486137368033L385.23131712,43.12455229109177L386.47232988,43.20283445933101L387.00278916,43.270775184997L387.79847808,43.34321985774324L389.12462628,43.44007711449492L389.4782658,43.51255034776816L389.65836,43.56323932901274L391.868607,43.68477271698068L393.8168988,43.83957420366551L394.34735808,43.9550577124857L395.85032604,44.089039579286336L396.38405976,44.19249214622749L398.68271664,44.35584389103354L400.71941832,44.5452894719354L401.33828748,44.687125971716874L401.78033688000005,44.79245319051057L402.93293976,44.90860108912744L406.20737976,45.132009566889046L407.44511808,45.32537737921701L410.54273831999996,45.59248449062555L417.88730724000004,46.126869611622375L418.68299616,46.48939964508902L419.48195952000003,46.74907995749548L420.0124188,46.93313775856962L422.13425592000004,47.15773394100791L426.29606916,47.52139252031355L427.0033482,47.77925562613533L430.18937832,48.11498460793373L431.60393640000007,48.3981937294759L431.86916604000004,48.583538722217995L432.57971952,48.73601560913778L432.84494916,48.843030982547276L434.96678628000006,49.032483573909786L435.3204258,49.16720701583969L437.97599664000006,49.40753216737635L441.33884651999995,49.75782801273813L442.9334988,50.06720833198362L443.46395808,50.28613332343906L444.87851616000006,50.506830830192214L446.47316844,50.74070509319072L446.56157832,50.886698592098995L449.57078868,51.1688088617329L450.45488747999997,51.39597137045365L450.72011712,51.549699955251356L450.80852699999997,51.647752342493554L450.98534675999997,51.71822887709139L451.07375664,51.76633734897636L453.28727808,51.94184148038443L456.20807856000005,52.24367700402947L459.7477482,52.66749677483997L462.49172892,53.11328181061131L464.87879567999994,53.54993597905875L465.32411952000007,53.843506310795746L467.26913688,54.159477514021354L468.95219904000004,54.471011960048905L470.27834724,54.75498489945377L471.69617975999995,55.02964060569105L474.26006628,55.38540785456532L474.52529591999996,55.618764358492164L476.73881736,55.92567188710109L479.04074868000004,56.28537070958153L480.54371664,56.61707778886584L482.31518868000006,56.953539113209914L483.90656652,57.280125297454546L484.08338628,57.48999700146022L484.26020604,57.62984733208532L484.79393976,57.75561260275252L487.2694164,58.027816938071965L488.51042915999994,58.29038623986841L493.46465688,58.85067865638979L493.8182964,59.21597417669674L494.79407951999997,59.51547489832522L497.5347858,59.92344713155092L498.24533928,60.227589770970944L499.39466772000003,60.506937442580565L499.83671712,60.71193179781565L501.25454964,60.955051444368515L501.69659903999997,61.13860888984128L501.87341879999997,61.26384102738198L502.7575176,61.4146369007344L503.11115712000003,61.535456060514534L505.67831808000005,61.82931422062209L506.73923664,62.09793410746871L511.34309928,62.66386843476862L512.31560796,63.09003582177065L513.8185759200001,63.48026936994494L516.297327,63.93777309331205L518.59925832,64.42166772499674L519.66017688,64.8092835334403L520.6359600000001,65.13138571421705L520.90118964,65.34912221874907L525.94382724,65.94959133106761L526.38587664,66.351515742632L526.4742865200001,66.6010092190731L527.3616597600001,66.83422526569139L533.82212988,67.59222308457475L534.79463856,68.14142610358797L534.88304844,68.4795427611936L535.0598682,68.69961707767779L535.5019176,68.87472367570959L535.5903274799999,68.98840442501452L537.8038489200001,69.27299818542372L538.24589832,69.48723339128553L538.51112796,69.64189553248102L539.218407,69.80446833879823L540.98987904,70.07720058976757L541.25510868,70.26720965995999L541.34351856,70.39001476162937L542.6696667599999,70.59595604739769L544.61795856,70.91459822587728L545.767287,71.22166400399838L545.94410676,71.4237734361996L547.0967096400001,71.66143891470686L550.37114964,72.13778888050327L552.49298676,72.64201767484387L553.11185592,73.00854449573555L553.64558964,73.28341640059689L555.76742676,73.6690917676846L556.0326564,73.92819067960069L561.2553882,74.63316426143723L562.75835616,75.21615884507106L562.8467660399999,75.57539163916205L564.61823808,75.98017154198354L564.88346772,76.25151585495102L565.67915664,76.49988322228445L568.86518676,76.99320952398357L569.1304164,77.31804741441377L570.54824892,77.66715266160296L573.29222964,78.17722329871759L575.76770628,78.75685243629435L576.47825976,79.18315389665524L576.83189928,79.47825893726235L577.53917832,79.73408732661127L578.511687,79.99614275376985L580.81361832,80.41116287789461L581.25566772,80.70993728316358L582.6702258,81.04886856700892L584.0880583200001,81.41250841806875L584.79533736,81.7110742562508L585.59102628,81.98082172499075L586.38998964,82.23348298542162L587.36249832,82.49632996791077L587.4509082000001,82.66416910377353L588.51182676,82.88660486650174L588.68864652,83.04038673497881L592.0514964,83.52060892652314L593.1156894,83.93197404901815L594.79547712,84.37460200580591L596.8321788,84.87836208361463L598.6003764,85.38874507401361L602.85059952,86.19830369111655L603.6462884399999,86.77901374055375L603.9115180800001,87.15913463708813L604.08833784,87.40835415403656L608.60051616,88.10016579856095L608.8657458,88.5473353345719L610.6372178400001,89.03005469583258L610.8140376,89.34117708546471L610.9024474800001,89.53860322044449L611.52131664,89.73236438364977L613.11596892,90.04278414325137L615.59472,90.53250356003744L617.3629176000001,91.0441761587169L617.53973736,91.37301428464811L618.0701966400001,91.63586474895384L620.81417736,92.13352862501712L622.32041976,92.61945070918891L623.9117976,93.11003133858016L624.61907664,93.49306389944988L627.36305736,94.06784764591572L629.75339856,94.71485416800508L631.7868258,95.36165688775043L634.35398676,96.07740331570541L635.3297698800001,96.63160445069289L636.74432796,97.14602865104261L637.98206628,97.6142912938347L639.8419482,98.13542179870636L643.38161784,98.90808164060556L645.32990964,99.62606304890927L645.7719590400001,100.11479944417087L649.04639904,100.83844923462125L650.01890772,101.4011229160939L650.549367,101.80891227328986L651.7903797600001,102.21763407116161L651.96719952,102.48633290869513L654.79631568,103.02408693706506L656.92142724,103.63045705576424L657.9823458000001,104.13655857667882L658.1624400000001,104.46395589425873L658.69289928,104.73166201800184L659.75381784,105.03502597199424L661.96733928,105.51530379435722L664.4428159199999,106.13894013570653L664.6196356800001,106.53713630653067L664.97654964,106.82411200010515L666.3026978400001,107.17678918640183L669.93077736,107.88387558064332L670.196007,108.34450373220203L673.38203712,109.05868380154206L674.8882795200001,109.69475555013017L675.15350916,110.11308213433117L676.0376079600001,110.48646869470721L677.6289858,110.93126016986648L677.71739568,111.2104165415713L679.22363808,111.58696628317357L679.48886772,111.849842994641L682.49807808,112.42739251315687L682.67489784,112.79868269607856L683.293767,113.10816600313171L685.6841082000001,113.62910619241357L686.4797971200001,114.05369589706176L688.33967904,114.57039137290617L690.46151616,115.18068698289143L690.90684,115.60954455064277L691.4372992799999,115.94212799969738L693.82436604,116.48114889227034L695.59583808,117.05679639073817L696.03788748,117.4653478659187L697.36403568,117.9002090664962L697.8093595199999,118.22445700248508L701.6142588,118.96527224411697L701.96789832,119.46073065573927L703.8245058,120.02599666453871L704.0046,120.39071405076719L705.4191580800001,120.81424811726427L705.59597784,121.09398485621311L706.12643712,121.33871237054764L706.30325688,121.51118712248704L707.89790916,121.84571606897073L709.9313364000001,122.3423960513339L710.73029976,122.7564308070396L712.41008748,123.25021074642892L713.38259616,123.68877278928304L713.55941592,123.97780427502947L714.09314964,124.22893520563012L715.24247808,124.54816784138112L716.83385592,124.97351649846036L720.28511568,125.73692614754401L722.3218173600001,126.49571840628701L722.6754568800001,127.00337477738117L722.76386676,127.3210693400718L723.3827359200001,127.60341320221328L724.88897832,127.99588320868907L725.861487,128.375919553476L726.83399568,128.74866394079226L727.45613928,129.06449852776052L727.98659856,129.33306455019778L730.1084356800001,129.81097727807563L735.33116748,130.8797681416417L738.5171976,132.00049609712204L738.60560748,132.68627499761425L738.959247,133.15112547625074L740.73071904,133.69725136041026L740.81912892,134.03829827716083L740.9075388,134.2563051282287L741.61481784,134.49416079129796L745.508127,135.2270877636086L746.1269961600001,135.76096299893203L746.3922258,136.1216436860604L748.07528796,136.59390055404583L752.8526959200001,137.60676327581095L753.65165928,138.3363960591486L753.82847904,138.8012842397969L754.18211856,139.13444148424006L754.71257784,139.4157125661822L754.97780748,139.62518186989237L755.5966766399999,139.84587490510756L756.3039556800001,140.0869515264639L756.57245976,140.2723626719244L757.63337832,140.5467724564656L760.02371952,141.07913144919803L760.37735904,141.4530930304514L761.34986772,141.82756159548504L762.3223763999999,142.2024660165159L768.34079712,143.3589656460003L769.58180988,144.24526562755355L770.28908892,144.88707427734164L771.52682724,145.4648742058741L771.61523712,145.82532786119808L773.9171684400001,146.40005268679485L775.15490676,146.9381728723047L777.3684282,147.60668946648772L779.9355891600001,148.40949693260916L780.2008188000001,148.932780467879L782.4994756799999,149.60763903742958L784.09412796,150.2627629528101L784.44776748,150.71148070206058L786.6612889200001,151.3287989652369L788.9599458,152.06179002600817L791.26187712,152.8647699463541L792.59129976,153.55634529341307L793.2985788000001,154.08325757462583L793.3869886800001,154.41339808443965L795.33200604,154.91967528807118L795.6889199999999,155.27951658127276L796.92665832,155.69179347721405L800.4663279600001,156.5010650575158L801.26201688,157.11323191887993L802.32620988,157.64942259217415L804.0059976,158.23877684936616L804.27122724,158.63466873221142L805.06691616,158.99909305084773L809.75918868,159.96613564558737L810.73169736,160.70192426122847L812.32634964,161.39814135715068L813.2104484399999,161.95749273575416L813.29885832,162.30726494354496L814.89023616,162.77221598860496L814.9786460400001,163.06536262579513L817.01534772,163.5675036550117L817.36898724,163.9255654607856L818.69840988,164.3533864904107L821.3507062799999,165.0364566272196L822.14966964,165.57431437169322L822.41489928,165.93971065885708L823.03376844,166.25856086989626L823.91786724,166.59222359384202L824.18309688,166.8351321277401L824.62514628,167.05208646317237L825.51251952,167.3247067536694L827.63435664,167.83037575092484L828.43332,168.26214392027697L830.11310772,168.79233381692188L831.6160756799999,169.35318815582042L837.1040371199999,170.57616222384775L840.20165736,171.8111176325249L841.70789976,172.79570173540662L842.59199856,173.52980691695086L843.03404796,174.0419620153104L844.00655664,174.50701256193983L844.5370159199999,174.87210838809818L845.15915952,175.19159757595884L846.75053736,175.64161924894628L847.1925867599999,175.9834120193244L847.63463616,176.26027476289966L849.22928844,176.6848961236212L850.20179712,177.09768975912584L850.46702676,177.38847183714614L852.2384988,177.85038199986082L852.94577784,178.24253811175907L853.82987664,178.62161806971378L854.89406964,179.0216505561367L856.92749688,179.5925679692211L857.36954628,180.00707373796274L862.76909784,181.13408270346144L862.8575077200001,181.82469085055925L865.68989832,182.70013449220235L869.4947976,183.84526098496738L870.20207664,184.64769068874384L870.90935568,185.24450963388986L871.0010400000001,185.61702571306415L874.00697592,186.3309243681781L874.98275904,186.91794270896304L876.0436776,187.44327951752555L877.54992,188.00375291147625L882.85778724,189.2058707816604L884.9828988,190.27350283339462L887.63846964,191.3470465272997L887.99210916,192.0489008510405L889.22984748,192.67205816379578L890.7360898800001,193.29128237836395L891.2665491600001,193.74940175343875L894.9830385600001,194.6303051273379L896.39759664,195.38967911887846L897.37337976,196.00398997628216L898.16906868,196.50239889950478L898.87634772,196.9168346353694L900.6478197600001,197.45393911528345L900.8246395200001,197.80504391264265L901.08986916,198.05896629779284L901.2666889200001,198.2401581809123L901.7971482,198.43539232425337L903.5653458,198.84088075673796L903.8338498800001,199.12742235081933L904.2758992800001,199.37142332174406L905.0715882000001,199.6475475637826L911.2668286800001,200.82166455683696L913.03502628,201.81406941505574L913.12343616,202.42390412564146L913.30025592,202.8185922006832L914.54126868,203.25689018487085L914.8949082,203.57742518585727L915.69059712,203.8992357735257L915.7790070000001,204.10670660701854L916.2210564000001,204.3031188263357L916.6631058,204.49288490500342L917.9925284400001,204.82246421962253L920.7365091600001,205.46582349600396L921.7974277200001,206.02425167655898L922.41629688,206.4598609706425L922.85834628,206.7930428874919L924.0993590400001,207.19398366147544L924.89504796,207.563752437196L927.19697928,208.15869586047367L927.8158484400001,208.616064347555L927.90425832,208.90482968950062L928.69994724,209.207146910744L932.06279712,209.93309938381452L932.77007616,210.48324199616303L932.85848604,210.82764621159941L933.2153999999999,211.09156333297025L936.0445161600001,211.70784701120695L940.2063294,212.74935748053016L940.5599689200001,213.4313847442159L942.15134676,214.09754677254406L942.59339616,214.5685885277447L944.1880484400001,215.1079507802442L944.4532780800001,215.47434120675763L946.3131599999999,215.99344800727013L947.2856686800001,216.46157967554586L949.4075058000001,217.0840471234593L950.0296493999999,217.55709248499053L951.5326173600001,218.08261043437037L951.7094371200001,218.42634271455245L951.9746667600001,218.67521251980244L953.8345486799999,219.1227938529199L954.0113684400001,219.4197349042937L954.45341784,219.66886736304156L955.4259265200001,219.97442193047806L956.4901195199999,220.32793262565474L957.9930874800001,220.7809690398988L959.58773976,221.3076884249999L960.1181990399999,221.708637136494L961.0022978400001,222.0906848465675L962.59367568,222.57440138245394L962.68536,222.87876342556365L965.0724267600001,223.44267363042962L965.7797058000001,223.89389751428536L966.66707904,224.3056641272499L967.6395877200001,224.70777512043543L969.4994696399999,225.24480317484486L971.0908474800001,225.82026440767015L973.9232380799999,226.61514303803983L974.5421072400001,227.1903147943735L979.1459698799999,228.26399015951924L979.32278964,228.93617434601623L980.20688844,229.4793211768606L980.8257576,229.90304788414804L983.2160987999999,230.534261177515L985.07270628,231.2057588740802L985.96007952,231.74793423161728L987.3746375999999,232.29589350861804L987.55145736,232.65248711744815L988.1703265200001,232.96376985813666L991.0027171199999,233.59488573620882L991.4447665200001,234.04289921365157L992.42054964,234.46417987166467L992.86259904,234.7862154120634L996.6674983199999,235.57414523246408L996.93272796,236.08832662599607L998.7042,236.6727665988755L999.23465928,237.106131289932L999.3230691599999,237.37993111753315L1001.6217260400001,237.90213332619888L1002.24386964,238.31170229928728L1007.8169665199999,239.42134276221415L1008.61592988,240.21019426537745L1009.23479904,240.77916397676537L1009.50002868,241.16152676174508L1010.1188978399999,241.48652643721417L1010.38412748,241.72247428421036L1012.33241928,242.16401775423378L1013.30492796,242.5787282324951L1014.2774366399999,242.97719993520752L1015.34162964,243.37938022123538L1015.43003952,243.63427190722584L1015.69526916,243.82795014717863L1017.81710628,244.2697408372638L1018.3508400000001,244.61610786681985L1020.38426724,245.13514929406338L1021.2683660399999,245.58169610478166L1021.97891952,245.95763032017635L1023.03983808,246.34506289105767L1027.37519664,247.23666301717984L1028.17416,247.8923678810963L1028.96984892,248.40643318101124L1032.06746916,249.18305740632846L1034.5429457999999,250.02245057844934L1034.81144988,250.56603240094375L1038.35111952,251.42369409806977L1040.47295664,252.2561724173132L1041.36032988,252.887877402431L1046.22614772,253.99165439870654L1047.37547616,254.8246105845771L1048.35125928,255.46862775958527L1049.94263712,256.09069777518744L1053.12866724,256.93386574344476L1053.57071664,257.50488619952694L1053.65912652,257.86051509343906L1053.83594628,258.0999293276934L1055.07695904,258.42564962714584L1056.1378776,258.7769155118353L1058.17457928,259.2857589383111L1058.70503856,259.6686965709595L1060.03118676,260.0922967052858L1060.56164604,260.42389452143226L1061.4490192800001,260.7517978483741L1063.5708564,261.2573837561646L1065.0770988,261.7789602744895L1067.02211616,262.373648901227L1069.76609688,263.12616513883086L1070.3849660399999,263.66681623729824L1071.36074916,264.13112733509604L1072.77530724,264.61288884312603L1073.12894676,264.9526736274173L1073.74781592,265.24525794027795L1074.1931397600001,265.4841251141113L1077.29076,266.06952041824536L1077.9096291600001,266.50893340795164L1081.09565928,267.2247542315465L1083.57113592,268.00442636146784L1083.74795568,268.4971930958983L1083.8396400000001,268.80533029306866L1084.01645976,269.0151650957045L1084.5469190400001,269.21587954171036L1085.3426079600001,269.4484160914737L1085.87306724,269.66259797573895L1086.31511664,269.85327527466774L1088.8822776,270.32741254121294L1090.12001592,270.7850335060664L1091.09579904,271.19540282621165L1091.97989784,271.5648909709901L1092.33353736,271.8358396413329L1092.42194724,272.01071958919874L1094.90069832,272.459600501916L1095.69638724,272.8391881254282L1096.40366628,273.1648250255835L1097.73308892,273.54343099970515L1097.8214988,273.7827956083975L1098.88241736,274.07267854030056L1101.62639808,274.62323994589826L1102.422087,275.0625905267854L1103.57468988,275.48340061227395L1103.9283294000002,275.78419335657964L1104.3703788,276.025010309543L1105.16606772,276.2779966993871L1105.87334676,276.52610201404696L1106.49221592,276.75914166355074L1106.5806258,276.9109817797137L1108.0868682,277.20609823909433L1110.7424390400001,277.7418548195322L1111.62653784,278.1824900255063L1114.90097784,278.8861665390907L1115.69666676,279.4148278465081L1115.78507664,279.7438434588258L1116.31553592,280.0121237335339L1117.73336844,280.3617359715638L1118.3522376,280.65387668607883L1120.83098868,281.15769271027807L1120.91939856,281.471685945152L1121.71508748,281.7653340068754L1122.15713688,281.9999257381682L1123.13292,282.2689908585317L1123.92860892,282.53523219364155L1125.16634724,282.8576792619208L1126.13885592,283.1787078212972L1128.5291971200002,283.6833855354553L1128.79442676,284.02077270471585L1129.59011568,284.3268405645098L1131.80363712,284.7974833105253L1132.15727664,285.1256703449151L1132.95624,285.4255140778746L1134.19397832,285.7652003371565L1134.7244376,286.03736489297637L1134.90125736,286.22343265412945L1137.91046772,286.72083926722564L1138.440927,287.08710754372737L1138.97138628,287.3746178419546L1139.14820604,287.56968823519594L1139.23661592,287.6980116639479L1140.12398916,287.8876859835418L1140.5660385600002,288.05775024407956L1141.80377688,288.31703608331617L1142.5994658,288.57347450740565L1144.01729832,288.9062273989753L1146.23081976,289.38428997524L1147.9106074800002,289.88181463166495L1148.7062964000002,290.27985408710805L1150.3009486800001,290.717196763253L1152.6912898799999,291.2760459290618L1154.7247171200002,291.8626102132665L1154.90153688,292.23634311931795L1154.98994676,292.47147454464107L1159.5053995199999,293.16513252010213L1160.2126785599999,293.66747509464L1160.4779082,294.00114971510845L1161.27359712,294.2980355349698L1164.636447,294.88235031473715L1167.3804277200002,295.56184931705866L1169.1518997599999,296.1805723082029L1169.77076892,296.6254456478971L1170.3896380800002,296.9658939892083L1170.83168748,297.2226116713986L1173.5756681999999,297.7005143723495L1174.28294724,298.07047056233L1174.459767,298.3132236885193L1177.46897736,298.8106882207748L1177.7342070000002,299.1400772986984L1178.97521976,299.48167807664555L1179.2404494,299.7174282083992L1180.21295808,299.97158963753566L1180.7434173600002,300.18544272472514L1183.22216844,300.59894071733237L1183.48739808,300.8774835553434L1183.57580796,301.0547511766634L1184.10626724,301.22191937195885L1184.283087,301.3424712097305L1185.7893294,301.5865346541865L1186.49660844,301.81354666092767L1187.29229736,302.0402118781673L1188.62172,302.3265348685091L1190.0362780799999,302.65806845102543L1193.48753784,303.24371461954667L1194.5484564,303.71333814528913L1194.72527616,304.01478348638324L1195.6126494,304.29385869533803L1196.58515808,304.569044789526L1197.20402724,304.80256044962846L1197.8228964,305.0109531556948L1197.9997161600002,305.15547530722455L1199.50595856,305.40741994456675L1201.18574628,305.74239939939963L1204.3717764,306.28915956352404L1205.25914964,306.71267971593113L1206.7621176,307.12849652382266L1207.2925768799998,307.43488174735046L1208.0882658,307.7038832355598L1210.74383664,308.14768334418204L1212.78053832,308.6288976541268L1212.8689482,308.92693976172865L1214.4603260400002,309.27297135864893L1216.9390771199999,309.7390117402969L1217.38112652,310.06456627875906L1218.5337294,310.3790135123379L1219.77146772,310.6954625281211L1220.47874676,310.95811748405083L1220.92079616,311.1611159328568L1221.0976159200002,311.3010583567256L1221.1860258000002,311.3940922881308L1222.9574978399999,311.6307143801963L1223.39954724,311.81772280082095L1224.64056,312.0556731961043L1225.5246588,312.2879422982073L1225.9667082,312.471953071121L1226.58557736,312.64475720391926L1228.26863952,312.9171427992792L1229.32955808,313.18662541512157L1232.42717832,313.65541798272477L1233.22286724,314.01512880960354L1237.46981592,314.6455615428551L1237.91513976,315.0666482041949L1239.24128796,315.44737163845275L1240.21379664,315.76933316950937L1240.56743616,315.9964377863362L1241.98526868,316.26797154909485L1243.13459712,316.5402795115228L1244.90606916,316.87104251826264L1245.70175808,317.14445926764006L1246.40903712,317.3749511357562L1248.18050916,317.67857178062025L1249.59506724,317.9922014257874L1251.36653928,318.3436950058244L1251.63176892,318.57899228794L1253.046327,318.8498815158583L1254.46415952,319.1414063214756L1255.4366682,319.40458387487905L1260.74780988,320.0378932944049L1261.5434988,320.4883073102933L1261.63190868,320.7663669720675L1264.28747952,321.1662044778254L1265.96726724,321.55234097457145L1266.23249688,321.80701774357937L1268.18078868,322.12766012128264L1272.07409784,322.65152316408097L1273.93397976,323.1220660345835L1274.4644390400001,323.44879145225894L1274.6412588,323.65960343790687L1276.49786628,323.9405409298139L1278.44615808,324.26952440054777L1281.01331904,324.6762090457012L1285.08344796,325.2471184075059L1286.49800604,325.7019008294415L1287.56219904,326.0584484251003L1292.7816564,326.6775535761267L1294.19948892,327.1571000578874L1296.94346964,327.6520510602887L1297.65074868,328.002029004136L1299.50735616,328.35024055572836L1301.7208776,328.7219813040287L1302.162927,328.9773611187918L1303.31552988,329.2143055526514L1304.46485832,329.4396753530604L1304.9953176000001,329.6131250976335L1308.7118070000001,329.98171459411947L1308.80021688,330.20910092702235L1309.24226628,330.3766483558632L1310.57168892,330.5700646991042L1315.7027364,331.0387752168937L1317.2089788,331.4214015114484L1319.59932,331.81018629902235L1319.68772988,332.049310353262L1320.39500892,332.2394991464083L1321.4559274800001,332.42331068171484L1321.72115712,332.5509523346281L1322.51684604,332.67943328202153L1323.84626868,332.84245476856387L1324.1999082,332.9630645756834L1324.3767279600002,333.046810402059L1325.70287616,333.1820083519227L1327.2975284400002,333.3641394232976L1328.8889062800001,333.57341635859694L1330.2183289200002,333.7815387605416L1331.1024277200002,333.96105667944636L1331.36765736,334.0850999244282L1332.42857592,334.2245714845726L1332.5169858,334.3136545442383L1332.87389976,334.38867287226736L1335.3493764,334.5832520226591L1337.65130772,334.83666762523654L1340.5721082,335.159098383336L1341.8982564,335.42886078552453L1345.08428652,335.77092815003857L1345.52633592,336.0008712082163L1349.7765590400002,336.37191898561997L1350.13019856,336.6136384970061L1351.89839616,336.8533550069541L1356.14861928,337.21918681858745L1356.23702916,337.4432322591852L1358.53568604,337.69472932927846L1358.8009156800001,337.8589953002078L1362.52067952,338.1416484877988L1363.9352376000002,338.3798693328968L1367.0328578400001,338.67003178390877L1368.3590060400002,338.9060094041035L1369.06955952,339.0802991374163L1369.5116089199998,339.2052068748379L1369.6000188,339.2842084675653L1372.5208192799998,339.46366054874886L1374.02378724,339.6379711145422L1374.2890168800002,339.75421924307324L1374.55424652,339.835600650196L1375.7068494,339.9344965308483L1378.0939161600002,340.0960514678547L1379.68856844,340.2598020444831L1380.3074376000002,340.3837498376596L1380.92630676,340.4836550359851L1382.8745985599999,340.6228076632141L1384.7312060400002,340.7804232732962L1385.8838089199999,340.9201512413518L1388.98142916,341.1227990843269L1391.0148564,341.32026142366516L1391.28008604,341.4485064356578L1392.43268892,341.5674358377342L1392.78632844,341.6515986568829L1393.3167877199999,341.721204794464L1397.121687,341.89642152255254L1397.21009688,342.00458215703577L1398.89315904,342.12642910870477L1399.15838868,342.20841991609973L1399.86566772,342.281155135665L1399.9540776,342.32772388689034L1400.0424874799999,342.35858944260974L1400.5729467600001,342.39458488711466L1402.3444187999999,342.4735709248009L1402.52123856,342.5266282883132L1404.1126164000002,342.6088545639813L1408.53965928,342.7925016023171L1409.7773975999999,342.9388020088222L1410.30785688,343.0418584489101L1413.31706724,343.18798432406305L1416.94514676,343.3721607135564L1419.4238978399999,343.5453324052201L1421.81423904,343.70717205550017L1422.25628844,343.8147362992394L1422.78674772,343.89171645682L1424.8234494,343.98447690271036L1427.0336964,344.0887379969845L1428.0978894,344.1738780119596L1428.18629928,344.2268221422461L1428.71675856,344.26967837216955L1429.51244748,344.3117994086408L1431.01868988,344.3673193744289L1432.07960844,344.4213961651506L1432.61006772,344.46404264762543L1434.3815397600001,344.522755297228L1434.73517928,344.5644459370266L1436.8570164,344.6271051472126L1437.03383616,344.6677499864605L1437.83279952,344.70569174537115L1442.25656796,344.79877987230986L1444.38167952,344.88538678256344L1444.4700894,344.9385900809512L1446.41510676,344.99691762478943L1449.512727,345.070547784738L1449.60113688,345.11576876300086L1451.72624844,345.1669149016343L1451.9030682,345.1995156524257L1451.99147808,345.2200275649468L1454.64704892,345.2593032282617L1456.061607,345.2960049114598L1456.85729592,345.32503379980204L1457.1258,345.344726074017L1457.30261976,345.358041122057L1458.62876796,345.3768455133106L1459.15922724,345.39224069481986L1460.93069928,345.41430466875687L1461.81479808,345.4334477810328L1461.90320796,345.44550546783046L1462.610487,345.4571925202597L1462.96412652,345.46634956301233L1463.4945857999999,345.4749592382558L1464.91241832,345.48783584266386L1468.7173176000001,345.511980570645L1469.77823616,345.5299295349902L1470.75401928,345.5434432059498L1471.63811808,345.5536898461907L1471.72652796,345.56003300645585L1472.08016748,345.5645856651518L1472.433807,345.5680097157933L1472.78744652,345.57070229359636L1474.29368892,345.57442408187063L1474.8241482,345.5771663224138L1475.17778772,345.57908322339927L1475.35460748,345.58034877567405L1476.68075568,345.5815409015025" style="fill: none;" fill="none"></path></g></g></g></g><g opacity="0.2"><g><g><g><path stroke="rgb(255, 112, 67)" stroke-width="2px" d="M165.31337784000002,341.8519408605086L167.4384894,336.87675070625363L167.70371903999998,336.2548518655385L168.67622772,333.9745568782043L170.00237592,330.8650626746288L170.27088,330.2431638339137L172.0390776,326.0971734673658L177.43862916,313.451898563401L177.7038588,312.8299997226859L178.49954772,310.9643032005406L183.98750916,298.111730206913L184.42955856,297.07522832928225L186.28616603999998,292.7219387301399L186.73148988,291.6854414242359L187.35035904,290.2343433672795L187.88081832,288.9905456858493L190.97843856,281.73505997279426L191.15525832,281.32046379346866L191.86253736,279.66206536098616L194.42969832,273.65037732936133L196.19789592,269.5043835340184L200.97857832,258.3102044011466L201.0669882,258.1029040256205L202.8351858,253.9569148020043L204.42983808,250.2255263294404L204.7834776,249.39632482733577L205.66757640000003,247.32333021552768L211.15553784000002,234.47075265017338L213.54587904,228.87366994132753L214.96043712,225.55687307636254L215.57930628000003,224.1057795911329L215.66771616000003,223.89847921560676L218.58851664,217.05759425360395L219.8295294,214.15539813969133L220.53680844,212.4970042789355L220.97885784000002,211.46050240130478L221.15567760000002,211.0459016502524L222.21659616,208.55830628739204L223.1039694,206.48531167558394L226.90886867999998,197.5714321017731L227.61614772000001,195.91302909756394L228.32342676,194.2546352368081L230.62535807999998,188.86485290348844L231.42104700000002,186.99914952375303L231.77468652,186.16994802164845L231.95150628,185.75534727059613L233.19251904,182.85316030013684L233.3693388,182.43855954908457L233.98820795999998,180.98745692040148L234.695487,179.3290722030991L235.22594628,178.0852699499422L237.70469736,172.28087772211683L244.16516747999998,157.14800516942825L247.08596796,150.30712935087894L247.35119759999998,149.6852282243005L248.85744,146.16114012726274L249.65312892000003,144.2954367475274L249.74153880000003,144.08813637200126L250.27199808,142.84433411884436L250.36040796,142.63703374331817L250.80245735999998,141.60055015259422L252.39710964,137.86914339312352L252.66233928,137.24724226654507L253.4580282,135.38155717371654L257.79338676,125.2238753467488L258.0586164,124.60197422017035L258.58907568,123.35817196701345L259.1228094,122.11438800076336L259.56485879999997,121.0778861231326L260.4489576,119.0048823678711L260.97941688,117.76109840162098L261.42146628,116.72459652399026L266.02532892,105.94501357044406L266.46737832,104.9085116928133L266.5557882,104.70121131728716L268.14716604,100.96982284472324L269.29976892,98.27493624979012L270.44909736,95.58003136795014L273.81194724,87.70265367177007L275.31818964,84.17856557473232L277.08638724,80.0325580642093L278.23571568,77.33767146927617L280.18400748,72.77708149460767L280.44923712,72.15518036802922L281.69024988,69.25299339756992L282.0438894,68.42379189546533L286.29083808,58.47341044402372L286.90970724000005,57.02230781534069L288.85799904000004,52.46171784067217L289.9189176,49.974131621265194L290.8030164,47.90112786600366L293.45858724000004,41.682134887125976L294.43109592,39.40184904324513L295.1416494,38.7800576381075L295.67210868,38.7804599500572L298.50449928,38.78779299968544L298.8581388,38.78932909985695L301.0683858,38.80194706555147L302.48621832000003,38.81280948819283L302.5746282,38.81355925137177L303.90077640000004,38.82582976583705L304.25441592,38.82943228647735L305.76065832,38.84623795382992L308.85827856000003,38.88855385617353L309.5655576,38.89969058241695L311.33702964,38.929882265549786L312.57476796000003,38.953051776470026L313.37045688,38.96881509013474L313.90091616,38.979714086589745L314.34624,38.98902212215278L314.96510916,39.00240813793305L315.76079808000003,39.02023787206661L316.9985364,39.04931405388441L317.17535616000004,39.053611476983285L317.4405858,39.060121615805365L318.23954916,39.08007263112813L321.3371694,39.164210689331746L323.45900652,39.22790398572885L325.31888843999997,39.287629023349545L326.91026628,39.34179484130197L327.70922964,39.369901817059144L328.85855807999997,39.4117239729191L329.12378772,39.42156232877948L329.83106676,39.448206351992376L333.3707364,39.589527567770965L334.8769788,39.65367803683818L335.7610776,39.692556000702716L336.02630724,39.704387629404664L337.79777928000004,39.78517918366321L339.21233736000005,39.852237270912156L340.80698964000004,39.93024921533652L341.8679082,39.9837932784576L343.37087616,40.061695501441136L343.90460988,40.089765903384766L346.026447,40.20510142459534L347.17904988,40.26959934489184L347.44427952,40.28468604300485L347.5326894,40.28973322928265L348.23996844,40.330403310013935L348.59360796,40.35093950635444L349.21247712,40.38720244254608L353.54783568,40.65252717336022L353.90474964,40.67507492944912L354.5236188,40.71484895174705L355.31930772,40.76660089800134L357.26759952,40.89596247673035L357.62123904,40.919918324643156L358.32851808000004,40.968232332418374L359.03579712,41.017076660490936L359.38943664000004,41.04170912395545L361.16090868000003,41.16684642721281L361.60295808,41.198647358144335L361.69136796000004,41.20502948861883L362.13341736,41.23708643624559L363.19433592,41.314860650881535L363.46284,41.33450078878865L363.9048894,41.367398934128396L365.58467712,41.49427349353209L367.00250964,41.60346461405668L367.88660844000003,41.67277199084253L368.947527,41.757074631207324L371.24945832000003,41.94380223657936L372.04514724,42.00974482251331L375.14276748000003,42.272600820908956L375.23117736,42.28026303485967L375.40799712,42.29560574966796L379.30130628,42.64153916567255L380.01185976,42.70616509431664L380.80754868,42.779495590599254L380.98436843999997,42.79588065909535L381.42641784,42.83700791249674L383.63993928,43.04566151912638L383.72834916,43.05411007006966L384.61244796,43.13908932598621L384.78926772000005,43.156187583847604L385.23131712,43.19908866720896L386.47232988,43.32025771168992L387.00278916,43.37268627349601L387.79847808,43.45188686686259L389.12462628,43.58536299962241L389.4782658,43.62126019767799L389.65836,43.63927280087955L391.868607,43.867072798932604L393.8168988,44.071776433692655L394.34735808,44.128282975715926L395.85032604,44.290012379487386L396.38405976,44.34767099663929L398.68271664,44.60087150824256L400.71941832,44.82945784328819L401.33828748,44.89988072138902L401.78033688000005,44.95044401870109L402.93293976,45.0828229370527L406.20737976,45.46712228353135L407.44511808,45.61542909770895L410.54273831999996,45.99314515773829L417.88730724000004,46.92844729311764L418.68299616,47.03319469528895L419.48195952000003,47.13860042610519L420.0124188,47.20922446018085L422.13425592000004,47.49462821466539L426.29606916,48.06688038927194L427.0033482,48.166050284868106L430.18937832,48.6185780806312L431.60393640000007,48.82300741178915L431.86916604000004,48.86155621133127L432.57971952,48.96473093951743L432.84494916,49.00355404266156L434.96678628000006,49.31666246095363L435.3204258,49.36929217873455L437.97599664000006,49.76801989468128L441.33884651999995,50.28327178078086L442.9334988,50.53127881085191L443.46395808,50.61452081062213L444.87851616000006,50.837877090321854L446.47316844,51.09151648768846L446.56157832,51.105688840461305L449.57078868,51.591974266183904L450.45488747999997,51.736715133534744L450.72011712,51.78029283244785L450.80852699999997,51.79483092335675L450.98534675999997,51.823943678988144L451.07375664,51.83850005680386L453.28727808,52.2050976774966L456.20807856000005,52.69643028949701L459.7477482,53.30322643105563L462.49172892,53.78195936426834L464.87879567999994,54.20491723172989L465.32411952000007,54.283861808401234L467.26913688,54.63343431885976L468.95219904000004,54.938313629090196L470.27834724,55.180944308560974L471.69617975999995,55.44162416504696L474.26006628,55.919058727876624L474.52529591999996,55.96879911438253L476.73881736,56.38603318001457L479.04074868000004,56.824918943302116L480.54371664,57.114638407792306L482.31518868000006,57.45823109972604L483.90656652,57.77000457382143L484.08338628,57.80480455746874L484.26020604,57.83962282802292L484.79393976,57.94426050875336L487.2694164,58.4361234410511L488.51042915999994,58.684240192562974L493.46465688,59.691117281171834L493.8182964,59.763917457157156L494.79407951999997,59.96472598076798L497.5347858,60.535405481389425L498.24533928,60.683803730101026L499.39466772000003,60.92595894999493L499.83671712,61.01942333066836L501.25454964,61.31973091419786L501.69659903999997,61.41394505805027L501.87341879999997,61.451689233692996L502.7575176,61.64083071076311L503.11115712000003,61.71668480018467L505.67831808000005,62.270101460783444L506.73923664,62.50086393773869L511.34309928,63.51276992571854L512.31560796,63.72928690227371L513.8185759200001,64.06561969220638L516.297327,64.62402867836259L518.59925832,65.14750967252381L519.66017688,65.39070724610552L520.6359600000001,65.61453898538217L520.90118964,65.67572697554715L525.94382724,66.85029499954544L526.38587664,66.95440235997863L526.4742865200001,66.97524943373479L527.3616597600001,67.18404933561884L533.82212988,68.72921981289983L534.79463856,68.9652306321077L534.88304844,68.98671774760201L535.0598682,69.0297285524042L535.5019176,69.13738357275724L535.5903274799999,69.15892554897196L537.8038489200001,69.69988882603747L538.24589832,69.80858620007835L538.51112796,69.87388874427415L539.218407,70.04832754827417L540.98987904,70.48629896622151L541.25510868,70.55222326524868L541.34351856,70.57422241413347L542.6696667599999,70.90486797605023L544.61795856,71.3925614935967L545.767287,71.68226267118007L545.94410676,71.7269375845014L547.0967096400001,72.01793713246785L550.37114964,72.85231382919788L552.49298676,73.39836086635478L553.11185592,73.55833472707309L553.64558964,73.69572425788891L555.76742676,74.24760481831618L556.0326564,74.31683904747479L561.2553882,75.69062463419203L562.75835616,76.09065072052181L562.8467660399999,76.11424083029851L564.61823808,76.5873413962157L564.88346772,76.6585323244023L565.67915664,76.87243427328457L568.86518676,77.73319897653226L569.1304164,77.80530425005905L570.54824892,78.19081053238675L573.29222964,78.94232925438945L575.76770628,79.62629614265948L576.47825976,79.82260608719662L576.83189928,79.92091649817303L577.53917832,80.11782991063473L578.511687,80.38922589450766L580.81361832,81.03369306408182L581.25566772,81.15809889106703L582.6702258,81.55726549277705L584.0880583200001,81.95796819465858L584.79533736,82.15892301352386L585.59102628,82.38544292810064L586.38998964,82.61247487606794L587.36249832,82.89060044164461L587.4509082000001,82.91592780756764L588.51182676,83.22025851059396L588.68864652,83.2710595376945L592.0514964,84.24094221383956L593.1156894,84.5490217327606L594.79547712,85.03854394098744L596.8321788,85.63400220032781L598.6003764,86.15431955961202L602.85059952,87.412641616771L603.6462884399999,87.65007881470956L603.9115180800001,87.72931598188978L604.08833784,87.78218342945911L608.60051616,89.13788326534755L608.8657458,89.21808963858835L610.6372178400001,89.75413373772368L610.8140376,89.80786066991277L610.9024474800001,89.83474242291413L611.52131664,90.02300612845771L613.11596892,90.50841378265373L615.59472,91.26708268521666L617.3629176000001,91.8116850567361L617.53973736,91.86627147354498L618.0701966400001,92.03014044541247L620.81417736,92.88002443911199L622.32041976,93.34833383544661L623.9117976,93.84590228266705L624.61907664,94.06761274075448L627.36305736,94.93002326561451L629.75339856,95.68536395113915L631.7868258,96.33186096736853L634.35398676,97.1510229576379L635.3297698800001,97.46290615317412L636.74432796,97.91766495156725L637.98206628,98.31668525802284L639.8419482,98.9171175560138L643.38161784,100.06707140345439L645.32990964,100.70303516136482L645.7719590400001,100.84790403706334L649.04639904,101.92392392029677L650.01890772,102.24513343830284L650.549367,102.42059630908385L651.7903797600001,102.83071676796925L651.96719952,102.88938116499536L654.79631568,103.83071797961992L656.92142724,104.540012233813L657.9823458000001,104.89571085805073L658.1624400000001,104.9550518706286L658.69289928,105.13322120361653L659.75381784,105.49007190298289L661.96733928,106.23572052790165L664.4428159199999,107.07439464773051L664.6196356800001,107.13443056276691L664.97654964,107.25457554046687L666.3026978400001,107.70580496584688L669.93077736,108.94450517200556L670.196007,109.03544595954008L673.38203712,110.12995390555203L674.8882795200001,110.64886317301233L675.15350916,110.7405720106326L676.0376079600001,111.04654853527126L677.6289858,111.59844738260534L677.71739568,111.62915109912865L679.22363808,112.15179089557692L679.48886772,112.24415806184214L682.49807808,113.2937167909307L682.67489784,113.35561797046103L683.293767,113.57239096371148L685.6841082000001,114.41051647633627L686.4797971200001,114.69058045403413L688.33967904,115.34543458667275L690.46151616,116.09613039786927L690.90684,116.25283090226975L691.4372992799999,116.44100317327928L693.82436604,117.28968023112975L695.59583808,117.92026763843995L696.03788748,118.07817507868945L697.36403568,118.55250086736247L697.8093595199999,118.71082890646845L701.6142588,120.07649510656483L701.96789832,120.20391827317268L703.8245058,120.87389567773789L704.0046,120.93779013010986L705.4191580800001,121.44954921700992L705.59597784,121.51358996463631L706.12643712,121.70580364204943L706.30325688,121.76989925039624L707.89790916,122.34750948869623L709.9313364000001,123.08741602487862L710.73029976,123.3774829405981L712.41008748,123.99088065551285L713.38259616,124.34661585356422L713.55941592,124.41135150364913L714.09314964,124.60563160153106L715.24247808,125.02701679500751L716.83385592,125.61153948407933L720.28511568,126.88204062116955L722.3218173600001,127.63390679440153L722.6754568800001,127.76485933402245L722.76386676,127.79761118410778L723.3827359200001,128.02692899542552L724.88897832,128.58458821840276L725.861487,128.94597407065646L726.83399568,129.30778052176663L727.45613928,129.538250408213L727.98659856,129.73591358385363L730.1084356800001,130.52784636989236L735.33116748,132.48295443699078L738.5171976,133.68158803034265L738.60560748,133.7149433483525L738.959247,133.8484011942055L740.73071904,134.51644018664956L740.81912892,134.54986865228665L740.9075388,134.5833154048305L741.61481784,134.8509442859019L745.508127,136.32647822207463L746.1269961600001,136.56177585191716L746.3922258,136.6626647167529L748.07528796,137.30228585602407L752.8526959200001,139.12605735845864L753.65165928,139.43084523415507L753.82847904,139.49861651076935L754.18211856,139.6341773509048L754.71257784,139.8376191890954L754.97780748,139.9393858254577L755.5966766399999,140.17691445793025L756.3039556800001,140.44856645849848L756.57245976,140.55047939011519L757.63337832,140.95838713327737L760.02371952,141.87766993829672L760.37735904,142.0140354023315L761.34986772,142.3892644430356L762.3223763999999,142.76482264806208L768.34079712,145.09371509022702L769.58180988,145.57471559988335L770.28908892,145.84978725202382L771.52682724,146.33157409867272L771.61523712,146.36600834418402L773.9171684400001,147.26213992518996L775.15490676,147.74535315056954L777.3684282,148.6094643577623L779.9355891600001,149.61370813179138L780.2008188000001,149.71770577078377L782.4994756799999,150.6199268917553L784.09412796,151.24544882588089L784.44776748,151.3845573259362L786.6612889200001,152.25477636000142L788.9599458,153.16127661716502L791.26187712,154.06923982687294L792.59129976,154.59370831400156L793.2985788000001,154.873625996445L793.3869886800001,154.90860884916037L795.33200604,155.67909109351848L795.6889199999999,155.8192785210752L796.92665832,156.31020882112597L800.4663279600001,157.71497242796858L801.26201688,158.03148221092607L802.32620988,158.4537086021155L804.0059976,159.1228082351542L804.27122724,159.22850655647926L805.06691616,159.54572952880216L809.75918868,161.41669953769696L810.73169736,161.80560718469013L812.32634964,162.44246700103395L813.2104484399999,162.79651980365935L813.29885832,162.83192325523123L814.89023616,163.46964255619486L814.9786460400001,163.50508258158033L817.01534772,164.32071519883658L817.36898724,164.4626581694465L818.69840988,164.9951180348483L821.3507062799999,166.06106183243293L822.14966964,166.3811009884036L822.41489928,166.4878050896029L823.03376844,166.73683618645492L823.91786724,167.0927176797607L824.18309688,167.19949492858723L824.62514628,167.37751796632074L825.51251952,167.733637189415L827.63435664,168.58887924680795L828.43332,168.9097961743052L830.11310772,169.58761866188917L831.6160756799999,170.19446966416825L837.1040371199999,172.4106233258887L840.20165736,173.6635507455406L841.70789976,174.2725778897293L842.59199856,174.63096468926716L843.03404796,174.8101946628497L844.00655664,175.20458838188398L844.5370159199999,175.4197521273357L845.15915952,175.67083135774982L846.75053736,176.31665175842744L847.1925867599999,176.49610117489163L847.63463616,176.6755688782626L849.22928844,177.3218281647035L850.20179712,177.7168802123827L850.46702676,177.82464495417662L852.2384988,178.54324724393274L852.94577784,178.8307722796065L853.82987664,179.1902380066458L854.89406964,179.62169928577106L856.92749688,180.44894408884767L857.36954628,180.62883239107515L862.76909784,182.82459615170956L862.8575077200001,182.86060307120596L865.68989832,184.01329995466705L869.4947976,185.56295072411496L870.20207664,185.85133524440852L870.90935568,186.13973805160884L871.0010400000001,186.1757998318256L874.00697592,187.40177235084894L874.98275904,187.79847022014047L876.0436776,188.23128473036923L877.54992,188.84446300240234L882.85778724,191.0090475869365L884.9828988,191.87495091099606L887.63846964,192.9573620681573L887.99210916,193.10168233665172L889.22984748,193.6067941329287L890.7360898800001,194.22011870021618L891.2665491600001,194.436580816051L894.9830385600001,195.95166018818657L896.39759664,196.52874010618928L897.37337976,196.92545626238768L898.16906868,197.25001228433882L898.87634772,197.53848823916633L900.6478197600001,198.25959583515453L900.8246395200001,198.3317011086814L901.08986916,198.43984987551812L901.2666889200001,198.51194600559154L901.7971482,198.728243539265L903.5653458,199.4491134054648L903.8338498800001,199.55723474194144L904.2758992800001,199.73742477813119L905.0715882000001,200.06173392684047L911.2668286800001,202.58284004641848L913.03502628,203.3026767023839L913.12343616,203.33865619152004L913.30025592,203.41062431324588L914.54126868,203.91433716115228L914.8949082,204.05822768733685L915.69059712,204.3819516550284L915.7790070000001,204.41791285725776L916.2210564000001,204.5977371553114L916.6631058,204.77753402300493L917.9925284400001,205.31683319155127L920.7365091600001,206.43086241057608L921.7974277200001,206.86189394739142L922.41629688,207.1132749117678L922.85834628,207.29281576276605L924.0993590400001,207.7953948224507L924.89504796,208.1184056007769L927.19697928,209.0511109953901L927.8158484400001,209.30211707817705L927.90425832,209.33797770241893L928.69994724,209.66062274260912L932.06279712,211.02202809342032L932.77007616,211.30845591468585L932.85848604,211.344252534754L933.2153999999999,211.48743901502655L936.0445161600001,212.6322725285621L940.2063294,214.31162318451481L940.5599689200001,214.4544256397445L942.15134676,215.09678981503623L942.59339616,215.27515116054565L944.1880484400001,215.91699415899348L944.4532780800001,216.02392684652784L946.3131599999999,216.77210820803884L947.2856686800001,217.16377717795933L949.4075058000001,218.0177482953295L950.0296493999999,218.2666605272874L951.5326173600001,218.8708873584401L951.7094371200001,218.9419411348257L951.9746667600001,219.04851722767728L953.8345486799999,219.79416585259605L954.0113684400001,219.86514648135437L954.45341784,220.04256605116336L955.4259265200001,220.43275378163287L956.4901195199999,220.85819866841973L957.9930874800001,221.4605236612648L959.58773976,222.09776750265155L960.1181990399999,222.31006020373513L961.0022978400001,222.6637564116778L962.59367568,223.29997618628352L962.68536,223.33530649022816L965.0724267600001,224.28853893772856L965.7797058000001,224.57073334006907L966.66707904,224.92331404669676L967.6395877200001,225.31094161021372L969.4994696399999,226.05034525645897L971.0908474800001,226.68345625690807L973.9232380799999,227.8074609835943L974.5421072400001,228.0530724288741L979.1459698799999,229.8745032072378L979.32278964,229.94445062576176L980.20688844,230.29404142312706L980.8257576,230.53863794507924L983.2160987999999,231.48108111756545L985.07270628,232.21300541892805L985.96007952,232.56119726792292L987.3746375999999,233.11783242411911L987.55145736,233.18737753069342L988.1703265200001,233.43069396916934L991.0027171199999,234.54155955331714L991.4447665200001,234.71491942981572L992.42054964,235.09610085868434L992.86259904,235.26926872266148L996.6674983199999,236.75603996306506L996.93272796,236.8595987162941L998.7042,237.54942655819468L999.23465928,237.75617832651676L999.3230691599999,237.79063085893483L1001.6217260400001,238.68543663919752L1002.24386964,238.92605575891992L1007.8169665199999,241.08580345660448L1008.61592988,241.3934715201225L1009.23479904,241.63261854384717L1009.50002868,241.7350709392146L1010.1188978399999,241.97402595041785L1010.38412748,242.07639605470467L1012.33241928,242.82633295926888L1013.30492796,243.20079394988716L1014.2774366399999,243.5749074892762L1015.34162964,243.98265065027715L1015.43003952,244.01660943621152L1015.69526916,244.11846750710782L1017.81710628,244.9324268723916L1018.3508400000001,245.13565841115394L1020.38426724,245.9137114349287L1021.2683660399999,246.25151632085908L1021.97891952,246.52153164326836L1023.03983808,246.92621174737968L1027.37519664,248.57406320636318L1028.17416,248.875925176971L1028.96984892,249.17753113088355L1032.06746916,250.3479937443044L1034.5429457999999,251.28154033663066L1034.81144988,251.38140513468534L1038.35111952,252.7101866437588L1040.47295664,253.50488989617833L1041.36032988,253.83543488010764L1046.22614772,255.64731989311986L1047.37547616,256.074044863383L1048.35125928,256.4346535220975L1049.94263712,257.0238027985906L1053.12866724,258.19861769583076L1053.57071664,258.36141688365024L1053.65912652,258.39395843430736L1053.83594628,258.45905067907495L1055.07695904,258.91423007632454L1056.1378776,259.3038143388694L1058.17457928,260.0490240780249L1058.70503856,260.243103019932L1060.03118676,260.72769690677524L1060.56164604,260.92129124565207L1061.4490192800001,261.2436528387868L1063.5708564,262.0157626178504L1065.0770988,262.561325051977L1067.02211616,263.2656818413331L1069.76609688,264.2549394952366L1070.3849660399999,264.4777928849993L1071.36074916,264.82759398179286L1072.77530724,265.33553110517096L1073.12894676,265.4623508038543L1073.74781592,265.6841344095689L1074.1931397600001,265.8424258748613L1077.29076,266.9476133744465L1077.9096291600001,267.1680528925111L1081.09565928,268.2984854669388L1083.57113592,269.1739345563498L1083.74795568,269.236343197544L1083.8396400000001,269.2675360888243L1084.01645976,269.32991729965823L1084.5469190400001,269.51695121071924L1085.3426079600001,269.79722091611865L1085.87306724,269.9838708021368L1086.31511664,270.139291223061L1088.8822776,271.03861844103085L1090.12001592,271.4714649533465L1091.09579904,271.81095680642954L1091.97989784,272.1191231881579L1092.33353736,272.24226264684694L1092.42194724,272.2730395109975L1094.90069832,273.13292187099194L1095.69638724,273.4085695606967L1096.40366628,273.6532803758164L1097.73308892,274.11133996088756L1097.8214988,274.14184252143605L1098.88241736,274.5075029381551L1101.62639808,275.4490820542948L1102.422087,275.7216163981163L1103.57468988,276.1146157405068L1103.9283294000002,276.23538247303804L1104.3703788,276.38623573898803L1105.16606772,276.6574762841532L1105.87334676,276.8982599860368L1106.49221592,277.10870113780646L1106.5806258,277.1387419539582L1108.0868682,277.6487729281653L1110.7424390400001,278.54548969018896L1111.62653784,278.8434428344675L1114.90097784,279.94168130946736L1115.69666676,280.2078198076342L1115.78507664,280.23736687730224L1116.31553592,280.4145441455961L1117.73336844,280.88615432860877L1118.3522376,281.09208775785135L1120.83098868,281.91341674657696L1120.91939856,281.9426757974628L1121.71508748,282.20580609946046L1122.15713688,282.3518133351075L1123.13292,282.67258853907697L1123.92860892,282.93459419630625L1125.16634724,283.3413498643398L1126.13885592,283.6602506603619L1128.5291971200002,284.44040210669243L1128.79442676,284.52685345860664L1129.59011568,284.78594235420076L1131.80363712,285.50344742954866L1132.15727664,285.6179508964997L1132.95624,285.8752796773139L1134.19397832,286.2747297260794L1134.7244376,286.4456117267061L1134.90125736,286.50253429585916L1137.91046772,287.4669491868699L1138.440927,287.63650995848L1138.97138628,287.8058832892954L1139.14820604,287.862293825058L1139.23661592,287.8904968070759L1140.12398916,288.1721974629327L1140.5660385600002,288.3128466348862L1141.80377688,288.70596484217094L1142.5994658,288.95813214353984L1144.01729832,289.40535673632985L1146.23081976,290.1013838396369L1147.9106074800002,290.6281016163024L1148.7062964000002,290.8769132702728L1150.3009486800001,291.3732107774704L1152.6912898799999,292.11431967777514L1154.7247171200002,292.7424566395736L1154.90153688,292.79694247839507L1154.98994676,292.8241716826257L1159.5053995199999,294.2056194832937L1160.2126785599999,294.42098895644693L1160.4779082,294.5016616458112L1161.27359712,294.74336426476174L1164.636447,295.7588224843882L1167.3804277200002,296.5810978205409L1169.1518997599999,297.10865679491934L1169.77076892,297.29275565743836L1170.3896380800002,297.4765665011752L1170.83168748,297.6076881946841L1173.5756681999999,298.41736842377577L1174.28294724,298.6254048473008L1174.459767,298.67735337780323L1177.46897736,299.5568850191582L1177.7342070000002,299.6341609155837L1178.97521976,299.9940792435664L1179.2404494,300.07105340602965L1180.21295808,300.35283178124035L1180.7434173600002,300.50622235550935L1183.22216844,301.21918770624325L1183.48739808,301.29529781236005L1183.57580796,301.3206526086433L1184.10626724,301.472671664902L1184.283087,301.5232989663879L1185.7893294,301.9526298208706L1186.49660844,302.15406467103946L1187.29229736,302.38020970402675L1188.62172,302.7560193540218L1190.0362780799999,303.1553688247999L1193.48753784,304.1221838723286L1194.5484564,304.41777343390277L1194.72527616,304.4669514980245L1195.6126494,304.71247150877025L1196.58515808,304.9818239308079L1197.20402724,305.1528339397822L1197.8228964,305.32354221479426L1197.9997161600002,305.3722585345192L1199.50595856,305.7853369005801L1201.18574628,306.2448685816489L1204.3717764,307.10929980971076L1205.25914964,307.3479599445418L1206.7621176,307.75222173566L1207.2925768799998,307.8944595826421L1208.0882658,308.10738546787377L1210.74383664,308.8133835071155L1212.78053832,309.3507191190438L1212.8689482,309.37400292313157L1214.4603260400002,309.7920187540294L1216.9390771199999,310.4380723127688L1217.38112652,310.5528980864523L1218.5337294,310.8506843627062L1219.77146772,311.1701360517958L1220.47874676,311.35209991794545L1220.92079616,311.46561360606574L1221.0976159200002,311.5109719925289L1221.1860258000002,311.5336431852387L1222.9574978399999,311.9856475182945L1223.39954724,312.09823543175787L1224.64056,312.4125987890293L1225.5246588,312.636345951362L1225.9667082,312.74796923049144L1226.58557736,312.9039634031166L1228.26863952,313.3257211923192L1229.32955808,313.59084933888516L1232.42717832,314.35860683412955L1233.22286724,314.5546950499217L1237.46981592,315.59121064273256L1237.91513976,315.69827819620457L1239.24128796,316.01845678983955L1240.21379664,316.2522754660944L1240.56743616,316.33709471157636L1241.98526868,316.6752721932329L1243.13459712,316.9487414551647L1244.90606916,317.3671870283724L1245.70175808,317.55458439170616L1246.40903712,317.7206889379304L1248.18050916,318.1340027479164L1249.59506724,318.46264589353814L1251.36653928,318.87093537587987L1251.63176892,318.93193821111345L1253.046327,319.25621535773587L1254.46415952,319.57869352990144L1255.4366682,319.7993502049843L1260.74780988,320.98785742369364L1261.5434988,321.1639283341259L1261.63190868,321.1834564647288L1264.28747952,321.76596073646215L1265.96726724,322.1315457196906L1266.23249688,322.18903289709124L1268.18078868,322.6086236878376L1272.07409784,323.4373177282784L1273.93397976,323.8278803403373L1274.4644390400001,323.9388795787721L1274.6412588,323.97582141637884L1276.49786628,324.3619471676745L1278.44615808,324.76299960664863L1281.01331904,325.28623601343133L1285.08344796,326.10348245021305L1286.49800604,326.38407446234487L1287.56219904,326.59326981858857L1292.7816564,327.60621130266617L1294.19948892,327.8764197805285L1296.94346964,328.3944775638908L1297.65074868,328.52699591990677L1299.50735616,328.87255788311694L1301.7208776,329.2795924264792L1302.162927,329.36043084093643L1303.31552988,329.56972220344085L1304.46485832,329.77773005367396L1304.9953176000001,329.87329971449316L1308.7118070000001,330.5345988388484L1308.80021688,330.55018042637676L1309.24226628,330.62796949912445L1310.57168892,330.8601892139656L1315.7027364,331.7418409935781L1317.2089788,331.99534095328033L1319.59932,332.3933634803834L1319.68772988,332.4079964346214L1320.39500892,332.5247823361278L1321.4559274800001,332.69902798467473L1321.72115712,332.74241481399804L1322.51684604,332.87215470311156L1323.84626868,333.0869869983775L1324.1999082,333.1439792863627L1324.3767279600002,333.1724291416225L1325.70287616,333.38480527671834L1327.2975284400002,333.63733603035996L1328.8889062800001,333.8873317615459L1330.2183289200002,334.0937223634586L1331.1024277200002,334.23033355780353L1331.36765736,334.27116479190107L1332.42857592,334.43377882478916L1332.5169858,334.44727913373697L1332.87389976,334.5012003643109L1335.3493764,334.8751207482468L1337.65130772,335.21679102910275L1340.5721082,335.6427445204851L1341.8982564,335.83350438880734L1345.08428652,336.28402919680957L1345.52633592,336.34578579548304L1349.7765590400002,336.9284906517254L1350.13019856,336.9762177640854L1351.89839616,337.212929771876L1356.14861928,337.7679345360375L1356.23702916,337.7793004200818L1358.53568604,338.07197493441834L1358.8009156800001,338.105394256602L1362.52067952,338.56562826918525L1363.9352376000002,338.73720060054376L1367.0328578400001,339.10527546042675L1368.3590060400002,339.25997583439556L1369.06955952,339.3417337373855L1369.5116089199998,339.3925684809704L1369.6000188,339.40271085665637L1372.5208192799998,339.73283867052425L1374.02378724,339.8994369632322L1374.2890168800002,339.92859143586975L1374.55424652,339.9576727608801L1375.7068494,340.08284035182686L1378.0939161600002,340.33838387336436L1379.68856844,340.50542790942563L1380.3074376000002,340.56967152742436L1380.92630676,340.6335128334734L1382.8745985599999,340.8315366040576L1384.7312060400002,341.01684668841943L1385.8838089199999,341.1297431934351L1388.98142916,341.4267708487896L1391.0148564,341.6164549326725L1391.28008604,341.6408739536467L1392.43268892,341.74582994084875L1392.78632844,341.77784288560605L1393.3167877199999,341.8256140008355L1397.121687,342.1592466146855L1397.21009688,342.1668231087606L1398.89315904,342.3091995362083L1399.15838868,342.33140612719217L1399.86566772,342.390257965013L1399.9540776,342.39757701372827L1400.0424874799999,342.40488777618884L1400.5729467600001,342.4485780538719L1402.3444187999999,342.5920499813304L1402.52123856,342.6062143335815L1404.1126164000002,342.7321939774835L1408.53965928,343.0679721598208L1409.7773975999999,343.15825261858L1410.30785688,343.19644310904187L1413.31706724,343.40717313679244L1416.94514676,343.64842529779645L1419.4238978399999,343.8050899427156L1421.81423904,343.94993153092037L1422.25628844,343.9760826648483L1422.78674772,344.00718669319093L1424.8234494,344.12361757154576L1427.0336964,344.2451296383958L1428.0978894,344.3015880344222L1428.18629928,344.3062383376758L1428.71675856,344.3339627170547L1429.51244748,344.3749809633476L1431.01868988,344.45059932311113L1432.07960844,344.5025113512332L1432.61006772,344.52801237133764L1434.3815397600001,344.6108242716318L1434.73517928,344.62698189672454L1436.8570164,344.7210939624917L1437.03383616,344.72871724533223L1437.83279952,344.7626043837372L1442.25656796,344.938412062718L1444.38167952,345.0152971479438L1444.4700894,345.0183950285329L1446.41510676,345.08440894054667L1449.512727,345.1809930246609L1449.60113688,345.18360023039514L1451.72624844,345.2436341095845L1451.9030682,345.2484167786127L1451.99147808,345.25079543372857L1454.64704892,345.31821672323395L1456.061607,345.351057436257L1456.85729592,345.36857713231535L1457.1258,345.37426448533944L1457.30261976,345.378013694117L1458.62876796,345.4050521001911L1459.15922724,345.4153334670837L1460.93069928,345.44740062966235L1461.81479808,345.4621624494467L1461.90320796,345.46359199802697L1462.610487,345.47472309890355L1462.96412652,345.48008512714125L1463.4945857999999,345.48787375112107L1464.91241832,345.50715074927587L1468.7173176000001,345.54819766261676L1469.77823616,345.556852981508L1470.75401928,345.56371371238913L1471.63811808,345.5690598065521L1471.72652796,345.5695477468536L1472.08016748,345.5714146531957L1472.433807,345.57314579175556L1472.78744652,345.574741160301L1474.29368892,345.58000676428196L1474.8241482,345.58127968322856L1475.17778772,345.5819585748774L1475.35460748,345.5822471040862L1476.68075568,345.5833290902451" style="fill: none;" fill="none"></path></g></g></g></g></g></g><g transform="translate(70, 377)" clip-path="url(#clip_1)"><clipPath id="clip_1"><rect width="1637" height="22"></rect></clipPath><g><g><line x1="0" y1="0" x2="0" y2="5" style="visibility: inherit;" fill="rgb(0, 0, 0)" stroke="rgb(204, 204, 204)" stroke-width="1px"></line><line x1="163.722" y1="0" x2="163.722" y2="5" style="visibility: inherit;" fill="rgb(0, 0, 0)" stroke="rgb(204, 204, 204)" stroke-width="1px"></line><line x1="327.444" y1="0" x2="327.444" y2="5" style="visibility: inherit;" fill="rgb(0, 0, 0)" stroke="rgb(204, 204, 204)" stroke-width="1px"></line><line x1="491.166" y1="0" x2="491.166" y2="5" style="visibility: inherit;" fill="rgb(0, 0, 0)" stroke="rgb(204, 204, 204)" stroke-width="1px"></line><line x1="654.888" y1="0" x2="654.888" y2="5" style="visibility: inherit;" fill="rgb(0, 0, 0)" stroke="rgb(204, 204, 204)" stroke-width="1px"></line><line x1="818.61" y1="0" x2="818.61" y2="5" style="visibility: inherit;" fill="rgb(0, 0, 0)" stroke="rgb(204, 204, 204)" stroke-width="1px"></line><line x1="982.332" y1="0" x2="982.332" y2="5" style="visibility: inherit;" fill="rgb(0, 0, 0)" stroke="rgb(204, 204, 204)" stroke-width="1px"></line><line x1="1146.0539999999999" y1="0" x2="1146.0539999999999" y2="5" style="visibility: inherit;" fill="rgb(0, 0, 0)" stroke="rgb(204, 204, 204)" stroke-width="1px"></line><line x1="1309.776" y1="0" x2="1309.776" y2="5" style="visibility: inherit;" fill="rgb(0, 0, 0)" stroke="rgb(204, 204, 204)" stroke-width="1px"></line><line x1="1473.498" y1="0" x2="1473.498" y2="5" style="visibility: inherit;" fill="rgb(0, 0, 0)" stroke="rgb(204, 204, 204)" stroke-width="1px"></line><line x1="1637.22" y1="0" x2="1637.22" y2="5" style="visibility: inherit;" fill="rgb(0, 0, 0)" stroke="rgb(204, 204, 204)" stroke-width="1px"></line></g><g transform="translate(0, 8)"><text x="0" y="0" dx="0em" dy="0.95em" style="text-anchor: middle; visibility: hidden; font-family: Roboto, sans-serif; font-size: 12px; font-weight: 200;" fill="rgb(33, 33, 33)" stroke="none" stroke-width="1px">-50k</text><text x="163.722" y="0" dx="0em" dy="0.95em" style="text-anchor: middle; visibility: inherit; font-family: Roboto, sans-serif; font-size: 12px; font-weight: 200;" fill="rgb(33, 33, 33)" stroke="none" stroke-width="1px">0</text><text x="327.444" y="0" dx="0em" dy="0.95em" style="text-anchor: middle; visibility: inherit; font-family: Roboto, sans-serif; font-size: 12px; font-weight: 200;" fill="rgb(33, 33, 33)" stroke="none" stroke-width="1px">50k</text><text x="491.166" y="0" dx="0em" dy="0.95em" style="text-anchor: middle; visibility: inherit; font-family: Roboto, sans-serif; font-size: 12px; font-weight: 200;" fill="rgb(33, 33, 33)" stroke="none" stroke-width="1px">100k</text><text x="654.888" y="0" dx="0em" dy="0.95em" style="text-anchor: middle; visibility: inherit; font-family: Roboto, sans-serif; font-size: 12px; font-weight: 200;" fill="rgb(33, 33, 33)" stroke="none" stroke-width="1px">150k</text><text x="818.61" y="0" dx="0em" dy="0.95em" style="text-anchor: middle; visibility: inherit; font-family: Roboto, sans-serif; font-size: 12px; font-weight: 200;" fill="rgb(33, 33, 33)" stroke="none" stroke-width="1px">200k</text><text x="982.332" y="0" dx="0em" dy="0.95em" style="text-anchor: middle; visibility: inherit; font-family: Roboto, sans-serif; font-size: 12px; font-weight: 200;" fill="rgb(33, 33, 33)" stroke="none" stroke-width="1px">250k</text><text x="1146.0539999999999" y="0" dx="0em" dy="0.95em" style="text-anchor: middle; visibility: inherit; font-family: Roboto, sans-serif; font-size: 12px; font-weight: 200;" fill="rgb(33, 33, 33)" stroke="none" stroke-width="1px">300k</text><text x="1309.776" y="0" dx="0em" dy="0.95em" style="text-anchor: middle; visibility: inherit; font-family: Roboto, sans-serif; font-size: 12px; font-weight: 200;" fill="rgb(33, 33, 33)" stroke="none" stroke-width="1px">350k</text><text x="1473.498" y="0" dx="0em" dy="0.95em" style="text-anchor: middle; visibility: inherit; font-family: Roboto, sans-serif; font-size: 12px; font-weight: 200;" fill="rgb(33, 33, 33)" stroke="none" stroke-width="1px">400k</text><text x="1637.22" y="0" dx="0em" dy="0.95em" style="text-anchor: middle; visibility: hidden; font-family: Roboto, sans-serif; font-size: 12px; font-weight: 200;" fill="rgb(33, 33, 33)" stroke="none" stroke-width="1px">450k</text></g><line x1="0" y1="0" x2="1637.22" y2="0" fill="rgb(0, 0, 0)" stroke="rgb(204, 204, 204)" stroke-width="1px"></line></g></g></g></g></svg>