<svg viewBox="0 0 330.0000305175781 200.00001525878906" xmlns="http://www.w3.org/2000/svg"><g><g><g><g><g><line x1="70" y1="177" x2="65" y2="177" style="visibility: inherit;" fill="rgb(0, 0, 0)" stroke="rgb(204, 204, 204)" stroke-width="1px"></line><line x1="70" y1="162.25" x2="65" y2="162.25" style="visibility: inherit;" fill="rgb(0, 0, 0)" stroke="rgb(204, 204, 204)" stroke-width="1px"></line><line x1="70" y1="147.5" x2="65" y2="147.5" style="visibility: inherit;" fill="rgb(0, 0, 0)" stroke="rgb(204, 204, 204)" stroke-width="1px"></line><line x1="70" y1="132.75" x2="65" y2="132.75" style="visibility: inherit;" fill="rgb(0, 0, 0)" stroke="rgb(204, 204, 204)" stroke-width="1px"></line><line x1="70" y1="118.00000000000001" x2="65" y2="118.00000000000001" style="visibility: inherit;" fill="rgb(0, 0, 0)" stroke="rgb(204, 204, 204)" stroke-width="1px"></line><line x1="70" y1="103.25" x2="65" y2="103.25" style="visibility: inherit;" fill="rgb(0, 0, 0)" stroke="rgb(204, 204, 204)" stroke-width="1px"></line><line x1="70" y1="88.5" x2="65" y2="88.5" style="visibility: inherit;" fill="rgb(0, 0, 0)" stroke="rgb(204, 204, 204)" stroke-width="1px"></line><line x1="70" y1="73.75000000000001" x2="65" y2="73.75000000000001" style="visibility: inherit;" fill="rgb(0, 0, 0)" stroke="rgb(204, 204, 204)" stroke-width="1px"></line><line x1="70" y1="59.00000000000001" x2="65" y2="59.00000000000001" style="visibility: inherit;" fill="rgb(0, 0, 0)" stroke="rgb(204, 204, 204)" stroke-width="1px"></line><line x1="70" y1="44.25" x2="65" y2="44.25" style="visibility: inherit;" fill="rgb(0, 0, 0)" stroke="rgb(204, 204, 204)" stroke-width="1px"></line><line x1="70" y1="29.500000000000014" x2="65" y2="29.500000000000014" style="visibility: inherit;" fill="rgb(0, 0, 0)" stroke="rgb(204, 204, 204)" stroke-width="1px"></line><line x1="70" y1="14.750000000000007" x2="65" y2="14.750000000000007" style="visibility: inherit;" fill="rgb(0, 0, 0)" stroke="rgb(204, 204, 204)" stroke-width="1px"></line><line x1="70" y1="0" x2="65" y2="0" style="visibility: inherit;" fill="rgb(0, 0, 0)" stroke="rgb(204, 204, 204)" stroke-width="1px"></line></g><g transform="translate(60, 0)"><text x="0" y="177" dx="0em" dy="0.3em" style="text-anchor: end; visibility: hidden; font-family: Roboto, sans-serif; font-size: 12px; font-weight: 200;" fill="rgb(33, 33, 33)" stroke="none" stroke-width="1px">-1e-4</text><text x="0" y="162.25" dx="0em" dy="0.3em" style="text-anchor: end; visibility: inherit; font-family: Roboto, sans-serif; font-size: 12px; font-weight: 200;" fill="rgb(33, 33, 33)" stroke="none" stroke-width="1px">0</text><text x="0" y="147.5" dx="0em" dy="0.3em" style="text-anchor: end; visibility: hidden; font-family: Roboto, sans-serif; font-size: 12px; font-weight: 200;" fill="rgb(33, 33, 33)" stroke="none" stroke-width="1px">1e-4</text><text x="0" y="132.75" dx="0em" dy="0.3em" style="text-anchor: end; visibility: inherit; font-family: Roboto, sans-serif; font-size: 12px; font-weight: 200;" fill="rgb(33, 33, 33)" stroke="none" stroke-width="1px">2e-4</text><text x="0" y="118.00000000000001" dx="0em" dy="0.3em" style="text-anchor: end; visibility: hidden; font-family: Roboto, sans-serif; font-size: 12px; font-weight: 200;" fill="rgb(33, 33, 33)" stroke="none" stroke-width="1px">3e-4</text><text x="0" y="103.25" dx="0em" dy="0.3em" style="text-anchor: end; visibility: inherit; font-family: Roboto, sans-serif; font-size: 12px; font-weight: 200;" fill="rgb(33, 33, 33)" stroke="none" stroke-width="1px">4e-4</text><text x="0" y="88.5" dx="0em" dy="0.3em" style="text-anchor: end; visibility: hidden; font-family: Roboto, sans-serif; font-size: 12px; font-weight: 200;" fill="rgb(33, 33, 33)" stroke="none" stroke-width="1px">5e-4</text><text x="0" y="73.75000000000001" dx="0em" dy="0.3em" style="text-anchor: end; visibility: inherit; font-family: Roboto, sans-serif; font-size: 12px; font-weight: 200;" fill="rgb(33, 33, 33)" stroke="none" stroke-width="1px">6e-4</text><text x="0" y="59.00000000000001" dx="0em" dy="0.3em" style="text-anchor: end; visibility: hidden; font-family: Roboto, sans-serif; font-size: 12px; font-weight: 200;" fill="rgb(33, 33, 33)" stroke="none" stroke-width="1px">7e-4</text><text x="0" y="44.25" dx="0em" dy="0.3em" style="text-anchor: end; visibility: inherit; font-family: Roboto, sans-serif; font-size: 12px; font-weight: 200;" fill="rgb(33, 33, 33)" stroke="none" stroke-width="1px">8e-4</text><text x="0" y="29.500000000000014" dx="0em" dy="0.3em" style="text-anchor: end; visibility: hidden; font-family: Roboto, sans-serif; font-size: 12px; font-weight: 200;" fill="rgb(33, 33, 33)" stroke="none" stroke-width="1px">9e-4</text><text x="0" y="14.750000000000007" dx="0em" dy="0.3em" style="text-anchor: end; visibility: inherit; font-family: Roboto, sans-serif; font-size: 12px; font-weight: 200;" fill="rgb(33, 33, 33)" stroke="none" stroke-width="1px">1e-3</text><text x="0" y="0" dx="0em" dy="0.3em" style="text-anchor: end; visibility: hidden; font-family: Roboto, sans-serif; font-size: 12px; font-weight: 200;" fill="rgb(33, 33, 33)" stroke="none" stroke-width="1px">1.1e-3</text></g><line x1="70" y1="0" x2="70" y2="177" fill="rgb(0, 0, 0)" stroke="rgb(204, 204, 204)" stroke-width="1px"></line></g></g><g transform="translate(70, 0)" clip-path="url(#clip_0)"><clipPath id="clip_0"><rect width="260" height="176"></rect></clipPath><g><g><g><line x1="0" y1="0" x2="0" y2="177" fill="rgb(0, 0, 0)" stroke="rgb(66, 66, 66)" stroke-width="1px" opacity="0.25"></line><line x1="26" y1="0" x2="26" y2="177" fill="rgb(0, 0, 0)" stroke="rgb(66, 66, 66)" stroke-width="1px" opacity="0.25"></line><line x1="52" y1="0" x2="52" y2="177" fill="rgb(0, 0, 0)" stroke="rgb(66, 66, 66)" stroke-width="1px" opacity="0.25"></line><line x1="78" y1="0" x2="78" y2="177" fill="rgb(0, 0, 0)" stroke="rgb(66, 66, 66)" stroke-width="1px" opacity="0.25"></line><line x1="104" y1="0" x2="104" y2="177" fill="rgb(0, 0, 0)" stroke="rgb(66, 66, 66)" stroke-width="1px" opacity="0.25"></line><line x1="130" y1="0" x2="130" y2="177" fill="rgb(0, 0, 0)" stroke="rgb(66, 66, 66)" stroke-width="1px" opacity="0.25"></line><line x1="156" y1="0" x2="156" y2="177" fill="rgb(0, 0, 0)" stroke="rgb(66, 66, 66)" stroke-width="1px" opacity="0.25"></line><line x1="182" y1="0" x2="182" y2="177" fill="rgb(0, 0, 0)" stroke="rgb(66, 66, 66)" stroke-width="1px" opacity="0.25"></line><line x1="208" y1="0" x2="208" y2="177" fill="rgb(0, 0, 0)" stroke="rgb(66, 66, 66)" stroke-width="1px" opacity="0.25"></line><line x1="234" y1="0" x2="234" y2="177" fill="rgb(0, 0, 0)" stroke="rgb(66, 66, 66)" stroke-width="1px" opacity="0.25"></line><line x1="260" y1="0" x2="260" y2="177" fill="rgb(0, 0, 0)" stroke="rgb(66, 66, 66)" stroke-width="1px" opacity="0.25"></line></g><g><line x1="0" y1="177" x2="260" y2="177" fill="rgb(0, 0, 0)" stroke="rgb(66, 66, 66)" stroke-width="1px" opacity="0.25"></line><line x1="0" y1="162.25" x2="260" y2="162.25" fill="rgb(0, 0, 0)" stroke="rgb(66, 66, 66)" stroke-width="1px" opacity="0.25"></line><line x1="0" y1="147.5" x2="260" y2="147.5" fill="rgb(0, 0, 0)" stroke="rgb(66, 66, 66)" stroke-width="1px" opacity="0.25"></line><line x1="0" y1="132.75" x2="260" y2="132.75" fill="rgb(0, 0, 0)" stroke="rgb(66, 66, 66)" stroke-width="1px" opacity="0.25"></line><line x1="0" y1="118.00000000000001" x2="260" y2="118.00000000000001" fill="rgb(0, 0, 0)" stroke="rgb(66, 66, 66)" stroke-width="1px" opacity="0.25"></line><line x1="0" y1="103.25" x2="260" y2="103.25" fill="rgb(0, 0, 0)" stroke="rgb(66, 66, 66)" stroke-width="1px" opacity="0.25"></line><line x1="0" y1="88.5" x2="260" y2="88.5" fill="rgb(0, 0, 0)" stroke="rgb(66, 66, 66)" stroke-width="1px" opacity="0.25"></line><line x1="0" y1="73.75000000000001" x2="260" y2="73.75000000000001" fill="rgb(0, 0, 0)" stroke="rgb(66, 66, 66)" stroke-width="1px" opacity="0.25"></line><line x1="0" y1="59.00000000000001" x2="260" y2="59.00000000000001" fill="rgb(0, 0, 0)" stroke="rgb(66, 66, 66)" stroke-width="1px" opacity="0.25"></line><line x1="0" y1="44.25" x2="260" y2="44.25" fill="rgb(0, 0, 0)" stroke="rgb(66, 66, 66)" stroke-width="1px" opacity="0.25"></line><line x1="0" y1="29.500000000000014" x2="260" y2="29.500000000000014" fill="rgb(0, 0, 0)" stroke="rgb(66, 66, 66)" stroke-width="1px" opacity="0.25"></line><line x1="0" y1="14.750000000000007" x2="260" y2="14.750000000000007" fill="rgb(0, 0, 0)" stroke="rgb(66, 66, 66)" stroke-width="1px" opacity="0.25"></line><line x1="0" y1="0" x2="260" y2="0" fill="rgb(0, 0, 0)" stroke="rgb(66, 66, 66)" stroke-width="1px" opacity="0.25"></line></g></g></g><g><g><line x1="0" y1="162.25" x2="260" y2="162.25" fill="rgb(0, 0, 0)" stroke="rgb(153, 153, 153)" stroke-width="1.5px"></line></g></g><g><g><line x1="26" y1="0" x2="26" y2="177" fill="rgb(0, 0, 0)" stroke="rgb(153, 153, 153)" stroke-width="1.5px"></line></g></g><g><g><g><g><g><path stroke="rgb(255, 112, 67)" stroke-width="2px" d="M26.25272,160.49812608039792L26.5902,159.03823109150017L26.63232,158.44235556871658L26.78676,157.68747049259804L26.99736,156.6692366245805L27.04,155.98894276658135L27.320800000000002,154.80063071739605L28.17828,151.69396608192255L28.220399999999998,149.74572191191623L28.34676,148.23691118330427L29.21828,144.91500341086237L29.28848,142.73451066990248L29.583319999999997,140.6106467112727L29.654040000000002,139.1432998312565L29.75232,137.99098587098558L29.83656,137.066295205091L30.32848,135.14884844155083L30.356559999999998,133.92071971176728L30.46888,132.87245873953506L30.87656,131.11451631517286L31.15736,129.2811638791872L31.91656,126.07890146155052L31.930600000000002,124.11863999831206L32.2114,122.16387916094013L32.46464,120.29027777761837L32.5208,119.01039736867472L32.6612,117.85316503323263L33.53272,114.74513129601502L33.91232,111.82918866301458L34.13696,109.45673446060606L34.235240000000005,107.7607491915923L34.249280000000006,106.70422749045915L34.713119999999996,104.78560715373229L34.9102,103.0894071834029L35.02252,101.76024349925781L35.09272,100.7680918983726L35.1208,100.09493958270347L35.28928,99.22388174412603L35.4302,98.31194195328035L36.03444,96.09076568041958L36.14676,94.44661447353126L36.25908,93.14868002239605L36.62464,91.35772680752787L36.751,89.93277875345213L36.807159999999996,88.92208719873734L36.83524,88.23781090476527L37.03232,87.28221903420187L37.0604,86.63100255067941L37.15868,85.96775789635208L37.271,85.25836909318858L37.35524,84.5991517276763L37.74888,83.1135656857417L38.77484,79.38028467933114L39.23868,75.85561048409957L39.2808,73.62401392515454L39.519999999999996,71.62323785379277L39.64636,70.072396085551L39.6604,69.10296034400338L39.74464,68.28771481545814L39.75868,67.75963681772825L39.82888,67.24814005032837L40.082119999999996,66.24048973903824L40.12424,65.51910751045578L40.2506,64.73590548213323L40.93908,62.358387784107016L40.9812,60.81508512348293L41.06544,59.655519443491755L41.1502,58.72619938613231L41.2204,57.97395394870269L41.3608,57.133299880217024L41.44504,56.39532678976088L41.515240000000006,55.75788953247327L42.246359999999996,53.351038655259664L42.31656,51.71227472591757L42.330600000000004,50.69008568770951L42.58332,49.37602344818646L42.76636,48.08149069088839L42.94888,46.79867218867326L43.48292,44.54962209294221L43.722120000000004,42.538373899508166L44.00292,40.55301137139197L44.18544,38.85569844093798L44.49484,36.980839143656226L44.53696,35.73913152347879L44.73404,34.44908085718528L44.7902,33.51932773499802L45.464639999999996,31.092810061255804L45.562920000000005,29.36438469279094L45.87232,27.470857932702632L46.0408,25.867577143668203L46.1812,24.516301864219635L46.602920000000005,22.53761971271883L46.75736,20.922176369439676L46.870200000000004,19.836138927175792L46.95444,19.184592015361293L47.40424,18.795041003322158L47.4604,18.561598873266163L47.8114,18.423903229108344L48.03656,18.34332578829804L48.0506,18.295120128143612L48.2612,18.268501115138843L48.31736,18.25320625497881L48.556560000000005,18.247185416465175L49.048480000000005,18.251519772470846L49.1608,18.256211845538537L49.44212,18.264697039421048L49.63868,18.27413935302685L49.76504,18.28276506640905L49.84928,18.289987308626728L49.92,18.296068688222228L50.01828,18.30223138843909L50.14464,18.30927740426324L50.34119999999999,18.318965474427994L50.36928,18.32558536574545L50.4114,18.33077989424574L50.53828,18.337643380271217L51.0302,18.35756246531043L51.36716,18.381475416028724L51.66252,18.40703945347172L51.91524,18.43255013034346L52.042120000000004,18.453134981781112L52.224639999999994,18.473340026953732L52.266760000000005,18.48731068163005L52.37908,18.500696779590925L52.9412,18.535268337776287L53.1804,18.56805862868207L53.320800000000006,18.595034022964562L53.36292,18.613441220574103L53.64424,18.639658064448845L53.868880000000004,18.66798157283531L54.12212,18.699626196873144L54.2906,18.72866846113398L54.52928,18.76072373318447L54.614039999999996,18.785228473225377L54.951,18.821591144575407L55.13404,18.8555213541679L55.176159999999996,18.87871273781837L55.1902,18.89357542155896L55.30252,18.91013080823773L55.35868,18.923920705234135L55.45696,18.939004765135884L56.14544,18.997882763256335L56.20212,19.03744399483708L56.3004,19.06865023187223L56.42676,19.09709290723609L56.73616,19.13845241105919L56.79232,19.167766983465057L56.90464,19.194429020676445L57.01696,19.21959913007897L57.07312,19.239327133156223L57.354440000000004,19.27466452139683L57.424640000000004,19.30183911855857L57.43868,19.3193424308015L57.50888,19.33586466189255L57.67736,19.360383874277183L57.72,19.37878378834945L57.7902,19.396001956129794L58.05696,19.430159697131664L58.28212,19.471160260388316L58.422520000000006,19.508776413399197L58.591,19.54717800689757L58.95656,19.605286110106196L59.08292,19.652534884721383L59.57484,19.73024808765076L59.58888,19.778314960993818L59.61696,19.810036422422527L60.23524,19.89403504424824L60.34808,19.956570863890104L60.47444,20.00786370617076L60.50252,20.041716501325663L60.572720000000004,20.06975181115291L60.924240000000005,20.125757812299568L60.93828,20.160948037408723L61.07868,20.19802114148986L61.10676,20.223476029552835L61.17696,20.246805717568282L61.37404,20.283558884089096L61.45828,20.315456784468086L61.58464,20.349469270081045L61.79524,20.39494336675226L61.8514,20.428969261419006L61.879999999999995,20.452767536433036L62.231,20.509826978529393L62.5404,20.58250566060688L62.62464,20.636724708514507L62.86332,20.699628661893055L62.94808,20.748199230456937L63.313120000000005,20.82489222470275L63.63656,20.913836171173912L63.73484,20.98042784348511L63.805040000000005,21.029878553634934L63.98808,21.084409529908637L64.50807999999999,21.189298921324564L64.70464,21.28008433984459L65.19655999999999,21.40549006589051L66.36292,21.65638175399777L66.48928000000001,21.826588162283173L66.61616,21.948507035747216L66.7004,22.034921441026054L67.03736,22.14036845506207L67.69828,22.311104711128642L67.8106,22.43217041333144L68.31656,22.589793834494085L68.5412,22.72275939023139L68.58332,22.809778126876882L68.69616,22.881365418613758L68.73828,22.931608710638905L69.07524000000001,23.020555948493453L69.1314,23.083808068444633L69.55312,23.196639770890226L70.08716,23.36110227653753L70.3404,23.50635510546711L70.42464,23.6091395179011L70.64928,23.712756119214912L70.90252,23.82255915515851L70.91656,23.891102522019953L71.39444,24.023552171158418L71.53484,24.1302040651732L71.57696,24.202379024083527L71.591,24.24841422976488L71.61908,24.28150268234795L71.63311999999999,24.30408941848492L71.98464,24.386487909888714L72.44848,24.528198487302962L73.0106,24.72718018341293L73.44636,24.936474484027062L73.82543999999999,25.14148187876233L73.89616000000001,25.279311981461134L74.20504,25.427659204195702L74.47232000000001,25.573923387078665L74.68292,25.70724755226344L74.90808,25.83619731354726L75.31524,26.00322862137417L75.35736,26.112788571493667L75.70888,26.256880435058072L76.07444000000001,26.42575760105021L76.31312,26.58149275498476L76.59444,26.739460008058767L76.84716,26.892790922147093L76.87523999999999,26.99132485214445L76.90332,27.05698402593926L76.98808,27.116030320125187L77.38119999999999,27.24382917251655L77.57827999999999,27.367104415004533L78.36504000000001,27.630159475281147L78.4212,27.80166426863481L78.57616,27.942278665791946L79.0114,28.133820006059715L79.12424,28.276613765150817L79.30676000000001,28.407766385508648L79.37696,28.504010419664112L79.60212,28.618154126401134L79.67232,28.70433361671593L79.70039999999999,28.763129607020186L79.8408,28.833927669575566L79.89696,28.890651784379504L80.30464,29.028617021353078L80.47312000000001,29.154732989448174L81.20424,29.420436904387387L81.35867999999999,29.620520796958633L81.59736,29.80373389517309L81.991,30.018530072987357L82.35656,30.245716677253107L82.52504,30.427700757079393L82.68,30.57892644938042L82.72212,30.68115287193259L83.52292000000001,30.96307073103174L83.59312,31.15177264309248L83.60716000000001,31.268908837601963L83.74808,31.378402843573937L84.77404,31.734279803633243L84.92848,31.99212843590205L84.94252,32.15087286135614L84.97059999999999,32.254196877318215L85.04079999999999,32.33640872838355L85.05484,32.389781387871544L85.40636,32.52339702604774L85.47655999999999,32.62397960280514L85.51868,32.696592862729815L85.631,32.77292014845434L85.91232,32.90096685514287L85.95444,32.99017535759395L85.96848,33.04783186421326L86.17908,33.14452047848645L86.48848,33.29412171347555L86.67099999999999,33.43828787455627L86.69908,33.5331774488258L86.88212,33.64476044536636L87.40212000000001,33.86840485901612L87.73908,34.10513827174368L87.83736,34.277221155822794L87.92212,34.4062724215004L88.25908,34.5873454718307L88.3012,34.70899138007778L89.1306,35.03997367181536L89.36927999999999,35.31368730922434L89.38332,35.48234567674186L89.66464,35.672388230586435L89.70676,35.79978330590539L89.83312,35.91639079666936L90.33908,36.14800553248035L90.38119999999999,36.30051562957888L90.60636000000001,36.46441915412128L91.04212,36.703895288787834L91.43524,36.9760288626634L91.54808,37.17617570214318L91.60424,37.31472634455023L91.71656,37.43483675546471L91.871,37.557870735854806L92.23656,37.752721032857686L92.30676,37.89299442737388L92.53139999999999,38.05212131660631L92.75656000000001,38.22284877983599L92.86888,38.36302425293473L92.99524,38.489669616242345L93.12212,38.6082930727311L93.27656,38.73169868519949L93.2906,38.81049849169209L93.45908,38.91493119727005L93.48716,38.987131172655836L94.0212,39.21259358088752L94.19019999999999,39.40572786916768L94.45696,39.613539933760336L94.7804,39.85005328594109L95.0612,40.08967606923186L95.73616,40.46976061890618L95.86251999999999,40.742401676599506L95.90464,40.92086692510504L95.93272,41.037874496722736L96.64928,41.36267731126071L96.6914,41.57262162922872L96.97272000000001,41.799256448706544L97.00080000000001,41.945327172751334L97.01484,42.03801795760921L97.11312000000001,42.128988052801084L97.36636,42.274728894842156L97.76,42.50465021253748L98.0408,42.74487846178486L98.06888000000001,42.89926665353505L98.15312,43.022673900702465L98.58888,43.25632511041918L98.82808,43.48446359556084L99.0808,43.714789249147714L99.19312000000001,43.89462151247381L99.62888,44.16448019450154L100.00847999999999,44.468247182325996L100.3314,44.77191848576081L100.73908,45.10795858588821L100.89404,45.36815381372053L101.11868,45.609673929004096L101.31524,45.82952137668101L101.61059999999999,46.07419007525471L102.17272,46.43695079678298L102.48212000000001,46.77404021129162L102.55232,47.00350000429243L103.07232,47.343250701665674L103.22676,47.60742375636239L103.31099999999999,47.79887923706182L103.50808,47.99077249494856L103.53616000000001,48.116925530077026L103.98544000000001,48.36939890679182L104.32292,48.65408726490788L104.49140000000001,48.89169991531075L104.52000000000001,49.04541165327267L104.60424,49.17109861322633L104.77271999999999,49.31352678260738L105.12424,49.53901530928708L105.51736,49.831810090238875L105.54544000000001,50.01876160810591L105.60212,50.15349555442602L105.81272,50.31907609016744L106.38888,50.65105033892273L106.431,50.867313423341535L106.93696,51.20261812433142L107.17616000000001,51.50125127950408L107.21828000000001,51.69765394635707L107.35868,51.872957450830704L107.61139999999999,52.081785278690624L107.62544,52.2128480845043L107.86464000000001,52.38963668997804L107.90676,52.51305626008344L108.38464,52.78421346108426L108.41272000000001,52.9585327246841L108.511,53.10383390597961L108.8906,53.34841325214112L109.01696,53.54775642912449L109.31232,53.790342899215894L109.64928,54.0768742598721L109.72,54.27822118160151L109.80424,54.43436778765633L110.18332,54.68743595207387L110.46464,54.957700162229855L110.53484,55.14951345429074L110.74544,55.3536790577449L110.81616,55.50591217358053L111.4204,55.853721981985956L111.47656,56.08633773492269L111.7714,56.35172787698502L111.8,56.522961238689106L112.02464,56.72180879776068L112.05272000000001,56.85314408368627L112.13696,56.96804267794942L112.16504,57.0490188877459L112.41828,57.20607889710297L112.7412,57.43926817264217L112.86807999999999,57.63365584309287L113.13484000000001,57.86548355999448L113.28928,58.07138669417267L113.31736,58.20708582673797L113.40212,58.324990799460295L113.58464,58.47486925178901L113.83736,58.674568753919054L114.38544,59.032986546724906L114.70888000000001,59.3892364931374L114.76504,59.62757913951318L114.77908000000001,59.77673547265971L114.87736,59.909294792551066L115.11655999999999,60.093557899039695L115.271,60.27198345083621L115.42544,60.446985457613344L115.52424,60.595268539558646L115.60848,60.72135921852787L115.94544,60.94573734275699L116.77484,61.44753040071772L117.2808,61.97370771668595L117.29484,62.29567818190377L117.351,62.513923632085884L117.63232,62.77032756178412L117.64636,62.93044773224793L117.6604,63.03280108142301L117.77271999999999,63.14447336885872L118.39099999999999,63.48857966620351L118.48928000000001,63.73923196501584L118.5314,63.90857011255355L118.79868,64.1302928330666L119.55736,64.60582785097755L119.68424,64.94838753970637L119.71232,65.16665069083302L119.76848,65.32306669153976L119.85272,65.45512234539589L119.89484,65.55346735005557L119.99311999999999,65.6570818520001L120.10544,65.7702663665361L120.14808000000001,65.85731616161968L120.31656,65.98615046364564L120.69616,66.2360908925943L120.75232,66.41166436708195L120.90676,66.58747586843728L121.0612,66.7634920024491L122.01696,67.30646397703464L122.21404000000001,67.72257829198136L122.32636000000001,68.02390489944156L122.52292,68.29517966694885L122.53696,68.46441122395773L122.90252000000001,68.73424224287186L123.09908,68.98688752890699L123.45060000000001,69.30075340999556L123.85828000000001,69.67766832114542L123.9004,69.92334785892463L124.26544,70.24019127221494L124.51868,70.54776934389228L124.57484,70.75844054181624L124.92636,71.04826901020405L125.2914,71.39240539682612L125.65696,71.76940127454822L125.86807999999999,72.09409314836635L125.9804,72.34147636792778L125.99444000000001,72.49647602372896L126.30332,72.73417115646843L126.36,72.9031152118973L126.55656,73.09667757418272L127.11868000000001,73.47662736122095L127.24504,73.76403726695425L127.41404,74.01577665468123L127.6808,74.29247613352204L127.72292,74.47834579735125L127.84928,74.64944156498687L128.59444,75.10346421556754L128.74888,75.44891404307013L129.00212,75.77578519951106L129.14252,76.03839844622941L129.15655999999998,76.20261510612058L129.40928,76.4209077718384L129.42332,76.55853895163325L129.74676,76.79429216694183L129.80292,76.96240076010359L130.01404,77.16326103130689L130.43524,77.48395974275296L130.56212,77.73648181376578L130.60424,77.90803391675783L130.70252,78.05773282220594L130.84292,78.21438614352795L130.88504,78.32843073371353L130.95523999999997,78.43028993098544L131.09616,78.55828407267768L131.43312,78.7956936549435L131.56,78.99840709254383L131.82676,79.24732913950973L132.06544,79.51064802010667L132.93696,80.08482947910093L133.42888,80.66463612985918L133.66808,81.12689444871876L133.80848,81.4715539106109L133.87868,81.7120086915383L134.03312,81.93034807284708L134.11736,82.10175911059252L134.21616,82.25175801311596L134.46887999999998,82.4630413980464L134.53907999999998,82.62351174382073L134.60927999999998,82.75349770035342L134.86252,82.95285573973727L135.01695999999998,83.1466607091917L135.05908,83.28318173786437L135.3404,83.50004672142006L135.45272,83.68416245565346L135.59312,83.8621389876375L135.76212,84.04995264837187L136.08504,84.31799610226031L136.15524,84.5126049114573L137.01272,85.0417311366384L137.02676,85.36596891392304L137.47656,85.77698622047697L138.0808,86.31461855262394L138.19312,86.69135610585586L138.30544,86.97156022599073L138.32,87.14645504300358L138.79736,87.48162762113401L138.95232000000001,87.7572303965158L139.1208,88.00387393793639L139.36,88.26701396639601L140.20292,88.83140352348511L140.5404,89.33265252390144L140.96212,89.83667701679589L141.01828,90.16619482926835L141.21484,90.4587647082012L141.45404000000002,90.74948801318413L141.53828000000001,90.96457323702562L142.12848,91.37815386615068L142.35312,91.73467693379705L142.50808,92.02309343714043L142.63444,92.25709444353407L142.74676,92.45167037257397L143.02808000000002,92.70383878887314L143.05616,92.86868109426459L143.09828000000002,92.98789664379133L143.12636,93.0729655119933L143.2106,93.16462716549827L143.4914,93.35500237120058L143.53404,93.48953250953586L143.60424,93.60408999455888L143.7306,93.73372922755841L144.71444,94.2849724842444L144.99524,94.75090261661768L145.00928,95.03721758683962L145.03736,95.22252206769477L145.23444,95.42830122737968L145.2906,95.57879113500461L145.41696000000002,95.72987992550146L145.431,95.82728665634558L145.5012,95.91950141183399L145.5714,96.00859583073104L145.78252,96.1633320076212L146.21828000000002,96.46538662809735L146.38676,96.72756643700514L146.48504,96.93208326738387L146.55524,97.08851085168718L146.75232,97.27675094981738L146.87868,97.45035591878964L147.24424000000002,97.7296794888696L147.34252,97.94441217378578L147.35656,98.0799863528955L147.48292,98.22192308541563L148.01696,98.56275488311717L148.12928,98.82104465071845L148.14332000000002,98.98274105955728L148.2,99.10664909797276L148.64928,99.39599183284783L149.31019999999998,99.88497685425422L149.36636000000001,100.20518594091834L149.61908,100.51794636270637L149.68928,100.73909859260162L149.94252,100.99232702414648L149.98464,101.1643458716077L150.28,101.40806444903664L150.43444000000002,101.62785040469925L150.7714,101.92009639483368L150.87019999999998,102.14218930992924L151.10888,102.38891789624284L151.13696000000002,102.55029883415328L151.17908,102.66714221751998L151.47444,102.87727987259103L151.50252,103.01669251474797L151.57272,103.1336592128869L151.72716,103.27711586656396L151.89615999999998,103.4430877314082L152.13484,103.65578652536362L152.38808,103.90307918096812L152.47232,104.09132300572794L152.61272000000002,104.27069288552374L152.86544,104.49779587452082L152.88,104.64069264277126L153.25908,104.90544624028128L153.3714,105.11729405843106L153.51232,105.31061684488922L153.66676,105.4994063562787L153.96212,105.75153889110753L154.21484,106.02171565028546L154.66464,106.39490800459694L154.76292,106.66494885571382L155.49403999999998,107.16903516773185L155.52212,107.4846229688193L155.66252,107.73962824483905L155.7608,107.93856624799524L156.1404,108.23491837777229L156.43524000000002,108.55018387456816L156.57616,108.80473304773544L156.80079999999998,109.06199774807796L156.82888,109.22941702861624L156.92716000000001,109.375563036844L157.37696,109.67186943052775L157.44716000000003,109.88220997564012L157.60211999999999,110.07999956839429L157.67231999999998,110.23119397330298L158.27656,110.6011238889818L158.31868,110.84253000743053L158.6,111.11692224933944L158.68424,111.32038524752775L158.69827999999998,111.44893317719726L159.06332,111.6941050364382L159.16212,111.88639603971843L160.04716,112.40736782204749L160.17404,112.7777304641162L160.27232,113.04485947980761L160.31444,113.22437728601824L160.41271999999998,113.37696334054883L160.45484,113.48773991592901L160.76424,113.69504281830073L160.91868,113.88974773780275L161.07312,114.07682861679504L161.24212,114.2656506608983L161.25616,114.38532129331293L161.29828,114.47625245636769L161.63523999999998,114.68367142757478L161.72,114.84628936983319L162.04291999999998,115.08997725477246L162.18331999999998,115.29962920569325L162.29616,115.47612882406158L162.46464,115.65802687458145L163.15312,116.0766295863152L163.28,116.3844804110187L163.40636,116.6258320239761L163.89828,116.99045400774573L164.29139999999998,117.38454576229584L164.33404,117.63975526516458L164.89616,118.04242401951817L165.23311999999999,118.433269278155L165.37404,118.72985225525275L166.14676,119.24807116331846L166.32927999999998,119.6391407784354L166.48424,119.94150427969919L166.73695999999998,120.23356367694477L167.24292,120.62942768326188L167.31312,120.89751951542777L167.32716,121.06448586615045L167.35523999999998,121.17688989655633L167.55232,121.32981428117988L167.7208,121.49473221643196L168.04424,121.7336321805864L168.12848,121.91341987549026L168.33908,122.11229845314479L168.42332,122.26798230847085L168.56424,122.4219316158149L168.9012,122.65930218790751L169.1404,122.90418028802294L169.44928,123.18338423214105L169.88504,123.53668761159965L169.98332,123.79052115119836L170.13828,124.00851336422282L170.36292,124.2346984754199L170.41908,124.3942260797158L170.51736,124.53159325047532L170.58808000000002,124.64374043819018L171.08,124.9185812043221L171.17828,125.12488385466165L171.68424000000002,125.46095888324598L172.07736,125.82701184610029L172.10544,126.05836386730503L172.12,126.20303305536646L172.14808000000002,126.3015496603175L172.23232000000002,126.39578429411867L172.35868,126.50495927902081L172.44292,126.60551682150077L172.51312,126.69503905468486L172.9208,126.91764461484004L173.11736,127.13249583706565L173.27232,127.32516260010468L173.41272,127.49863581396619L173.46888,127.625845136647L173.48292,127.7079505763612L173.87656,127.91869837888362L174.00292,128.09691325782705L174.11524,128.24979848681244L174.32636,128.4275524852727L174.34040000000002,128.53993321667468L174.50888,128.6760320998228L174.94464,128.9345184891883L175.071,129.1407918388356L175.25404,129.33836049966177L175.3102,129.47958149632518L175.3804,129.59264409758384L175.50676,129.7114202010385L175.61908,129.82790465911486L175.71735999999999,129.93731584734346L175.7314,130.00860417774356L175.97060000000002,130.14716018121936L176.39232,130.39869576407744L176.53272,130.60557224009182L177.05272,130.93594556344578L177.17908,131.18414994385128L177.19312,131.33862146475374L177.27736,131.46457798630107L177.50252,131.628719541026L177.6008,131.7658784441272L177.99444,132.0024180629157L178.00848000000002,132.14983663737902L178.13484,132.2877032339972L178.20504,132.3978431184503L178.36,132.52416812191012L178.48636000000002,132.64916736942854L178.68292,132.80055498503975L178.83736,132.95127661636502L179.21696,133.1882207951607L179.25908,133.34662272873925L179.38544,133.4903203711359L179.73696,133.71128526780632L179.79312000000002,133.86536777466836L179.92,134.00614321428066L180.11656000000002,134.16562456147665L180.20080000000002,134.29340473755124L180.22888,134.38076281108994L180.70676,134.6142932368672L180.791,134.78625473538395L180.87524,134.92123967646145L180.90332,135.01282444994612L180.91736,135.0730717891745L181.05828000000002,135.16212312755147L181.12848000000002,135.24196762122568L181.32504,135.363701291106L181.4514,135.48409811090397L181.67656000000002,135.64032426954543L182.02808,135.86477274699595L182.29484000000002,136.0983585936464L182.4212,136.28523653426558L182.67444,136.49056718062542L183.05404,136.75294464043486L183.37696,137.02833423805882L183.40504,137.20380035044903L183.41908,137.31419361910204L184.13616,137.63986327866863L184.24847999999997,137.87571111870366L184.2906,138.03237002539575L184.41696000000002,138.17175673657735L184.95100000000002,138.44609020081825L185.38676,138.76511227883125L185.66808,139.05560026141092L185.76636,139.26446652434427L185.86464,139.42430566602087L185.93484,139.5448335963861L186.3706,139.7692070130129L186.48292,139.9428999722345L186.51100000000002,140.05687159911915L186.98888000000002,140.29042921771125L187.031,140.44507607922975L187.22808,140.60545628532165L187.2702,140.7161400341821L187.42463999999998,140.83546781390933L187.50888,140.93587098747042L187.90251999999998,141.13000664978205L187.94464,141.2607814039676L187.95868,141.34400784686846L188.04292,141.42249264943425L188.07100000000003,141.47909125761882L188.31019999999998,141.5936780737162L188.42252,141.70025930765038L188.54888000000003,141.8066777252934L188.76,141.94110523004272L188.98463999999998,142.096758927935L189.53271999999998,142.37171747389857L189.7012,142.59220385070603L189.72928000000002,142.73373123896508L189.87019999999998,142.86475593919053L190.02463999999998,142.9939547155069L190.12292,143.1035893888176L190.2212,143.20142893516706L190.24928,143.26928151028844L190.48847999999998,143.38756851508836L190.75524000000001,143.54484003632288L191.2612,143.801541757941L191.40212,144.0003827844027L191.64079999999998,144.19560712126423L191.72503999999998,144.33945376467116L191.8514,144.46574889308775L192.27311999999998,144.67411127830297L192.59655999999998,144.90003948217623L192.6106,145.03996906585138L192.86332000000002,145.20242952382193L193.25696,145.42123362873355L193.32716,145.5740801892317L193.5102,145.72171191428066L193.70676,145.87028346810988L193.81907999999999,145.99359892487266L193.88927999999999,146.0889058889009L193.91736,146.15460830010724L193.93140000000002,146.19828736074047L194.21272,146.309380491498L194.28292,146.39718020091593L194.48,146.50889696474923L194.6204,146.617946384039L194.6906,146.7043387097836L194.78887999999998,146.78546956258276L195.05616,146.91335351584195L195.22464,147.03987453176796L195.71656,147.25997077703522L195.84292,147.42885357904464L196.51736,147.7248392389532L196.58808,147.9225377510411L196.79868,148.10128588861045L196.95311999999998,148.25244554642748L197.00928,148.35907026042838L197.23444,148.48655428167052L197.41696,148.614401786577L197.69828,148.7696937022082L197.82464,148.89806177817584L197.93696,149.00627679317995L198.21828,149.14882547790393L198.44292,149.2960733484466L198.72424,149.4610981857584L198.76636,149.5715693235156L198.99099999999999,149.69875073821464L199.21616,149.83562047453893L199.3706,149.95918128873632L200.21404,150.25651754140495L200.3404,150.46798512976633L200.35444,150.59853303463115L200.77616,150.78625515271906L201.04292,150.96754470158925L201.08504,151.08711443133566L201.39444,151.2376547519019L202.01272,151.48360636616002L202.30808000000002,151.70452437167447L202.39232,151.85792065530458L202.4204,151.9568960437918L202.71524,152.08879507845373L203.02464,152.2432515090105L203.43232,152.43418833180135L204.07868,152.70222800564602L204.30331999999999,152.91574654326564L204.47232,153.08314422080306L205.3012,153.37381162592683L205.52636,153.59895679110366L205.96212,153.83133431743L206.07444,153.99564756958108L206.36928,154.1591315075966L206.7208,154.33366230984902L206.791,154.45356211678023L206.97404,154.56480658572758L207.15656,154.6706168103228L207.2408,154.7520507752815L207.831,154.9251020773452L207.84504,155.03185905592298L207.91524,155.11052190712942L208.12636,155.20133011072L208.9412,155.42138783392622L209.18040000000002,155.60102935683386L209.56,155.78356226771075L209.57404000000002,155.8958300597543L209.68636,155.9851229414172L209.85484,156.07142172589795L209.89696,156.1313489740827L210.02332,156.1916702676865L210.23444,156.26820820699152L210.2906,156.32483403155427L210.31868,156.36415236383144L210.52928,156.42762726336954L210.78252,156.51313707672062L211.03524,156.61139176517682L211.24636,156.7091044048166L211.38676,156.7933873534801L211.42888,156.85162516345835L211.59736,156.91710650601948L211.6114,156.95893064809067L211.66808,156.9941514546189L212.0612,157.08550559154023L212.42676,157.20448320866544L212.8906,157.3558631667121L213.1012,157.48251554121444L213.60716,157.64311480784303L213.67736,157.7510721587647L214.35232000000002,157.92527761393828L214.40848000000003,158.03876396278537L214.68928,158.1513099104267L215.36424,158.32306649042434L215.37828,158.42825493335752L215.74332,158.5463318071148L215.78544,158.62345402688803L216.37616,158.7561585738472L216.60080000000002,158.86800231279238L217.09272,159.00423242905L217.30332,159.1150229828284L217.41616,159.1968513191583L217.48636,159.2554950048974L217.50039999999998,159.29258593835294L217.96424,159.3768379764683L218.20292,159.45867609356492L218.24504000000002,159.51325412738453L218.28716,159.55146237422994L218.47019999999998,159.5978935967113L218.84928000000002,159.67374299684425L219.10252,159.7506232410438L219.20080000000002,159.80881623677917L219.29908,159.85572132989222L219.60848,159.92105293471855L219.90332,159.9950528365343L220.08635999999998,160.06065456158956L220.57827999999998,160.15579691757523L220.90120000000002,160.24850470023537L220.94332,160.30871522310724L221.12635999999998,160.3645521041882L221.18251999999998,160.4040662129132L221.26675999999998,160.43674601756L221.871,160.51900957424883L221.88504,160.56979056179134L222.15232,160.62699722079773L222.19444,160.6654915786463L222.30676,160.69964047483478L222.3208,160.72150431824826L222.33483999999999,160.73599557385126L222.41908,160.75289529182837L222.7004,160.78997892225402L222.72848,160.81488914331945L222.9812,160.85349405258538L223.68424,160.9397156063929L223.8808,161.00840306514996L223.96504,161.05678765373233L224.44292,161.12539317071395L225.01907999999997,161.2118632527838L225.41271999999998,161.29316667300785L225.79232,161.36914974489002L225.86252,161.41965072935116L225.94675999999998,161.45579260704812L226.2702,161.49934326732023L226.6212,161.54829343625002L226.7902,161.58826633452745L226.80424,161.6131233930439L226.88848,161.6332442224775L227.01484,161.6530198815104L227.25404,161.6790862845462L227.42252,161.70447512263038L227.50675999999999,161.72449747647136L227.78808,161.75206283185506L227.84423999999999,161.77163642136264L228.1812,161.80105467123775L228.20927999999998,161.82013726154776L228.33616,161.8379507663944L229.03868,161.881655271615L229.37616,161.9223168713892L229.3902,161.94729560829805L229.69907999999998,161.97468015805762L230.191,162.00924922519528L230.20504,162.0304802945654L230.54252,162.05449320315458L230.57059999999998,162.0697991259399L230.58464,162.0794293872562L231.00636,162.0978691549133L231.231,162.11510044914692L231.35736,162.12872939672405L231.4,162.13797484111674L231.42808,162.14422620319388L231.63868,162.15305479006892L231.72292,162.16028276653347L232.00424,162.1706417145092L232.14464,162.17962932955652L232.15868,162.18529036553315L232.271,162.19077739014844L232.32716,162.19507658528696L232.4114,162.19911879355777L232.63656,162.20516430809417L233.2408,162.21650016181476L233.40928,162.22492712915985L233.56424,162.23127174390746L233.70464,162.23608250073144L233.71868,162.2390605892379L233.77483999999998,162.2411980443816L233.831,162.24280562253426L233.88716,162.2440697770996L234.12636,162.24581714188622L234.2106,162.24710461291045L234.26676,162.2480045902962L234.29484,162.24859876205386L234.50544,162.24915846038712" style="fill: none;" fill="none"></path></g></g></g></g><g opacity="0.2"><g><g><g><path stroke="rgb(255, 112, 67)" stroke-width="2px" d="M26.25272,160.49812608039792L26.5902,158.1622940981615L26.63232,157.87031506684434L26.78676,156.79972564308264L26.99736,155.3398304864968L27.04,155.04785145517963L27.320800000000002,153.1013254740683L28.17828,147.1644192194217L28.220399999999998,146.87244018810452L28.34676,145.996503094153L29.21828,139.9622712112032L29.28848,139.47563770366833L29.583319999999997,137.4317855576519L29.654040000000002,136.94515419652453L29.75232,136.26386943238322L29.83656,135.67991136974888L30.32848,132.27348969544983L30.356559999999998,132.07883843884338L30.46888,131.3002269731951L30.87656,128.47776336153038L31.15736,126.53123577061342L31.91656,121.27561320690438L31.930600000000002,121.17828650539741L32.2114,119.23176106088795L32.46464,117.47988901939244L32.5208,117.09058221336454L32.6612,116.11731949110981L33.53272,110.08308546175249L33.91232,107.45527739950921L34.13696,105.89805446821265L34.235240000000005,105.21677185047884L34.249280000000006,105.11944514897186L34.713119999999996,101.90767687768674L34.9102,100.54510734940415L35.02252,99.76649803016335L35.09272,99.2798645226285L35.1208,99.08521111961453L35.28928,97.91729499434587L35.4302,96.94403227209114L36.03444,92.7590012785513L36.14676,91.98038766649553L36.25908,91.20177834725473L36.62464,88.67129698651844L36.751,87.79535667295568L36.807159999999996,87.40604986692779L36.83524,87.21139646391384L37.03232,85.84883122844622L37.0604,85.65417782543227L37.15868,84.97289091488346L37.271,84.19428588845767L37.35524,83.61032567941584L37.74888,80.8851866228506L38.77484,73.78036316973157L39.23868,70.56859919126146L39.2808,70.27661908674054L39.519999999999996,68.622073746752L39.64636,67.74613343318924L39.6604,67.64880673168228L39.74464,67.06484652264045L39.75868,66.96751982113346L39.82888,66.48089489922859L40.082119999999996,64.72901427210309L40.12424,64.43703416758217L40.2506,63.56110243964941L40.93908,58.792111237067736L40.9812,58.50013113254682L41.06544,57.916170923504986L41.1502,57.33221930009314L41.2204,56.845585792558275L41.3608,55.87231877748856L41.44504,55.288367154076695L41.515240000000006,54.80173364654185L42.246359999999996,49.74076233943926L42.31656,49.25412883190439L42.330600000000004,49.15680213039742L42.58332,47.40493008890189L42.76636,46.13969155494125L42.94888,44.8744444353506L43.48292,41.176046949345626L43.722120000000004,39.52150160935708L44.00292,37.57496757921763L44.18544,36.30972904525699L44.49484,34.16855019773357L44.53696,33.876570093212656L44.73404,32.51400485774503L44.7902,32.12469805171715L45.464639999999996,27.453033550642438L45.562920000000005,26.77174664009364L45.87232,24.630567792570226L46.0408,23.46265596011655L46.1812,22.489388945046812L46.602920000000005,19.569596485467635L46.75736,18.499011354520924L46.870200000000004,18.207082763779916L46.95444,18.207271647639587L47.40424,18.21071448526346L47.4604,18.211435678182177L47.8114,18.217359762871645L48.03656,18.22245962708258L48.0506,18.222811637911946L48.2612,18.228572595631718L48.31736,18.230263964738704L48.556560000000005,18.238154158694684L49.048480000000005,18.25802130647935L49.1608,18.263249955140054L49.44212,18.27742483024486L49.63868,18.28830282343553L49.76504,18.295703636482358L49.84928,18.300820671953275L49.92,18.3051907576155L50.01828,18.311475438764326L50.14464,18.319846427999444L50.34119999999999,18.333497579675175L50.36928,18.335515202721595L50.4114,18.338571686996154L50.53828,18.347938609309494L51.0302,18.38744109286928L51.36716,18.417344842106118L51.66252,18.44538550963626L51.91524,18.470816145651057L52.042120000000004,18.484012258937582L52.224639999999994,18.50364759471268L52.266760000000005,18.508266663644477L52.37908,18.52077592653223L52.9412,18.587125675054274L53.1804,18.617244065040737L53.320800000000006,18.63549711438828L53.36292,18.641052016988397L53.64424,18.678983330260976L53.868880000000004,18.71046683541499L54.12212,18.747093132929876L54.2906,18.772231857525185L54.52928,18.808806641260162L54.614039999999996,18.821985583286747L54.951,18.876135151600465L55.13404,18.906416668556645L55.176159999999996,18.913499813294052L55.1902,18.91586944716984L55.30252,18.93496388825588L55.35868,18.944605550728745L55.45696,18.961630854988478L56.14544,19.086199760437026L56.20212,19.096785842208206L56.3004,19.115459587425008L56.42676,19.139756920281798L56.73616,19.200491666793823L56.79232,19.211738842073842L56.90464,19.23442207649351L57.01696,19.257354294182747L57.07312,19.268919137772187L57.354440000000004,19.32767060375774L57.424640000000004,19.342601014301188L57.43868,19.345597399165868L57.50888,19.360648008529097L57.67736,19.397162692854195L57.72,19.406383659457802L57.7902,19.421829207800336L58.05696,19.48139630863443L58.28212,19.5326611052733L58.422520000000006,19.565200642915457L58.591,19.604780397145085L58.95656,19.69244826491922L59.08292,19.72340804664418L59.57484,19.84681789204479L59.58888,19.850415271008387L59.61696,19.857618614565595L60.23524,20.020032976986847L60.34808,20.050374593352906L60.47444,20.084802969591692L60.50252,20.09249569405803L60.572720000000004,20.111804775893695L60.924240000000005,20.209766814019545L60.93828,20.213733375072493L61.07868,20.253630797611564L61.10676,20.261658361647285L61.17696,20.281800249591477L61.37404,20.338688633870333L61.45828,20.363303635036587L61.58464,20.400487998500473L61.79524,20.463154511759065L61.8514,20.48000810341911L61.879999999999995,20.48846494895406L62.231,20.59541614167393L62.5404,20.691523683723076L62.62464,20.718053280375912L62.86332,20.79398459196092L62.94808,20.821055083302795L63.313120000000005,20.93993171607144L63.63656,21.04725209088066L63.73484,21.080315351951874L63.805040000000005,21.104054618859664L63.98808,21.16620599431917L64.50807999999999,21.346633008448407L64.70464,21.416262467624627L65.19655999999999,21.593598654959358L66.36292,22.03271928615868L66.48928000000001,22.08189777471126L66.61616,22.131385345943286L66.7004,22.164543048944324L67.03736,22.298538976116113L67.69828,22.56720909522847L67.8106,22.61376896663569L68.31656,22.82622896623799L68.5412,22.922207723837346L68.58332,22.940306231845184L68.69616,22.98874635621906L68.73828,23.00697364867665L69.07524000000001,23.153976805275313L69.1314,23.178686248371392L69.55312,23.365887324558585L70.08716,23.60779603500852L70.3404,23.724234348861508L70.42464,23.763316136552035L70.64928,23.868181021185592L70.90252,23.987263709073893L70.91656,23.99391757231207L71.39444,24.222226644866183L71.53484,24.290181906195357L71.57696,24.31064146244899L71.591,24.317467038286857L71.61908,24.33113536122255L71.63311999999999,24.337969522690408L71.98464,24.510085646994426L72.44848,24.740764353424325L73.0106,25.025652727577842L73.44636,25.250415934948265L73.82543999999999,25.448992970865227L73.89616000000001,25.486057135509334L74.20504,25.650180038297556L74.47232000000001,25.79331966140309L74.68292,25.907233800040565L74.90808,26.029621955472976L75.31524,26.25377558311449L75.35736,26.277128496672965L75.70888,26.47301823040472L76.07444000000001,26.679073350038394L76.31312,26.815095485886573L76.59444,26.976410887669786L76.84716,27.122787293279558L76.87523999999999,27.139125747140497L76.90332,27.15547278663145L76.98808,27.204599761404097L77.38119999999999,27.435527451103567L77.57827999999999,27.552017278736464L78.36504000000001,28.02474206569606L78.4212,28.058921458665296L78.57616,28.153200261527672L79.0114,28.42113201646135L79.12424,28.490804403787486L79.30676000000001,28.604495316045366L79.37696,28.648376470897347L79.60212,28.78936968650669L79.67232,28.833602852188058L79.70039999999999,28.851323592476554L79.8408,28.940124763408676L79.89696,28.975737956585377L80.30464,29.23556487681345L80.47312000000001,29.343906941590845L81.20424,29.818992776796236L81.35867999999999,29.92064663581551L81.59736,30.078553542494774L81.991,30.3407243397087L82.35656,30.586496583651765L82.52504,30.700676876818775L82.68,30.80576498783195L82.72212,30.834492505760863L83.52292000000001,31.385947519680485L83.59312,31.434825511183604L83.60716000000001,31.444613129366203L83.74808,31.542643852531924L84.77404,32.2680952437222L84.92848,32.37890138430521L84.94252,32.38898949953729L84.97059999999999,32.40918290126139L85.04079999999999,32.45972650498152L85.05484,32.46984037710355L85.40636,32.72382048331202L85.47655999999999,32.7748534679413L85.51868,32.80551275261678L85.631,32.88741107704119L85.91232,33.09303691517562L85.95444,33.123988111270606L85.96848,33.134316624142244L86.17908,33.28955339989626L86.48848,33.51852356595919L86.67099999999999,33.65453711617738L86.69908,33.6755118102301L86.88212,33.812134940177216L87.40212000000001,34.203871479490786L87.73908,34.460238390835L87.83736,34.53534548194148L87.92212,34.59984932001681L88.25908,34.85895504732616L88.3012,34.891460242448375L89.1306,35.53644710942172L89.36927999999999,35.724257765337825L89.38332,35.735333228018135L89.66464,35.957452061353266L89.70676,35.99087591888384L89.83312,36.0913020328153L90.33908,36.495427636196844L90.38119999999999,36.52928077522667L90.60636000000001,36.710274440934896L91.04212,37.06310949078762L91.43524,37.38422922347674L91.54808,37.47639596136287L91.60424,37.52255230816081L91.71656,37.61500237183646L91.871,37.742421706439934L92.23656,38.04499647836202L92.30676,38.10340451914818L92.53139999999999,38.290811650455005L92.75656000000001,38.47893997468055L92.86888,38.57328746258282L92.99524,38.67963766120375L93.12212,38.78622825746426L93.27656,38.91680710390211L93.2906,38.92869820143096L93.45908,39.07158025563695L93.48716,39.09543113573455L94.0212,39.55078719323502L94.19019999999999,39.695429301587865L94.45696,39.925258030649275L94.7804,40.20482331421226L95.0612,40.449110244167976L95.73616,41.03988744341768L95.86251999999999,41.1513632631395L95.90464,41.18856479786337L95.93272,41.21338585414924L96.64928,41.84988153306769L96.6914,41.88753810618074L96.97272000000001,42.13920867792332L97.00080000000001,42.16443325881846L97.01484,42.177054134896025L97.11312000000001,42.2654431955889L97.36636,42.493340157903745L97.76,42.849532189080506L98.0408,43.10522083565594L98.06888000000001,43.13084894116038L98.15312,43.2077847714536L98.58888,43.60680192499422L98.82808,43.826671323273345L99.0808,44.06027772952803L99.19312000000001,44.164369907462984L99.62888,44.569268217543154L100.00847999999999,44.92389766406268L100.3314,45.22742544091307L100.73908,45.612018736079335L100.89404,45.758446655469015L101.11868,45.97195410192945L101.31524,46.159292548196404L101.61059999999999,46.441193123115234L102.17272,46.98109187907541L102.48212000000001,47.27967433305457L102.55232,47.34768969379367L103.07232,47.85287674772554L103.22676,48.003683338407434L103.31099999999999,48.08606245811099L103.50808,48.278612381778665L103.53616000000001,48.306155082769706L103.98544000000001,48.74810897186399L104.32292,49.081119802081965L104.49140000000001,49.248118890915066L104.52000000000001,49.27597926021555L104.60424,49.35962905315683L104.77271999999999,49.52716903667897L105.12424,49.87724809930661L105.51736,50.27100226166658L105.54544000000001,50.29918888490648L105.60212,50.355596473906196L105.81272,50.56744689377957L106.38888,51.14901171205566L106.431,51.19170804996975L106.93696,51.70557517581621L107.17616000000001,51.94920101226308L107.21828000000001,51.99225794663653L107.35868,52.135912707541145L107.61139999999999,52.39502702048049L107.62544,52.409442293224856L107.86464000000001,52.65481959818864L107.90676,52.698185615241535L108.38464,53.190949262585505L108.41272000000001,53.220011620083824L108.511,53.3217856779229L108.8906,53.715282271383344L109.01696,53.84677119459958L109.31232,54.15422260435299L109.64928,54.5066713008564L109.72,54.58024156419561L109.80424,54.66858769673855L110.18332,55.067038198700175L110.46464,55.36309647746385L110.53484,55.437233392382055L110.74544,55.65992746292615L110.81616,55.734261847334L111.4204,56.3754366945941L111.47656,56.43526136432776L111.7714,56.74981309007853L111.8,56.779811281245216L112.02464,57.02008013636805L112.05272000000001,57.050147012574605L112.13696,57.14039056934416L112.16504,57.17048320244067L112.41828,57.44166891113855L112.7412,57.78905208595097L112.86807999999999,57.92523734876887L113.13484000000001,58.21322513534688L113.28928,58.38024139543997L113.31736,58.410634525585934L113.40212,58.50184825854376L113.58464,58.69968693028204L113.83736,58.97411800711417L114.38544,59.57061323593371L114.70888000000001,59.92361141275615L114.76504,59.98509310907685L114.77908000000001,60.00046997237951L114.87736,60.10813377238811L115.11655999999999,60.369952558772646L115.271,60.539621778531014L115.42544,60.709488467779025L115.52424,60.81769316247666L115.60848,60.910495236981674L115.94544,61.28230452910066L116.77484,62.2002199876588L117.2808,62.762973690638326L117.29484,62.778633879730485L117.351,62.841291807359084L117.63232,63.15493345633149L117.64636,63.1706279879436L117.6604,63.18633110518567L117.77271999999999,63.3119818000123L118.39099999999999,64.0047391122207L118.48928000000001,64.11521041323431L118.5314,64.1625773338601L118.79868,64.46287691383623L119.55736,65.31913037784398L119.68424,65.46222707279959L119.71232,65.49404541752301L119.76848,65.55769069259986L119.85272,65.65320582618006L119.89484,65.70098485704511L119.99311999999999,65.81250360491686L120.10544,65.94004313834013L120.14808000000001,65.98789085424505L120.31656,66.1794019166846L120.69616,66.61100153601728L120.75232,66.67502457881346L120.90676,66.85119312047028L121.0612,67.0275162034668L122.01696,68.12092193891294L122.21404000000001,68.34674976440147L122.32636000000001,68.47589481063187L122.52292,68.70209181820974L122.53696,68.71825855947101L122.90252000000001,69.13898877124302L123.09908,69.3658554579597L123.45060000000001,69.77155223162845L123.85828000000001,70.24304068787023L123.9004,70.29186716559343L124.26544,70.71545639215037L124.51868,71.00913645140827L124.57484,71.07444733870216L124.92636,71.48301171278581L125.2914,71.90860997675918L125.65696,72.33489509113133L125.86807999999999,72.58113095909357L125.9804,72.71255119726993L125.99444000000001,72.72897550743073L126.30332,73.09071385557763L126.36,73.15653129504062L126.55656,73.38702111761086L127.11868000000001,74.04655204177834L127.24504,74.19515212555416L127.41404,74.39338573627174L127.6808,74.70752535178326L127.72292,74.75715029309504L127.84928,74.90608521644026L128.59444,75.78449819143862L128.74888,75.967088784324L129.00212,76.26609193417244L129.14252,76.43231831630692L129.15655999999998,76.44894009595737L129.40928,76.74834677041508L129.42332,76.7649857213255L129.74676,77.14792198990472L129.80292,77.21456364984624L130.01404,77.46455143811181L130.43524,77.9650078099221L130.56212,78.11526492028497L130.60424,78.16536207124591L130.70252,78.28228118037805L130.84292,78.449366125511L130.88504,78.49949761899188L130.95523999999997,78.58307872689329L131.09616,78.75027528521605L131.43312,79.1518080283422L131.56,79.30247724894434L131.82676,79.62071220995858L132.06544,79.90562634100206L132.93696,80.9461016675923L133.42888,81.53434610599652L133.66808,81.82028192700818L133.80848,81.98854310344905L133.87868,82.07269086292945L134.03312,82.25785714481026L134.11736,82.35887566721067L134.21616,82.4767563669011L134.46887999999998,82.77996647544205L134.53907999999998,82.86421726248227L134.60927999999998,82.94847663515247L134.86252,83.25189279881306L135.01695999999998,83.43736816337332L135.05908,83.48796328087337L135.3404,83.82534419675358L135.45272,83.96033605700359L135.59312,84.12910378561355L135.76212,84.33167313947342L136.08504,84.72006128309295L136.15524,84.8045181252528L137.01272,85.83542047441006L137.02676,85.85232557985L137.47656,86.39351218030788L138.0808,87.12106705084443L138.19312,87.25646243570372L138.30544,87.391866406193L138.32,87.4087972685229L138.79736,87.98438648832962L138.95232000000001,88.1706345595885L139.1208,88.37383925006725L139.36,88.66172400908545L140.20292,89.67798785911873L140.5404,90.084526024526L140.96212,90.59271375613751L141.01828,90.66047154797707L141.21484,90.89761952660048L141.45404000000002,91.18557297065853L141.53828000000001,91.28720107278787L142.12848,91.99852480983826L142.35312,92.26946153526659L142.50808,92.45571819215549L142.63444,92.60809595312459L142.74676,92.74353426613379L143.02808000000002,93.08209141332189L143.05616,93.11594455235173L143.09828000000002,93.16671996808145L143.12636,93.20056881429629L143.2106,93.30211964575572L143.4914,93.64056517975403L143.53404,93.69132771703882L143.60424,93.77592622209342L143.7306,93.92818807705773L144.71444,95.1118373692734L144.99524,95.44979781517759L145.00928,95.46669004217254L145.03736,95.5004787889775L145.23444,95.73696996690704L145.2906,95.80452599644197L145.41696000000002,95.95651311124675L145.431,95.97339675261173L145.5012,96.05782354506663L145.5714,96.14223745907658L145.78252,96.39543627295643L146.21828000000002,96.91846855881158L146.38676,97.1208361503668L146.48504,97.23885851295199L146.55524,97.32315222814215L146.75232,97.55911109701266L146.87868,97.71076337224804L147.24424000000002,98.14866484398952L147.34252,98.26651120116004L147.35656,98.28334762156008L147.48292,98.4348281841958L148.01696,99.07400257966948L148.12928,99.20847930212041L148.14332000000002,99.22528567281553L148.2,99.29251115559602L148.64928,99.83000593516046L149.31019999999998,100.61845438636372L149.36636000000001,100.68549957091453L149.61908,100.98708699538837L149.68928,101.07082693744451L149.94252,101.37216967146378L149.98464,101.42237414279954L150.28,101.77364231518004L150.43444000000002,101.95752933819311L150.7714,102.35846538003534L150.87019999999998,102.4753286825726L151.10888,102.75901077571325L151.13696000000002,102.79237024101896L151.17908,102.84240729256997L151.47444,103.19248635519762L151.50252,103.22581147798336L151.57272,103.30910926009527L151.72716,103.49230084707962L151.89615999999998,103.69204552867451L152.13484,103.97483471629674L152.38808,104.27401816437487L152.47232,104.37368874286769L152.61272000000002,104.53974770521744L152.86544,104.8384503580164L152.88,104.85503779514691L153.25908,105.30257663654629L153.3714,105.43506578565577L153.51232,105.60060102457646L153.66676,105.78259062336294L153.96212,106.12973769335076L154.21484,106.42698078905232L154.66464,106.95469653606416L154.76292,107.07001013238916L155.49403999999998,107.92516463575886L155.52212,107.95800467045048L155.66252,108.12213615886867L155.7608,108.23697325272951L156.1404,108.67944657243788L156.43524000000002,109.02308211976197L156.57616,109.18655680748635L156.80079999999998,109.44789479859173L156.82888,109.4805459494237L156.92716000000001,109.5947820491856L157.37696,110.1163290210534L157.44716000000003,110.1977207933087L157.60211999999999,110.37668395752553L157.67231999999998,110.45798558066599L158.27656,111.15601876250004L158.31868,111.20463918510359L158.6,111.52851061220281L158.68424,111.62557974481025L158.69827999999998,111.6417550717015L159.06332,112.06186282529963L159.16212,112.17483254463879L160.04716,113.1888254955411L160.17404,113.33327442721931L160.27232,113.44555300334468L160.31444,113.49365399533417L160.41271999999998,113.60584242234472L160.45484,113.65390477899928L160.76424,114.00599717185833L160.91868,114.18180511705577L161.07312,114.35744993528351L161.24212,114.5488837270532L161.25616,114.56482724193485L161.29828,114.61264920094982L161.63523999999998,114.99479988438544L161.72,115.09021628322081L162.04291999999998,115.45550908218138L162.18331999999998,115.61410713207442L162.29616,115.74087825161405L162.46464,115.93087395036127L163.15312,116.70453365391586L163.28,116.84625664807392L163.40636,116.98785944341216L163.89828,117.53738698340021L164.29139999999998,117.97568339412102L164.33404,118.02256951946765L164.89616,118.64642715104856L165.23311999999999,119.01953716611024L165.37404,119.17472672089934L166.14676,120.02539952541701L166.32927999999998,120.22574520111084L166.48424,120.39504953159485L166.73695999999998,120.6716527728131L167.24292,121.22322369273752L167.31312,121.29965726367664L167.32716,121.31493539223449L167.35523999999998,121.34549594216516L167.55232,121.55920085811523L167.7208,121.74210911931004L168.04424,122.09198212681805L168.12848,122.18310141784605L168.33908,122.41061631962657L168.42332,122.50150809145998L168.56424,122.65285557683092L168.9012,123.01535804604646L169.1404,123.27149743819609L169.44928,123.60219014831819L169.88504,124.06664268078748L169.98332,124.17127146059649L170.13828,124.3355016837595L170.36292,124.57397614221554L170.41908,124.6335174861597L170.51736,124.73764400661457L170.58808000000002,124.81196121976247L171.08,125.33084235351998L171.17828,125.434337830171L171.68424000000002,125.96507142612246L172.07736,126.37609129038174L172.10544,126.40539189911216L172.12,126.42003683745861L172.14808000000002,126.44932456774404L172.23232000000002,126.53713624482043L172.35868,126.668721756374L172.44292,126.7563531352207L172.51312,126.82932240446098L172.9208,127.25155295507284L173.11736,127.45477267040407L173.27232,127.6141627446632L173.41272,127.75884563475849L173.46888,127.81665912066819L173.48292,127.8311087359325L173.87656,128.23482008266728L174.00292,128.3642355762422L174.11524,128.47912633029046L174.32636,128.69418348296313L174.34040000000002,128.70850431377767L174.50888,128.88018042454496L174.94464,129.32224807323655L175.071,129.45020186330657L175.25404,129.63471349090105L175.3102,129.69141299132025L175.3804,129.76223799947184L175.50676,129.88958435622044L175.61908,130.00263134622946L175.71735999999999,130.10143262968631L175.7314,130.11553667334374L175.97060000000002,130.35499418643303L176.39232,130.77599913836457L176.53272,130.91588695411338L177.05272,131.4315055484767L177.17908,131.55645651445957L177.19312,131.5703287461074L177.27736,131.65351276862202L177.50252,131.87493187311338L177.6008,131.971616798779L177.99444,132.35722749109846L178.00848000000002,132.37096449907403L178.13484,132.4945031289244L178.20504,132.56305294513004L178.36,132.7136556270998L178.48636000000002,132.8366662407061L178.68292,133.0276364084566L178.83736,133.17735906335292L179.21696,133.54363706335425L179.25908,133.5842256291071L179.38544,133.70586683473084L179.73696,134.04273261281196L179.79312000000002,134.0964915349614L179.92,134.2173063736991L180.11656000000002,134.4048465822707L180.20080000000002,134.48507500166306L180.22888,134.51179992139805L180.70676,134.96458887553308L180.791,135.04419698315905L180.87524,135.12371708807768L180.90332,135.1502016101731L180.91736,135.16344279801706L181.05828000000002,135.29570013511693L181.12848000000002,135.36173436173704L181.32504,135.5463017959264L181.4514,135.66469334060093L181.67656000000002,135.87466350750765L182.02808,136.2014454631717L182.29484000000002,136.44873736362206L182.4212,136.56555344519438L182.67444,136.79856315016514L183.05404,137.14651083014905L183.37696,137.44141863449477L183.40504,137.4669995190343L183.41908,137.47978352208156L184.13616,138.1283677680185L184.24847999999997,138.22948287875624L184.2906,138.2673583854339L184.41696000000002,138.38083680334967L184.95100000000002,138.8575903971796L185.38676,139.24364539585076L185.66808,139.49133223528042L185.76636,139.57776591874426L185.86464,139.66406437853584L185.93484,139.7256254919339L186.3706,140.10576713795308L186.48292,140.20343941106694L186.51100000000002,140.22782903944608L186.98888000000002,140.64076564559946L187.031,140.67704637150746L187.22808,140.84602659445954L187.2702,140.8821656574728L187.42463999999998,141.0144594835001L187.50888,141.08647574781207L187.90251999999998,141.42121014324948L187.94464,141.45694353524595L187.95868,141.4688475112198L188.04292,141.5402198532829L188.07100000000003,141.56398916989565L188.31019999999998,141.7655582978623L188.42252,141.86013115855167L188.54888000000003,141.9663053517579L188.76,142.14274648716673L188.98463999999998,142.3302394747734L189.53271999999998,142.78415529284393L189.7012,142.9229334159172L189.72928000000002,142.94602232135367L189.87019999999998,143.06129298952874L190.02463999999998,143.18775287998142L190.12292,143.26804139878368L190.2212,143.3481882546912L190.24928,143.37106037297053L190.48847999999998,143.56499902228825L190.75524000000001,143.7807473181747L191.2612,144.18659434036817L191.40212,144.29864432409522L191.64079999999998,144.48844362655655L191.72503999999998,144.55522372978157L191.8514,144.6551915857126L192.27311999999998,144.98665485612582L192.59655999999998,145.23893178798608L192.6106,145.24986344136414L192.86332000000002,145.44612021077774L193.25696,145.749439786101L193.32716,145.8033500299789L193.5102,145.9431595018541L193.70676,146.0931407988537L193.81907999999999,146.17857211001683L193.88927999999999,146.23186633494333L193.91736,146.25316191691672L193.93140000000002,146.2638059516903L194.21272,146.47602018763428L194.28292,146.5288797650428L194.48,146.67647211049916L194.6204,146.78152051297366L194.6906,146.8339271984005L194.78887999999998,146.90716584178153L195.05616,147.10517944573076L195.22464,147.22965605565696L195.71656,147.59011514493614L195.84292,147.68217778205872L196.51736,148.16881772881607L196.58808,148.21908551917295L196.79868,148.36940809496446L196.95311999999998,148.47918503315304L197.00928,148.51900733142975L197.23444,148.67778031353373L197.41696,148.80617304393672L197.69828,149.00263157565496L197.82464,149.0906138921273L197.93696,149.16859931568615L198.21828,149.36264850498992L198.44292,149.5169451542606L198.72424,149.70863544172607L198.76636,149.7372760301514L198.99099999999999,149.88952286026324L199.21616,150.04092507902533L199.3706,150.1445225100324L200.21404,150.7025219204079L200.3404,150.78518651230843L200.35444,150.79435489192838L200.77616,151.06783832985093L201.04292,151.23947902489454L201.08504,151.2664690259553L201.39444,151.46346523275133L202.01272,151.85253378754715L202.30808000000002,152.03590137994615L202.39232,152.08801508074976L202.4204,152.10535912652267L202.71524,152.28664363044663L203.02464,152.47493615484564L203.43232,152.72059356598766L204.07868,153.10428751641302L204.30331999999999,153.23602434969507L204.47232,153.3342407371092L205.3012,153.8098127336125L205.52636,153.93667453886883L205.96212,154.17990060691955L206.07444,154.2421174478077L206.36928,154.40435741461988L206.7208,154.59545851322764L206.791,154.63341182717704L206.97404,154.7316732891486L207.15656,154.8293321472156L207.2408,154.8742017227196L207.831,155.18467903044075L207.84504,155.19199452378962L207.91524,155.22851618393906L208.12636,155.33754241610586L208.9412,155.7514744187356L209.18040000000002,155.87049164119526L209.56,156.05736163402617L209.57404000000002,156.06423174781958L209.68636,156.11906226391147L209.85484,156.20086990261916L209.89696,156.22123984635982L210.02332,156.28215220809216L210.23444,156.3830151159491L210.2906,156.4097727683984L210.31868,156.42312986224715L210.52928,156.52283961267676L210.78252,156.64140179674723L211.03524,156.75877379786107L211.24636,156.8556733642763L211.38676,156.9198117764754L211.42888,156.9389818784257L211.59736,157.0153285198612L211.6114,157.02166686119745L211.66808,157.0469826644112L212.0612,157.2225367969222L212.42676,157.38294963435328L212.8906,157.58293310378212L213.1012,157.6724941029679L213.60716,157.88401370778593L213.67736,157.9130081851472L214.35232000000002,158.18658579669864L214.40848000000003,158.208993486056L214.68928,158.32012883188872L215.36424,158.5807013604208L215.37828,158.58603759775724L215.74332,158.72344711775077L215.78544,158.73913735654787L216.37616,158.95521539428591L216.60080000000002,159.0357679212102L217.09272,159.20857760343642L217.30332,159.28120881349605L217.41616,159.31959382365312L217.48636,159.343460533506L217.50039999999998,159.3482223385363L217.96424,159.50321603364137L218.20292,159.5814332692098L218.24504000000002,159.5951211781139L218.28716,159.60877474449808L218.47019999999998,159.6675404304333L218.84928000000002,159.78751709704375L219.10252,159.86594360734307L219.20080000000002,159.89610573038226L219.29908,159.9260789695618L219.60848,160.01905034195806L219.90332,160.10605268925792L220.08635999999998,160.15905714917244L220.57827999999998,160.29851045155374L220.90120000000002,160.38756637422557L220.94332,160.39903100741503L221.12635999999998,160.44830742580962L221.18251999999998,160.4633373760007L221.26675999999998,160.4857657245302L221.871,160.64240490928205L221.88504,160.6459620431051L222.15232,160.71280720930736L222.19444,160.72323311541913L222.30676,160.7508638191175L222.3208,160.75430008336843L222.33483999999999,160.75773245725577L222.41908,160.778244868794L222.7004,160.84560436789252L222.72848,160.85225447491757L222.9812,160.9114014164843L223.68424,161.0690479371042L223.8808,161.11143425328555L223.96504,161.12936453660586L224.44292,161.22830144618638L225.01907999999997,161.34156837588853L225.41271999999998,161.41512180334394L225.79232,161.48312435271328L225.86252,161.49540220604285L225.94675999999998,161.5100054235936L226.2702,161.56466925772838L226.6212,161.6217186896447L226.7902,161.6482256819436L226.80424,161.6504089808186L226.88848,161.6634254666278L227.01484,161.68268337005975L227.25404,161.7181858890999L227.42252,161.7425583797567L227.50675999999999,161.7545310072328L227.78808,161.7934108649306L227.84423999999999,161.80099680562398L228.1812,161.84518204605047L228.20927999999998,161.84876114701274L228.33616,161.8646710236644L229.03868,161.94721202944584L229.37616,161.98330927105053L229.3902,161.98476371366132L229.69907999999998,162.01575698269698L230.191,162.0611028259018L230.20504,162.06232689862054L230.54252,162.09051256603834L230.57059999999998,162.0927580101179L230.58464,162.09387477923065L231.00636,162.12552880639896L231.231,162.14094739049733L231.35736,162.1491728180897L231.4,162.1518430077058L231.42808,162.15360324630956L231.63868,162.16629767038148L231.72292,162.1711247312303L232.00424,162.18618013647279L232.14464,162.1931107521275L232.15868,162.19378191949806L232.271,162.19900792707142L232.32716,162.2015253779947L232.4114,162.205182105964L232.63656,162.21423257989875L233.2408,162.23350394239566L233.40928,162.23756758017748L233.56424,162.24078866602886L233.70464,162.24329863596742L233.71868,162.24352772199757L233.77483999999998,162.2444042270972L233.831,162.24521698976324L233.88716,162.2459660089477L234.12636,162.2484381890661L234.2106,162.24903581944682L234.26676,162.24935455637478L234.29484,162.24949001969034L234.50544,162.24999800788697" style="fill: none;" fill="none"></path></g></g></g></g></g></g><g transform="translate(70, 177)" clip-path="url(#clip_1)"><clipPath id="clip_1"><rect width="260" height="22"></rect></clipPath><g><g><line x1="0" y1="0" x2="0" y2="5" style="visibility: inherit;" fill="rgb(0, 0, 0)" stroke="rgb(204, 204, 204)" stroke-width="1px"></line><line x1="26" y1="0" x2="26" y2="5" style="visibility: inherit;" fill="rgb(0, 0, 0)" stroke="rgb(204, 204, 204)" stroke-width="1px"></line><line x1="52" y1="0" x2="52" y2="5" style="visibility: inherit;" fill="rgb(0, 0, 0)" stroke="rgb(204, 204, 204)" stroke-width="1px"></line><line x1="78" y1="0" x2="78" y2="5" style="visibility: inherit;" fill="rgb(0, 0, 0)" stroke="rgb(204, 204, 204)" stroke-width="1px"></line><line x1="104" y1="0" x2="104" y2="5" style="visibility: inherit;" fill="rgb(0, 0, 0)" stroke="rgb(204, 204, 204)" stroke-width="1px"></line><line x1="130" y1="0" x2="130" y2="5" style="visibility: inherit;" fill="rgb(0, 0, 0)" stroke="rgb(204, 204, 204)" stroke-width="1px"></line><line x1="156" y1="0" x2="156" y2="5" style="visibility: inherit;" fill="rgb(0, 0, 0)" stroke="rgb(204, 204, 204)" stroke-width="1px"></line><line x1="182" y1="0" x2="182" y2="5" style="visibility: inherit;" fill="rgb(0, 0, 0)" stroke="rgb(204, 204, 204)" stroke-width="1px"></line><line x1="208" y1="0" x2="208" y2="5" style="visibility: inherit;" fill="rgb(0, 0, 0)" stroke="rgb(204, 204, 204)" stroke-width="1px"></line><line x1="234" y1="0" x2="234" y2="5" style="visibility: inherit;" fill="rgb(0, 0, 0)" stroke="rgb(204, 204, 204)" stroke-width="1px"></line><line x1="260" y1="0" x2="260" y2="5" style="visibility: inherit;" fill="rgb(0, 0, 0)" stroke="rgb(204, 204, 204)" stroke-width="1px"></line></g><g transform="translate(0, 8)"><text x="0" y="0" dx="0em" dy="0.95em" style="text-anchor: middle; visibility: hidden; font-family: Roboto, sans-serif; font-size: 12px; font-weight: 200;" fill="rgb(33, 33, 33)" stroke="none" stroke-width="1px">-50k</text><text x="26" y="0" dx="0em" dy="0.95em" style="text-anchor: middle; visibility: inherit; font-family: Roboto, sans-serif; font-size: 12px; font-weight: 200;" fill="rgb(33, 33, 33)" stroke="none" stroke-width="1px">0</text><text x="52" y="0" dx="0em" dy="0.95em" style="text-anchor: middle; visibility: hidden; font-family: Roboto, sans-serif; font-size: 12px; font-weight: 200;" fill="rgb(33, 33, 33)" stroke="none" stroke-width="1px">50k</text><text x="78" y="0" dx="0em" dy="0.95em" style="text-anchor: middle; visibility: inherit; font-family: Roboto, sans-serif; font-size: 12px; font-weight: 200;" fill="rgb(33, 33, 33)" stroke="none" stroke-width="1px">100k</text><text x="104" y="0" dx="0em" dy="0.95em" style="text-anchor: middle; visibility: hidden; font-family: Roboto, sans-serif; font-size: 12px; font-weight: 200;" fill="rgb(33, 33, 33)" stroke="none" stroke-width="1px">150k</text><text x="130" y="0" dx="0em" dy="0.95em" style="text-anchor: middle; visibility: inherit; font-family: Roboto, sans-serif; font-size: 12px; font-weight: 200;" fill="rgb(33, 33, 33)" stroke="none" stroke-width="1px">200k</text><text x="156" y="0" dx="0em" dy="0.95em" style="text-anchor: middle; visibility: hidden; font-family: Roboto, sans-serif; font-size: 12px; font-weight: 200;" fill="rgb(33, 33, 33)" stroke="none" stroke-width="1px">250k</text><text x="182" y="0" dx="0em" dy="0.95em" style="text-anchor: middle; visibility: inherit; font-family: Roboto, sans-serif; font-size: 12px; font-weight: 200;" fill="rgb(33, 33, 33)" stroke="none" stroke-width="1px">300k</text><text x="208" y="0" dx="0em" dy="0.95em" style="text-anchor: middle; visibility: hidden; font-family: Roboto, sans-serif; font-size: 12px; font-weight: 200;" fill="rgb(33, 33, 33)" stroke="none" stroke-width="1px">350k</text><text x="234" y="0" dx="0em" dy="0.95em" style="text-anchor: middle; visibility: inherit; font-family: Roboto, sans-serif; font-size: 12px; font-weight: 200;" fill="rgb(33, 33, 33)" stroke="none" stroke-width="1px">400k</text><text x="260" y="0" dx="0em" dy="0.95em" style="text-anchor: middle; visibility: hidden; font-family: Roboto, sans-serif; font-size: 12px; font-weight: 200;" fill="rgb(33, 33, 33)" stroke="none" stroke-width="1px">450k</text></g><line x1="0" y1="0" x2="260" y2="0" fill="rgb(0, 0, 0)" stroke="rgb(204, 204, 204)" stroke-width="1px"></line></g></g></g></g></svg>