<svg viewBox="0 0 1971.25 400" xmlns="http://www.w3.org/2000/svg"><g><g><g><g><g><line x1="50" y1="377" x2="45" y2="377" style="visibility: inherit;" fill="rgb(0, 0, 0)" stroke="rgb(204, 204, 204)" stroke-width="1px"></line><line x1="50" y1="339.29999999999995" x2="45" y2="339.29999999999995" style="visibility: inherit;" fill="rgb(0, 0, 0)" stroke="rgb(204, 204, 204)" stroke-width="1px"></line><line x1="50" y1="301.6" x2="45" y2="301.6" style="visibility: inherit;" fill="rgb(0, 0, 0)" stroke="rgb(204, 204, 204)" stroke-width="1px"></line><line x1="50" y1="263.9" x2="45" y2="263.9" style="visibility: inherit;" fill="rgb(0, 0, 0)" stroke="rgb(204, 204, 204)" stroke-width="1px"></line><line x1="50" y1="226.19999999999996" x2="45" y2="226.19999999999996" style="visibility: inherit;" fill="rgb(0, 0, 0)" stroke="rgb(204, 204, 204)" stroke-width="1px"></line><line x1="50" y1="188.50000000000003" x2="45" y2="188.50000000000003" style="visibility: inherit;" fill="rgb(0, 0, 0)" stroke="rgb(204, 204, 204)" stroke-width="1px"></line><line x1="50" y1="150.8" x2="45" y2="150.8" style="visibility: inherit;" fill="rgb(0, 0, 0)" stroke="rgb(204, 204, 204)" stroke-width="1px"></line><line x1="50" y1="113.09999999999998" x2="45" y2="113.09999999999998" style="visibility: inherit;" fill="rgb(0, 0, 0)" stroke="rgb(204, 204, 204)" stroke-width="1px"></line><line x1="50" y1="75.40000000000006" x2="45" y2="75.40000000000006" style="visibility: inherit;" fill="rgb(0, 0, 0)" stroke="rgb(204, 204, 204)" stroke-width="1px"></line><line x1="50" y1="37.70000000000003" x2="45" y2="37.70000000000003" style="visibility: inherit;" fill="rgb(0, 0, 0)" stroke="rgb(204, 204, 204)" stroke-width="1px"></line><line x1="50" y1="0" x2="45" y2="0" style="visibility: inherit;" fill="rgb(0, 0, 0)" stroke="rgb(204, 204, 204)" stroke-width="1px"></line></g><g transform="translate(40, 0)"><text x="0" y="377" dx="0em" dy="0.3em" style="text-anchor: end; visibility: hidden; font-family: Roboto, sans-serif; font-size: 12px; font-weight: 200;" fill="rgb(33, 33, 33)" stroke="none" stroke-width="1px">0.32</text><text x="0" y="339.29999999999995" dx="0em" dy="0.3em" style="text-anchor: end; visibility: inherit; font-family: Roboto, sans-serif; font-size: 12px; font-weight: 200;" fill="rgb(33, 33, 33)" stroke="none" stroke-width="1px">0.34</text><text x="0" y="301.6" dx="0em" dy="0.3em" style="text-anchor: end; visibility: inherit; font-family: Roboto, sans-serif; font-size: 12px; font-weight: 200;" fill="rgb(33, 33, 33)" stroke="none" stroke-width="1px">0.36</text><text x="0" y="263.9" dx="0em" dy="0.3em" style="text-anchor: end; visibility: inherit; font-family: Roboto, sans-serif; font-size: 12px; font-weight: 200;" fill="rgb(33, 33, 33)" stroke="none" stroke-width="1px">0.38</text><text x="0" y="226.19999999999996" dx="0em" dy="0.3em" style="text-anchor: end; visibility: inherit; font-family: Roboto, sans-serif; font-size: 12px; font-weight: 200;" fill="rgb(33, 33, 33)" stroke="none" stroke-width="1px">0.4</text><text x="0" y="188.50000000000003" dx="0em" dy="0.3em" style="text-anchor: end; visibility: inherit; font-family: Roboto, sans-serif; font-size: 12px; font-weight: 200;" fill="rgb(33, 33, 33)" stroke="none" stroke-width="1px">0.42</text><text x="0" y="150.8" dx="0em" dy="0.3em" style="text-anchor: end; visibility: inherit; font-family: Roboto, sans-serif; font-size: 12px; font-weight: 200;" fill="rgb(33, 33, 33)" stroke="none" stroke-width="1px">0.44</text><text x="0" y="113.09999999999998" dx="0em" dy="0.3em" style="text-anchor: end; visibility: inherit; font-family: Roboto, sans-serif; font-size: 12px; font-weight: 200;" fill="rgb(33, 33, 33)" stroke="none" stroke-width="1px">0.46</text><text x="0" y="75.40000000000006" dx="0em" dy="0.3em" style="text-anchor: end; visibility: inherit; font-family: Roboto, sans-serif; font-size: 12px; font-weight: 200;" fill="rgb(33, 33, 33)" stroke="none" stroke-width="1px">0.48</text><text x="0" y="37.70000000000003" dx="0em" dy="0.3em" style="text-anchor: end; visibility: inherit; font-family: Roboto, sans-serif; font-size: 12px; font-weight: 200;" fill="rgb(33, 33, 33)" stroke="none" stroke-width="1px">0.5</text><text x="0" y="0" dx="0em" dy="0.3em" style="text-anchor: end; visibility: hidden; font-family: Roboto, sans-serif; font-size: 12px; font-weight: 200;" fill="rgb(33, 33, 33)" stroke="none" stroke-width="1px">0.52</text></g><line x1="50" y1="0" x2="50" y2="377" fill="rgb(0, 0, 0)" stroke="rgb(204, 204, 204)" stroke-width="1px"></line></g></g><g transform="translate(50, 0)" clip-path="url(#clip_0)"><clipPath id="clip_0"><rect width="1921" height="376"></rect></clipPath><g><g><g><line x1="0" y1="0" x2="0" y2="377" fill="rgb(0, 0, 0)" stroke="rgb(66, 66, 66)" stroke-width="1px" opacity="0.25"></line><line x1="192.125" y1="0" x2="192.125" y2="377" fill="rgb(0, 0, 0)" stroke="rgb(66, 66, 66)" stroke-width="1px" opacity="0.25"></line><line x1="384.25" y1="0" x2="384.25" y2="377" fill="rgb(0, 0, 0)" stroke="rgb(66, 66, 66)" stroke-width="1px" opacity="0.25"></line><line x1="576.375" y1="0" x2="576.375" y2="377" fill="rgb(0, 0, 0)" stroke="rgb(66, 66, 66)" stroke-width="1px" opacity="0.25"></line><line x1="768.5" y1="0" x2="768.5" y2="377" fill="rgb(0, 0, 0)" stroke="rgb(66, 66, 66)" stroke-width="1px" opacity="0.25"></line><line x1="960.625" y1="0" x2="960.625" y2="377" fill="rgb(0, 0, 0)" stroke="rgb(66, 66, 66)" stroke-width="1px" opacity="0.25"></line><line x1="1152.75" y1="0" x2="1152.75" y2="377" fill="rgb(0, 0, 0)" stroke="rgb(66, 66, 66)" stroke-width="1px" opacity="0.25"></line><line x1="1344.875" y1="0" x2="1344.875" y2="377" fill="rgb(0, 0, 0)" stroke="rgb(66, 66, 66)" stroke-width="1px" opacity="0.25"></line><line x1="1537" y1="0" x2="1537" y2="377" fill="rgb(0, 0, 0)" stroke="rgb(66, 66, 66)" stroke-width="1px" opacity="0.25"></line><line x1="1729.125" y1="0" x2="1729.125" y2="377" fill="rgb(0, 0, 0)" stroke="rgb(66, 66, 66)" stroke-width="1px" opacity="0.25"></line><line x1="1921.25" y1="0" x2="1921.25" y2="377" fill="rgb(0, 0, 0)" stroke="rgb(66, 66, 66)" stroke-width="1px" opacity="0.25"></line></g><g><line x1="0" y1="377" x2="1921.25" y2="377" fill="rgb(0, 0, 0)" stroke="rgb(66, 66, 66)" stroke-width="1px" opacity="0.25"></line><line x1="0" y1="339.29999999999995" x2="1921.25" y2="339.29999999999995" fill="rgb(0, 0, 0)" stroke="rgb(66, 66, 66)" stroke-width="1px" opacity="0.25"></line><line x1="0" y1="301.6" x2="1921.25" y2="301.6" fill="rgb(0, 0, 0)" stroke="rgb(66, 66, 66)" stroke-width="1px" opacity="0.25"></line><line x1="0" y1="263.9" x2="1921.25" y2="263.9" fill="rgb(0, 0, 0)" stroke="rgb(66, 66, 66)" stroke-width="1px" opacity="0.25"></line><line x1="0" y1="226.19999999999996" x2="1921.25" y2="226.19999999999996" fill="rgb(0, 0, 0)" stroke="rgb(66, 66, 66)" stroke-width="1px" opacity="0.25"></line><line x1="0" y1="188.50000000000003" x2="1921.25" y2="188.50000000000003" fill="rgb(0, 0, 0)" stroke="rgb(66, 66, 66)" stroke-width="1px" opacity="0.25"></line><line x1="0" y1="150.8" x2="1921.25" y2="150.8" fill="rgb(0, 0, 0)" stroke="rgb(66, 66, 66)" stroke-width="1px" opacity="0.25"></line><line x1="0" y1="113.09999999999998" x2="1921.25" y2="113.09999999999998" fill="rgb(0, 0, 0)" stroke="rgb(66, 66, 66)" stroke-width="1px" opacity="0.25"></line><line x1="0" y1="75.40000000000006" x2="1921.25" y2="75.40000000000006" fill="rgb(0, 0, 0)" stroke="rgb(66, 66, 66)" stroke-width="1px" opacity="0.25"></line><line x1="0" y1="37.70000000000003" x2="1921.25" y2="37.70000000000003" fill="rgb(0, 0, 0)" stroke="rgb(66, 66, 66)" stroke-width="1px" opacity="0.25"></line><line x1="0" y1="0" x2="1921.25" y2="0" fill="rgb(0, 0, 0)" stroke="rgb(66, 66, 66)" stroke-width="1px" opacity="0.25"></line></g></g></g><g><g><line x1="0" y1="980.1999999999998" x2="1921.25" y2="980.1999999999998" fill="rgb(0, 0, 0)" stroke="rgb(153, 153, 153)" stroke-width="1.5px"></line></g></g><g><g><line x1="192.125" y1="0" x2="192.125" y2="377" fill="rgb(0, 0, 0)" stroke="rgb(153, 153, 153)" stroke-width="1.5px"></line></g></g><g><g><g><g><g><path stroke="rgb(255, 112, 67)" stroke-width="2px" d="M258.79621749999995,-8.96929920535986L259.314955,25.40775037686152L259.52245,43.73836999364194L260.76741999999996,43.38410256985897L261.8087375,53.13149908260985L266.27372249999996,52.766808878151636L267.1037025,29.913387720594546L267.9336825,33.950667414706494L270.63496,48.41025183716181L271.5686875,42.78108491155585L271.9836775,41.97098080181456L272.1911725,31.303015807579435L273.64748000000003,30.48523449138349L273.854975,29.71574614067464L274.5812075,30.704103603493245L275.4111875,35.66075207149873L276.03367249999997,16.47132750833202L278.942445,30.029501612727724L286.52369749999997,12.714121475037459L289.9512075,34.34334710970791L290.26245,65.23634260021757L292.03,79.01468001558776L292.9637275,80.47693917485746L293.067475,99.2427222259826L293.68996,103.99934599447216L293.7937075,82.80913294820661L294.31244499999997,92.73264571588471L296.1837425,93.87848667717716L296.494985,64.61034837494306L297.4287125,71.70987359243648L302.51618249999996,73.797434236753L302.827425,77.64046680578473L303.44991,69.14650007753895L304.0762375,83.5773315874895L304.594975,99.81161952782635L305.63245,117.42075534802046L306.254935,97.32956770027491L306.77367250000003,70.88203117707265L312.1762275,73.55557184373669L312.694965,80.43850465867129L312.7987125,97.4006604972673L314.66616750000003,106.21320325751269L316.0187275,106.93548555027942L317.367445,85.7124533513278L321.3136925,75.76700940961183L323.08124250000003,91.13647286912519L325.15619250000003,87.71145473492571L326.50491,92.7372203074243L328.7911975,95.88031465305954L329.10244,95.51534597452923L330.55874750000004,93.6237395237472L330.9737375,99.7732512778393L335.95745999999997,122.33556860127158L336.6836925,110.99482975148022L338.96998,119.22217187012953L340.21495,143.65808200553496L341.252425,143.35363760301732L344.3686925,119.01795683806701L345.509915,120.85422886196116L346.34373750000003,150.78388533343875L346.9662225,130.69849386304625L350.289985,118.07281158739337L350.704975,148.83163133367307L353.2986625,139.54244435968644L354.962465,139.08491607870258L355.0662125,132.84548514584054L356.622425,145.32421288668723L357.037415,147.46439683782825L358.80496500000004,153.07416529147483L362.43997,141.25723614387908L363.26995,154.17851672704936L365.3487425,158.27546357474293L366.80120750000003,147.9297736415956L367.734935,157.05453678427293L368.35742,160.3335558012614L368.88,169.35253142806835L369.6062325,165.89191342766856L370.53996,166.90626465186935L371.99242499999997,164.03724852624813L372.19992,153.12895003690292L372.5111625,140.26648775657395L373.4487325,158.32626979780426L377.0837375,163.67888989467758L379.5736775,147.72235867511827L381.7562175,147.23083883483176L383.6236725,133.52043207144126L384.5612425,156.08437954458824L385.90995999999996,169.76478691025517L386.2212025,164.56322162106002L387.0511825,166.57826549741247L391.204925,172.41428536017307L392.972475,180.71029940032707L394.00995,190.83164335241165L394.3211925,158.04505201429274L396.399985,154.9373340907701L398.059945,168.7414054026013L399.93124250000005,170.96864594398767L401.1762125,155.02397499191065L402.93992,162.50439992253357L403.5662475,162.27824934425576L406.0561875,167.49179137291088L407.4087475,168.17026832903375L407.71999,176.6974349141416L407.8237375,185.11011103393415L408.6537175,187.62490345479122L409.0687075,170.485136605746L409.79494000000005,172.84907378282935L414.88241,180.52995532945863L415.3012425,194.56071134207295L416.02747500000004,206.713275245414L416.9612025,203.0068560001765L419.24748999999997,193.92599373087378L419.66247999999996,189.78836424246487L420.49246,206.85749143299486L421.32244,198.49789644919045L421.73743,178.62747006679905L423.81622250000004,188.240834449919L424.33496,200.49925023507586L424.4387075,189.50373457069102L424.957445,191.56643759605228L426.20241500000003,186.7502278935727L426.5175,207.8421527225862L427.03623749999997,213.41698058599763L429.00744,203.0182391462001L430.6712425,205.874403854446L431.70871750000003,195.35395066036966L432.9536875,197.5804379158866L435.654965,191.92271863541905L436.5886925,180.3563908810729L440.2236975,178.933684608657L440.327445,187.88973206837122L440.53494,183.64597324943034L445.10367249999996,173.7743676734894L445.937495,180.0485466905194L446.8712225,186.63374270604598L447.0787175,190.44558536056607L447.597455,207.21928616669135L450.19498500000003,210.1435192412517L450.2987325,226.5267156521309L451.3362075,203.1815100455182L451.54370250000005,189.16578030728675L452.06244000000004,183.9773735341035L453.5187475,180.49868215421455L454.1412325,187.29344780504474L455.07496,198.48863260781627L456.6311725,174.0261079051248L457.0461625,184.09955921519713L457.2575,216.36017403333722L459.85118750000004,220.93843206244313L462.137475,233.338862522111L462.75996,236.25944852332213L464.5236675,227.28605563819383L465.149995,226.16352342474445L467.84743000000003,203.3885203940153L470.237465,206.7416911377001L470.96369749999997,201.6791539390975L471.482435,204.63993741751275L472.834995,216.5437056212459L476.67749499999996,212.4789616983434L478.12996,230.60651849516046L481.76496499999996,229.1931725955475L490.38369250000005,207.67584494927345L491.31742,210.60234549628984L492.25499,222.8293494927126L492.877475,233.5118360416435L495.367415,232.98735424139156L500.2512325,236.7166049305085L501.0812125,228.80818386694693L504.81996499999997,232.93342681301175L506.47992500000004,234.72662415726506L506.79116750000003,228.88843315496158L507.62499,231.89537555249996L507.9362325,246.91198833627982L510.42617250000006,232.093512300512L510.84116250000005,223.75896472445774L513.95743,202.32740933604035L517.9036775,206.4549196821868L519.774975,235.8212670291913L520.39746,252.48017262729715L522.0574200000001,247.4169002420467L523.9287175,245.7396877245165L524.032465,244.3314672539269L527.5637225,247.05516918359004L528.6011975,241.6057376066316L528.91244,229.64622481342965L529.0161875,228.62854645536433L529.2236825,224.44438409022143L529.3274299999999,213.41418286568918L531.9249599999999,227.813367385906L535.35247,227.63064787819508L539.5062125000001,236.83270864984104L542.7262275,231.38445822060535L545.5274099999999,241.99307298934716L546.0499900000001,238.3236813490167L548.332435,252.50074060109702L550.30748,238.49595936624675L551.8636925,238.45662132077496L553.5274949999999,238.6620199559515L556.5361725,221.82074720611485L556.847415,237.61449621767L559.444945,240.02360903889058L562.1462225,251.52111963313885L563.90993,232.26413553167623L565.9887225,233.9798281670168L567.8561775,227.56655015710317L568.0636724999999,218.23937899448467L568.2711674999999,228.51498317347756L568.8974949999999,229.20017507330653L571.802425,236.523624416924L573.2587325,249.34245806022665L579.072435,256.37598856618513L579.487425,261.0502223201425L580.63249,253.93010749267532L583.8486624999999,241.5414861240804L584.6824849999999,243.2676302599204L586.0312025000001,245.01539871020867L586.54994,236.92438243462888L588.2137425,245.69802249332807L588.73248,255.55794297254417L588.939975,274.87125606177057L589.9774500000001,286.2942621924747L590.3924400000001,263.7449162660997L593.4049600000001,268.6990816437579L594.64993,243.35456468602288L600.0524849999999,242.1466278477923L601.1937075,239.8715049460182L602.957415,254.8851703831345L605.8661875,244.51055643014843L608.567465,254.87928211601226L609.812435,268.0161100191572L610.9575,275.4761798288046L611.2687425,274.732983790971L617.1861925000001,257.90266431041783L617.70493,243.59773081224108L617.8086775,239.3159804015216L618.849995,245.19277194433553L626.4312475,233.28026981409278L627.57247,239.87312593493394L627.6762175,242.83072490235284L627.8837125,246.04059381210874L628.4024499999999,270.0503816349749L628.5061975,264.2605544581082L631.1037275,258.60940275991356L631.622465,265.38095218661067L631.9337075,256.7208518119015L632.7636875,248.48085408278453L634.84248,250.5417474965343L635.1537225,249.0221090400272L635.25747,250.1115663983854L636.8136824999999,244.49746337046815L639.09997,240.9327852088845L640.4486875,242.33787200681184L640.6561825,244.84215655703434L642.0087425,253.58417112576416L645.8512425,253.92992604820398L648.3411825,245.13798780350965L649.0674150000001,250.61690521186046L649.6937425,269.6878292247382L652.1836824999999,262.6074663021998L652.494925,265.7149795591138L658.6237125,263.7276968466819L660.3874199999999,269.9042711488952L660.4911675,282.1977143950789L662.56996,277.5673938839155L662.8812025,269.10072525313586L663.81493,240.96912361843036L667.5536824999999,244.0234692124286L667.864925,256.2281507556294L669.5287275000001,260.24572995809643L672.7487424999999,268.1866032499547L675.6536725,250.58300321689103L676.487495,263.3912165653161L676.9024850000001,267.55935084649633L677.732465,269.5739600338263L678.8736875,264.55402508722074L681.574965,274.28641908256014L682.0937025000001,264.71833327822566L683.7536625,260.34701885111735L685.417465,265.1346105583167L686.247445,270.94834342763767L687.1811725,260.3870479343292L688.1187424999999,277.5175612186167L689.2599650000001,278.3035327371821L689.3637125,277.00741581063653L690.6086825,270.52392175639386L690.8161775,254.93693127420374L694.762425,261.6227940737416L696.0112375,273.4782691180235L697.98244,262.2354386841968L700.372475,283.58696823571415L702.447425,282.26296113761833L707.43499,276.21374743957864L708.3687175,267.0296922360631L708.67996,280.95555319278077L708.887455,293.75723956041713L714.18242,287.18814045675504L714.4936625,275.9216003613943L716.5724550000001,298.3789012597367L716.7799500000001,308.6807430414178L716.8836975,295.3774886672388L717.6099300000001,263.99096188692397L719.4812274999999,265.51471639006223L722.39,291.2824926443629L724.46495,301.91266792701083L724.672445,300.6970073013686L725.29493,275.6881752317657L728.514945,281.5204585781998L730.282495,283.998366562802L732.14995,294.66986542718314L732.9799300000001,268.7437175427478L736.199945,273.32319194046266L739.00497,270.79319171170954L741.3911625000001,268.30226680553295L744.4036825000001,267.2307724578163L745.5487475,263.9030241431583L747.2087075,255.25829933534789L748.6611725,244.1631772831125L750.8437125,249.99831247300165L754.997455,278.1293087051527L757.2837425,283.60111237324577L757.8024800000001,277.1558232519466L761.64498,284.48985711893073L762.7862025,277.8608829913177L763.4086874999999,269.92130806551216L764.864995,272.4707341391196L765.07249,277.68335619439785L768.39241,287.36905402940573L770.8861925,277.1104844200734L772.1311625000001,273.28836667943733L772.3425000000001,297.88947630649056L772.9649850000001,280.98030270055085L774.209955,297.78108670541735L776.807485,286.4494372429198L779.712415,279.9603893936721L779.9199100000001,286.0530288732675L780.3387425000001,297.75550508479034L781.894955,307.2175608085378L786.152445,294.90358455698396L786.4636875,280.08434740615314L790.20244,269.2172714514282L791.96999,277.92349962727695L792.2812325,284.1178243227987L793.3187075,280.1115802018755L795.1861624999999,271.59980227761935L795.28991,279.230843561968L797.05746,294.47582209472705L797.3687025,285.6852152178577L800.8999600000001,296.2081094688113L801.1074550000001,300.28830089485257L801.8336875,296.1142039961553L804.6387125,287.8832486836277L805.57244,278.7487422137357L807.7549799999999,279.34771144323935L810.24492,285.1447036071621L810.7674999999999,302.0286638429166L811.3899849999999,295.0403997999669L814.1911675,287.56762629641537L816.2699600000001,297.9134416502323L816.7886975,285.70129002342264L818.34491,292.72325180774715L818.86749,295.3623836970674L823.3324749999999,310.6414580950945L823.747465,303.09008818208025L825.9261625,292.85697027527596L826.1374999999999,308.7215986089904L827.79746,312.94911828738447L828.004955,319.09534120501274L828.62744,292.07881234133947L828.834935,299.0336367180627L830.7062324999999,301.2360985857655L833.092425,304.79849130287226L834.029995,301.7230258177188L836.0011975,291.72117329063815L837.14242,283.60280382169964L837.349915,288.11655014952225L837.9762425,285.9525789201273L839.3249599999999,295.942455986739L841.192415,300.1067075059418L845.24241,296.7111953619483L847.6324450000001,292.6393007518866L848.0474350000001,299.2635522819768L848.1511825,292.5713000188595L848.877415,291.0493253928617L850.644965,298.0551959003326L851.7861875000001,284.4708481553386L852.92741,293.93867858667306L853.657485,294.27499819528543L854.2799699999999,285.6345381231992L856.76991,292.62482113670643L862.8986974999999,281.37693089146217L866.63745,312.1293602865864L866.7411975,305.2433150268751L867.1561875,295.8515752874111L869.23498,295.1992626072344L869.3387275,302.99244704016314L869.442475,320.14820709805656L870.2724549999999,326.1872829066573L874.8411874999999,315.3512331454073L875.5674200000001,311.1073046855994L875.8786625,293.1266625054401L877.8537074999999,285.02537599848046L883.459915,299.9371085431954L884.3974850000001,299.48805470149404L884.6049800000001,302.7492807011646L885.0199700000001,297.6873495567346L885.642455,314.4322904150787L885.9536975,307.99146422631173L886.67993,282.07995439581043L887.50991,282.10355250723353L887.8249950000001,292.85201729230397L889.069965,297.04321499879546L891.87499,291.72757118353485L892.28998,286.5441126955106L893.4312025,277.40359834507433L894.572425,284.3148505954464L901.63494,283.39455977371443L903.0912475,281.5805514937109L903.9212275,281.7403404453674L905.3736925,282.40877364988796L905.47744,285.3563541037779L908.1787175000001,279.98835302251234L909.6311825,276.0230897644619L912.2287125,284.6336425578272L915.2412325,295.50853958819357L915.5524750000001,307.94430419143464L918.24991,307.4076099225069L920.1212075,305.26414300848154L920.5361975,295.4054399648256L923.1337275000001,291.89786819213316L925.8311625,282.8331502699476L928.53244,278.0806722464336L930.092495,288.4882600010737L930.9224750000001,317.2883219230953L931.0262225,318.45763093166255L933.3086675,315.9810148998064L933.7275,330.1436133744695L935.179965,322.6825726534353L939.3337075000001,306.47296582373536L940.267435,303.62805412717205L941.5162475,297.7458471018525L943.4874500000001,323.3317521952661L943.7986925,301.5794630660457L944.73242,299.9253335055019L950.2387225,305.9304672322456L951.379945,302.87870789300104L953.2512425,309.53358225542723L954.2887175,307.0719059426691L954.3924649999999,305.8453838467065L956.25992,303.5932206940331L956.3636675,300.54772544572813L958.7537025,297.9545958129767L959.1686925,291.66653797436976L960.7287474999999,292.35659145241516L963.8411724999999,288.39161941841553L964.7787425,308.93518598219936L965.089985,294.4665144332718L965.8162175,293.21573595574324L966.8536925,288.1214542577912L967.1649349999999,303.50036809863144L967.6836725,284.42067732108535L968.72499,289.96528370674184L971.21493,282.2155989187701L972.1525,308.2781177316751L974.1237024999999,308.4104480644849L975.8874099999999,313.98862281923226L982.3274399999999,312.43016399314837L985.962445,311.19525879723335L987.729995,311.66657854856544L988.76747,305.87992157066765L989.2862074999999,304.75564741089886L990.42743,286.46832898733L991.0499149999999,298.3229412333785L991.77999,304.4273920641314L993.647445,308.1338135043365L994.1661825,304.54816150185957L994.6849199999999,304.3927075881809L996.5562175,295.734969299975L997.6974399999999,299.4537886082786L998.0086825,298.7802603471075L1000.087475,319.6595496480342L1000.917455,333.031087209265L1001.95493,299.9271807178739L1003.2037425,310.26974996238255L1005.589935,318.96138765281023L1006.1086724999999,297.49750888744336L1012.4449549999999,322.98152189969625L1012.5487025,315.0201804895378L1015.872465,319.2249249064432L1020.33745,330.3004402472679L1021.16743,299.58123176301154L1021.99741,301.9196292269506L1022.105,318.11749695469615L1025.632415,305.69514007288024L1026.77748,308.10514768193843L1028.02245,319.0984301747721L1029.79,327.595599428525L1036.0186925,308.41837523204714L1038.512475,323.23138934744975L1041.6287425,316.98076525434004L1042.0437325,320.9839699977883L1043.4961975,311.4675700422673L1045.2637475000001,303.86066496590075L1045.8862325,316.5651557029443L1050.24747,306.7424598611092L1051.90743,298.18025961856216L1053.0524950000001,306.4062567838441L1053.9862225,316.04664305260246L1054.8162025,300.71431536799946L1056.894995,304.86398948506286L1057.10249,303.40573773429253L1057.4137325000002,317.4469365980951L1057.6212275,309.6232931963639L1058.2437125000001,305.4887911338828L1060.3186625,300.5768902861608L1060.6337475,285.6755633380135L1061.152485,297.8320914808583L1062.0862125,305.3388981571003L1069.3562225,311.6640055674436L1071.4311725,297.60792176593077L1071.53492,304.816480299644L1071.742415,312.4325086765363L1073.1987225,315.7285396082922L1073.6137125,310.4732084336116L1074.54744,300.25069346083603L1074.6511875,305.20338548930533L1075.169925,314.42410478897125L1075.6886625,310.9203377527429L1077.2487175,307.4392375017663L1080.4687325,321.28659385117646L1081.7137025,308.86002743525955L1082.439935,315.0158886735657L1082.9586725,298.52022212177627L1084.41498,307.75973578828643L1085.3487075,300.69333048664373L1088.049985,298.3458110380342L1088.7762175,297.5729801039797L1088.879965,308.2449411190093L1089.8136925000001,301.64853770235425L1093.7599400000001,301.08369691073443L1094.5899200000001,300.8489003521177L1094.6936675,309.17372852694825L1095.1125,332.4777766044846L1098.43242,323.3275298032707L1103.3162375,329.27556771239915L1103.7312275000002,323.119052714117L1105.5986825,313.6644682252453L1106.11742,321.5534308698205L1107.9887175000001,315.75826903739136L1108.29996,324.70091154193017L1110.4824999999998,335.4176169801661L1111.6237225000002,333.5593422918861L1114.1136625,319.44735914166836L1114.8437374999999,322.34334720668835L1116.607445,322.50563649116543L1116.81494,318.79133004294994L1117.1261825000001,305.34904498545626L1119.3087225,318.7690266459483L1119.5162175,316.2246588927089L1120.034955,328.8475916589248L1121.1761775,314.88002348452505L1122.42499,326.12507195061266L1124.1886975,322.2518576597322L1126.0599949999998,317.8167382893055L1126.68248,327.84029384238056L1127.719955,343.34640409101564L1129.58741,337.60621791094263L1129.695,344.82499943858215L1132.4961825,327.29149365118644L1133.3261625,315.2977901488037L1134.36748,317.1910677593644L1135.5087025,307.83975157270993L1137.6912425,313.4209111686359L1139.5586975,308.29077778076L1142.8824599999998,316.1649718917302L1143.6086925000002,311.52584304314206L1149.0112474999999,312.44396056354856L1149.2187425,318.53547101271636L1150.2562174999998,320.7503713241368L1150.98245,339.9018542379826L1153.7874749999999,345.3035207206421L1155.9661725,325.73360651102143L1157.00749,320.0473545918851L1158.66745,338.38143940031466L1158.8749449999998,332.3979185107943L1159.6011775000002,314.5958507277726L1162.9249399999999,312.88784506906023L1163.4436775000001,305.3793183910189L1164.5887424999999,313.07174922390806L1165.10748,318.73815163471716L1169.572465,329.4439059930946L1169.8837075,326.760354025239L1171.9624999999999,335.6916156477178L1172.584985,342.50669248976976L1172.6887325,346.3067396931569L1175.3861675,342.8102954466773L1176.1162425,335.6970923852702L1182.6561774999998,322.49476534079196L1183.5937475,316.81493636817146L1184.31998,318.05169468909753L1184.6312225,320.7801817571536L1185.3574549999998,331.4173393246779L1185.6686975,324.95404726727304L1187.954985,326.7749748782128L1189.0962075,327.0085343978292L1190.23743,300.0776232207708L1191.4862425,320.0788815739686L1191.58999,318.3563571097215L1191.9012324999999,335.16035081158645L1194.3911724999998,315.9675470233593L1195.0175,333.50786063198063L1197.4036925,326.3139061088789L1198.4411675,333.227997913088L1199.27499,330.94030071623666L1200.5199599999999,345.6846799381229L1205.60743,322.0615247015746L1206.545,339.0418749692794L1207.4787274999999,331.2977718068812L1211.1137325,335.9056115766557L1214.0186625,322.4010772049542L1214.3337475,318.2737150085041L1218.48749,330.09949627948214L1220.97743,308.4615396632696L1222.0187475,309.11036368930013L1227.7287025,324.69736903621964L1229.0774199999998,329.64820952721954L1230.222485,326.29093893950295L1232.08994,317.2753248297281L1235.8286925,312.4966934897367L1236.34743,304.0945823703923L1236.4511774999999,302.8585240837764L1236.6586725,303.45874195556826L1238.11498,310.2781250957309L1239.35995,333.18746871731634L1241.749985,325.6904983507511L1242.37247,318.18433214824904L1243.9286825,313.24310053826275L1244.5511675,318.68004794264374L1245.5924850000001,324.51154493179644L1248.082425,337.9173686247273L1249.849975,345.2333433283093L1252.13242,338.6379363019897L1255.352435,332.41310347078047L1256.0786675,338.3637005195486L1257.2237325,346.1040605536382L1258.8836925,323.5281798667479L1259.2986825,325.0523678485613L1260.024915,323.7100556077994L1260.547495,328.17552196159585L1264.1825000000001,348.2429360745825L1264.9087325,344.01538221111764L1268.647485,337.6249918989591L1271.5524149999999,334.1830555756242L1271.75991,339.0851469897838L1271.8675,355.427043398834L1272.074995,356.75016122377923L1272.69748,347.86141145299086L1273.6312075,327.27193630260365L1274.2536925,315.9659143645891L1274.77243,295.97517947192955L1277.78495,320.80139179608807L1279.237415,335.0652360462044L1280.38248,326.988949169093L1281.419955,346.2368903263651L1281.834945,341.26361858750835L1281.9386925000001,333.9228976649371L1284.847465,340.11592293753193L1285.7811925,325.6246499882578L1286.6111725,320.30003451981776L1288.1712275,320.65005777167465L1288.274975,352.6040877144766L1289.519945,352.5007216048975L1292.73996,353.37221265987984L1293.6736875,335.4971509215619L1295.0262475000002,326.5414316247336L1295.4412375000002,333.45603740635113L1295.959975,356.1172467423833L1296.8937025,340.8945731063697L1297.7236825,332.32957387089806L1298.449915,330.78709499192286L1298.5536625,318.6592318353179L1300.3212125,326.57388806445147L1303.43748,327.9019963318273L1304.4749550000001,342.8014279517034L1308.317455,353.8233800764381L1309.2511825,343.7017150113284L1309.35493,322.04690907414545L1309.977415,323.44923136720524L1311.6412175,319.00817603403016L1312.36745,339.3080458839755L1315.2762225000001,342.24674422025817L1315.37997,332.3374501543053L1316.3136975,324.01354825239224L1316.832435,340.19513480985665L1317.9775000000002,350.54291341259784L1318.9112275,347.35319516870203L1320.3636925,337.7007956183721L1321.504915,333.5337135289174L1324.30994,326.3399342521466L1324.6211825,320.5968062343858L1325.55491,328.16023484126697L1328.15244,323.7982898238657L1328.56743,313.7013072111224L1329.5049999999999,336.92793521988483L1330.9574650000002,333.7099699765925L1331.57995,347.36609863462957L1331.7874450000002,342.94265139116595L1335.3187025,325.93566751965136L1335.9411875,326.6734147029414L1336.5636725,315.25960273964967L1336.7711675,320.3514351858125L1336.874915,334.71072636207504L1337.9162325000002,341.7908160386119L1338.43497,335.39269499645434L1339.887435,341.81210366169086L1340.8211625000001,331.973726392266L1342.484965,337.66744105129055L1345.0824949999999,334.629810457877L1347.0536975,332.092453618915L1347.987425,336.6287022877164L1349.8587225,346.39060046246215L1352.6637475,329.9117488191758L1355.04994,331.02664243020024L1355.257435,343.73257049106L1355.3611825,333.65479291070966L1360.6599899999999,332.755614539322L1361.4899699999999,326.8392358710389L1361.8012125,331.8124831181777L1362.73494,329.19085048091483L1366.6811875,330.7280752375845L1369.9012025000002,321.23894432754065L1371.979995,323.1059745691462L1372.7062274999998,324.18644160164865L1373.4324600000002,343.780048089823L1373.9511975,334.20462800598193L1377.1712125,330.9329557796481L1378.0011925000001,339.48336891294497L1378.2086875,336.3879004404603L1381.739945,342.44877580199585L1382.0511875000002,339.6486543786166L1383.5074949999998,338.82303943941815L1383.8187375,353.13337566560404L1384.95996,362.156120567953L1385.582445,356.32716867770876L1388.4912175,343.12949243930655L1388.8024599999999,351.11854485599804L1388.9062075,342.3482855244196L1389.5286925,329.699478886349L1389.7361875000001,333.9400945125955L1391.5037375,346.39476003044473L1392.3337175,336.2397049343206L1393.2674450000002,345.78117315504664L1394.8274999999999,355.25077067216466L1396.4874599999998,360.6741581869139L1400.537455,371.30187599611367L1401.782425,365.88006640405706L1401.98992,351.30022810537366L1403.0312374999999,349.99647932910176L1404.17246,349.30615872420816L1404.8986925,340.4506637041446L1405.624925,336.26388041166524L1405.8324200000002,337.39491338007485L1407.59997,339.9330717758705L1409.5711725,323.07090876796053L1413.309925,337.48049677072885L1414.3512425,346.23020019208747L1416.11495,357.6848360829076L1416.737435,351.5576331146074L1417.6711625,342.50174317404696L1420.7874299999999,336.93940571811834L1423.177465,344.8704886118593L1423.2812125,342.4893082356466L1425.1486675,346.0856889162072L1428.0574399999998,335.891168102837L1428.5761774999999,325.815838046799L1429.9287375,344.7098228311121L1431.3812025,333.4365494403588L1432.2111825,328.88116530378744L1432.72992,335.37369838118605L1432.937415,332.4277798745636L1433.0411625000002,327.19529799780867L1435.119955,356.2980957326986L1435.6386925,345.8515946732579L1437.095,357.6192838517796L1438.1324749999999,359.40225743341273L1438.6512125,338.59230122499355L1439.3774449999999,348.66491528947773L1441.35249,345.62518599867593L1442.59746,356.21940270686L1446.232465,352.6738834287158L1447.1661924999999,334.0940380803008L1452.149915,345.9168808455026L1452.672495,345.6451480433199L1454.2287075,341.9569329693826L1455.3699299999998,326.4731995198078L1455.7849199999998,333.13800884562414L1457.4487225,344.0998781685691L1458.79744,337.66355515984657L1460.8762325,348.28251412074553L1461.80996,350.5455030403184L1462.63994,335.1151589561491L1464.7187325,347.99834461742563L1466.3786925,339.27549752315235L1468.457485,333.9926003546737L1468.7687275,338.0602610356344L1470.4286875,330.92077192823496L1472.09249,338.40619415021183L1473.2337125,334.86212749943877L1479.4662475,329.12617863694277L1480.399975,360.7774262087312L1480.5037225,360.9454724631766L1483.61999,361.7893920971191L1485.5911925,345.97949641425834L1485.902435,351.4213039295638L1488.1887225,353.94572342018864L1492.757455,366.42860363352645L1494.939995,361.4144384457371L1495.56248,346.6826419158995L1495.769975,363.9717522504461L1497.9486725,345.2485276772101L1500.23496,362.9121236678076L1503.24748,356.0304205391474L1508.0237075,338.02010345778865L1509.6836675,341.6406233377577L1510.93248,342.7144428221775L1517.057425,347.3400027995343L1518.7212275,342.2859425976893L1521.9412425,346.7922184416665L1522.7712225,347.7246887581952L1524.94992,337.67776968344486L1527.54745,348.36135444083465L1528.0661875,339.5082915415684L1529.4187475,327.2639182132673L1530.7674650000001,341.96269042504974L1531.38995,362.62866163261623L1535.7511875,359.09321657900745L1535.854935,356.3447628312393L1536.3736724999999,340.2286675675561L1537.9337275,340.2625288596064L1543.954925,347.4563821739144L1545.722475,371.5656247059219L1548.5275000000001,379.4552935719318L1548.6312475000002,360.38141434430054L1549.4612275000002,346.7849314680037L1550.7061975000001,342.8816691488228L1551.01744,336.4547400313736L1551.9511675,340.46984213102587L1553.5112225,358.3335247058196L1553.9262125,349.88351861825726L1554.1337075000001,337.0214430272052L1555.68992,347.10193246957476L1557.5612175,339.87643309329036L1559.4286725,331.44007254060557L1560.9887275,334.36602766046786L1562.0262025,333.71179346758055L1562.3374450000001,342.1000017959949L1563.582415,354.9717607807563L1563.6861625,344.3776653403906L1564.1049950000001,341.42971429078983L1567.009925,347.9657128193927L1569.7112025000001,340.12237584703877L1573.1387125,349.5335464412792L1574.694925,347.7347912797227L1578.4336775,340.2961017304L1578.952415,348.87961208184583L1583.93998,349.35785026645675L1584.35497,337.63076659498233L1586.42992,346.2316243008233L1591.417485,342.48301353665926L1591.5212325,349.94956725485775L1594.2186675,354.2872583654382L1594.52991,352.82469821374764L1598.89499,350.1449469041893L1600.5549500000002,372.19282809448646L1604.189955,382.79973612041715L1605.7461675,377.4015739477364L1606.57999,373.50753606538103L1607.0987275,364.27266618001534L1607.2024749999998,371.38291217796854L1610.6299849999998,356.56180698104407L1612.3936925,352.5118585302097L1612.704935,345.52003920994184L1613.0161775000001,343.04586293531645L1614.3687375,358.24868991990786L1617.16992,350.0145200957055L1619.0412175,336.5218214004751L1619.76745,365.67465740975837L1620.4936825,357.1847038348741L1622.7799699999998,351.1277166104451L1624.9586675,358.674215637215L1626.3112274999999,361.8840589467096L1629.9462325,360.2937105073577L1632.332425,362.43471765840326L1632.6436675,360.4565623231189L1633.9962275,354.08820486709214L1634.4112175,355.0229649510667L1635.0337025,345.3976040510347L1639.4986875000002,347.84605900693003L1639.602435,355.2891017380241L1641.57748,358.0121702946952L1641.8887224999999,356.5847488211232L1642.7187024999998,353.6260935215137L1642.82245,366.16136824059384L1642.9261975,353.7768657670492L1643.5486825,354.78099530613866L1645.627475,371.0702192692545L1645.8349699999999,354.0724917166583L1647.7024250000002,357.8146534677239L1652.897485,353.2511175153191L1654.3499499999998,366.4628545497378L1654.972435,359.98370261994125L1658.5036925,352.01429578546964L1662.7611825,345.76377055456805L1665.6699549999998,364.7046442878876L1668.47498,365.44324000672304L1668.9937175,353.5328123140085L1669.6162024999999,337.7618676094859L1672.0062375,349.5217433541208L1674.599925,353.2263511567824L1675.8487375,359.8878477471777L1675.952485,351.43055812941236L1676.57497,342.0371102644578L1677.5086975,340.74575499496314L1679.2762475,331.0803774511901L1680.5212175,333.5241249678187L1681.1437025,338.61188183770497L1683.222495,346.0945491394158L1683.637485,348.63915387873374L1686.127425,351.8585186414989L1686.33492,352.6818926628275L1687.27249,348.8427087530997L1692.4637075,339.3205851403181L1694.95749,337.11614998384147L1695.0612375,354.761375993513L1697.3436824999999,343.2672068107265L1700.9786875,336.83313500333645L1701.082435,347.82700177579414L1703.5762175,346.85735261052423L1703.7837124999999,344.6172293925855L1703.88746,362.07693720964033L1707.0037275,355.94129108135365L1708.6636875,352.0107904407052L1709.597415,354.7654853232305L1709.9125000000001,361.06994642302993L1710.119995,353.6047211068011L1711.6762075,343.64426929099176L1712.2986925,338.1473260590006L1714.377485,339.0772718041283L1715.41496,358.4076290803637L1715.5187075,343.9249116037777L1716.3486874999999,342.7680382808739L1716.7636774999999,333.788604972404L1717.3861625,329.38636360504734L1719.049965,342.21265078031126L1723.51495,363.69232918765005L1724.75992,355.4242526218049L1725.9049850000001,357.3186871412248L1726.94246,372.88981045978363L1727.0462075,344.4952635675496L1727.4611975,347.4721082442896L1727.8761875,350.45751218044137L1728.2911775,341.4163853934013L1730.0587275,345.2057430440547L1730.6812125,343.4761576994873L1731.0962025,342.4516868248353L1731.3036975,338.195856328891L1732.85991,347.33190407996545" style="fill: none;" fill="none"></path></g></g></g></g><g opacity="0.2"><g><g><g><path stroke="rgb(255, 112, 67)" stroke-width="2px" d="M239.89496,-11.903500962257352L240.30995,0.15508551597598563L241.34742500000002,-34.90218232870099L247.787455,30.42772610187534L250.59248,-39.8678130984306L256.50993,-52.14459251165387L257.9662375,8.41259826421741L258.79621749999995,9.947588932514224L259.314955,76.97332386374477L259.52245,71.23429913520816L260.76741999999996,42.85270143747333L261.8087375,67.75259379744533L266.27372249999996,52.219773572683366L267.1037025,-4.366743969917264L267.9336825,40.00658695101741L270.63496,70.09962846040729L271.5686875,34.337334525585206L271.9836775,40.755824637413056L272.1911725,15.3010683178902L273.64748000000003,29.258562517166173L273.854975,28.561513614654576L274.5812075,32.18663979768756L275.4111875,43.095724773407014L276.03367249999997,-12.312809336185422L278.942445,50.36676276922229L286.52369749999997,-13.258948731422391L289.9512075,66.78718556165698L290.26245,111.57583583593372L292.03,99.68218613862994L292.9637275,82.67032791376117L293.067475,127.39139680266383L293.68996,111.13428164720538L293.7937075,51.023813378810914L294.31244499999997,107.61791486740115L296.1837425,95.59724811911586L296.494985,20.708140921592747L297.4287125,82.35916141867641L302.51618249999996,76.92877520322803L302.827425,83.4050156593323L303.44991,56.405549985170396L304.0762375,105.22357885241512L304.594975,124.16305143833164L305.63245,143.83445907831197L306.254935,67.1927862286568L306.77367250000003,31.21072639226917L312.1762275,77.56588284373287L312.694965,90.76290388107303L312.7987125,122.84389425516132L314.66616750000003,119.43201739788059L316.0187275,108.0189089894295L317.367445,53.877905052900346L321.3136925,60.84884349703792L323.08124250000003,114.19066805839542L325.15619250000003,82.57392753362659L326.50491,100.27586866617206L328.7911975,100.59495617151264L329.10244,94.96789295673373L330.55874750000004,90.78632984757427L330.9737375,108.99751890897754L335.95745999999997,156.1790445864201L336.6836925,93.98372147679332L338.96998,131.56318504810338L340.21495,180.311947208643L341.252425,142.89697099924092L344.3686925,82.51443569064143L345.509915,123.60863689780238L346.34373750000003,195.67837004065518L346.9662225,100.57040665745738L350.289985,99.13428817391399L350.704975,194.96986095309262L353.2986625,125.60866389870647L354.962465,138.3986236572266L355.0662125,123.48633874654773L356.622425,164.04230449795728L357.037415,150.67467276453976L358.80496500000004,161.48881797194485L362.43997,123.53184242248538L363.26995,173.56043760180478L365.3487425,164.420883846283L366.80120750000003,132.41123874187474L367.734935,170.74168149828915L368.35742,165.25208432674413L368.88,182.88099486827855L369.6062325,160.70098642706876L370.53996,168.42779148817067L371.99242499999997,159.73372433781628L372.19992,136.7665023028851L372.5111625,120.97279433608058L373.4487325,185.4159428596497L377.0837375,171.7078200399876L379.5736775,123.78756184577945L381.7562175,146.4935590744019L383.6236725,112.9548219263554L384.5612425,189.93030075430875L385.90995999999996,190.28539795875554L386.2212025,156.76087368726735L387.0511825,169.6008313119412L391.204925,181.1683151543141L392.972475,193.15432046055798L394.00995,206.0136592805386L394.3211925,108.86516500711444L396.399985,150.27575720548634L398.059945,189.44751237034802L399.93124250000005,174.30950675606732L401.1762125,131.10696856379514L402.93992,173.72503731846814L403.5662475,161.9390234768391L406.0561875,175.3121044158936L407.4087475,169.18798376321797L407.71999,189.4881847918034L407.8237375,197.7291252136231L408.6537175,191.39709208607678L409.0687075,144.77548633217816L409.79494000000005,176.39497954845433L414.88241,192.05127764940266L415.3012425,215.60684536099438L416.02747500000004,224.94212110042577L416.9612025,197.44722713232045L419.24748999999997,180.3047003269196L419.66247999999996,183.5819200098515L420.49246,232.4611822187901L421.32244,185.95850397348408L421.73743,148.8218304932118L423.81622250000004,202.66088102459912L424.33496,218.88687391281132L424.4387075,173.0104610741139L424.957445,194.66049213409428L426.20241500000003,179.52591333985333L426.5175,239.48003996610646L427.03623749999997,221.779222381115L429.00744,187.42012698650365L430.6712425,210.15865091681485L431.70871750000003,179.5732708692551L432.9536875,200.92016879916196L435.654965,183.4361397147179L436.5886925,163.00689924955373L440.2236975,176.79962520003323L440.327445,201.32380325794225L440.53494,177.28033502101903L445.10367249999996,158.966959309578L445.937495,189.4598152160645L446.8712225,196.51153672933583L447.0787175,196.16334934234624L447.597455,232.37983737587933L450.19498500000003,214.52986885309224L450.2987325,251.10151026844983L451.3362075,168.16370163559918L451.54370250000005,168.14218569993977L452.06244000000004,176.19476337432866L453.5187475,175.28064508438115L454.1412325,197.4855962812901L455.07496,215.28140981197362L456.6311725,137.33232085108762L457.0461625,199.20973618030553L457.2575,264.7510962605477L459.85118750000004,227.80581910610204L462.137475,251.93950821161275L462.75996,240.6403275251389L464.5236675,213.82596631050114L465.149995,224.47972510457043L467.84743000000003,169.22601584792142L470.237465,211.77144725322728L470.96369749999997,194.08534814119344L471.482435,209.0811126351357L472.834995,234.3993579268456L476.67749499999996,206.38184581398968L478.12996,257.79785369038586L481.76496499999996,227.07315374612813L490.38369250000005,175.39985347986226L491.31742,214.99209631681447L492.25499,241.1698554873467L492.877475,249.53556586503987L495.367415,232.20063154101376L500.2512325,242.31048096418385L501.0812125,216.94555227160458L504.81996499999997,239.12129123210912L506.47992500000004,237.41642017364507L506.79116750000003,220.13114665150647L507.62499,236.40578914880757L507.9362325,269.4369075119496L510.42617250000006,209.86579824686055L510.84116250000005,211.2571433603764L513.95743,170.1800762534142L517.9036775,212.64618520140652L519.774975,279.8707880496979L520.39746,277.46853102445607L522.0574200000001,239.82199166417126L523.9287175,243.22386894822125L524.032465,242.21913654804234L527.5637225,251.140722078085L528.6011975,233.43159024119382L528.91244,211.70695562362675L529.0161875,227.10202891826634L529.2236825,218.16814054250722L529.3274299999999,196.86888102889066L531.9249599999999,249.4121441662312L535.35247,227.3565686166287L539.5062125000001,250.63579980731015L542.7262275,223.21208257675175L545.5274099999999,257.9059951424599L546.0499900000001,232.81959388852124L548.332435,273.7663294792176L550.30748,217.48878751397137L551.8636925,238.39761425256734L553.5274949999999,238.97011790871625L556.5361725,196.5588380813599L556.847415,261.30511973500256L559.444945,243.63727827072148L562.1462225,268.7673855245114L563.90993,203.37865937948231L565.9887225,236.5533671200276L567.8561775,217.94663314223294L568.0636724999999,204.248622250557L568.2711674999999,243.92838944196706L568.8974949999999,230.22796292304997L571.802425,247.5087984323502L573.2587325,268.57070852518086L579.072435,266.9262843251229L579.487425,268.06157295107846L580.63249,243.24993525147443L583.8486624999999,222.95855407118802L584.6824849999999,245.8568464636803L586.0312025000001,247.63705138564114L586.54994,224.78785802125935L588.2137425,258.8584825813771L588.73248,270.34782369136815L588.939975,303.8412256956101L589.9774500000001,303.4287713885308L590.3924400000001,229.92089737653737L593.4049600000001,276.1303297102452L594.64993,205.3377892494202L600.0524849999999,240.33472259044652L601.1937075,236.45882059335713L602.957415,277.40566853880887L605.8661875,228.94863550066952L608.567465,270.43237064480786L609.812435,287.7213518738747L610.9575,286.6662845432759L611.2687425,273.61818973422055L617.1861925000001,232.6571850895882L617.70493,222.14033056497578L617.8086775,232.8933547854424L618.849995,254.0079592585564L626.4312475,215.41151661872868L627.57247,249.76241011619572L627.6762175,247.26712335348134L627.8837125,250.8553971767426L628.4024499999999,306.0650633692742L628.5061975,255.5758136928082L631.1037275,250.13267521262173L631.622465,275.5382763266564L631.9337075,243.73070124983792L632.7636875,236.12085748910908L634.84248,253.63308761715894L635.1537225,246.74265135526662L635.25747,251.74575243592267L636.8136824999999,236.07630882859235L639.09997,235.5857679665089L640.4486875,244.44550220370297L640.6561825,248.59858338236813L642.0087425,266.697192978859L645.8512425,254.44855843186383L648.3411825,231.95008043646817L649.0674150000001,258.83528132438664L649.6937425,298.29421524405484L652.1836824999999,251.98692191839223L652.494925,270.37624944448476L658.6237125,260.74677277803426L660.3874199999999,279.16913260221486L660.4911675,300.63787926435475L662.56996,270.6219131171704L662.8812025,256.4007223069668L663.81493,198.77172116637234L667.5536824999999,248.60498760342603L667.864925,274.5351730704308L669.5287275000001,266.272098761797L672.7487424999999,280.0979131877423L675.6536725,224.1776031672955L676.487495,282.6035365879536L676.9024850000001,273.8115522682667L677.732465,272.5958738148213L678.8736875,257.02412266731267L681.574965,288.8850100755692L682.0937025000001,250.36620457172398L683.7536625,253.790047210455L685.417465,272.3159981191159L686.247445,279.6689427316189L687.1811725,244.5451046943665L688.1187424999999,303.2133311450482L689.2599650000001,279.48249001502995L689.3637125,275.0632404208184L690.6086825,260.7986806750298L690.8161775,231.55644555091862L694.762425,271.65158827304845L696.0112375,291.2614816844464L697.98244,245.37119303345685L700.372475,315.61426256299023L702.447425,280.27695049047475L707.43499,267.13992689251904L708.3687175,253.25360943079L708.67996,301.84434462785725L708.887455,312.95976911187176L714.18242,277.33449180126195L714.4936625,259.0217902183533L716.5724550000001,332.06485260725026L716.7799500000001,324.1335057139397L716.8836975,275.4226071059704L717.6099300000001,216.9111717164517L719.4812274999999,267.8003481447697L722.39,329.9341570258141L724.46495,317.8579308509827L724.672445,298.87351636290555L725.29493,238.17492712736134L728.514945,290.26888359785085L730.282495,287.7152285397053L732.14995,310.6771137237549L732.9799300000001,229.85449571609502L736.199945,280.19240353703503L739.00497,266.9981913685799L741.3911625000001,264.5658794462681L744.4036825000001,265.6235309362412L745.5487475,258.91140167117123L747.2087075,242.29121212363248L748.6611725,227.52049420475964L750.8437125,258.75101525783543L754.997455,320.3258030533791L757.2837425,291.80881787538533L757.8024800000001,267.48788956999783L761.64498,295.49090791940694L762.7862025,267.9174217998982L763.4086874999999,258.01194567680363L764.864995,276.29487324953084L765.07249,285.5022892773152L768.39241,301.8976007819176L770.8861925,261.72263000607495L772.1311625000001,267.5551900684834L772.3425000000001,334.79114074707036L772.9649850000001,255.61654229164128L774.209955,322.9822627127171L776.807485,269.4519630491734L779.712415,270.2268176198006L779.9199100000001,295.19198809266095L780.3387425000001,315.30921940207486L781.894955,321.41064439415936L786.152445,276.4326201796532L786.4636875,257.8554916799069L790.20244,252.91665751934056L791.96999,290.9828418910504L792.2812325,293.4093113660813L793.3187075,274.1022140204907L795.1861624999999,258.8321353912354L795.28991,290.6774054884911L797.05746,317.34328989386563L797.3687025,272.4993049025536L800.8999600000001,311.9924508452416L801.1074550000001,306.4085880339146L801.8336875,289.8530586481095L804.6387125,275.53681571483617L805.57244,265.0469825088978L807.7549799999999,280.2461652874947L810.24492,293.84019185304646L810.7674999999999,327.3546041965485L811.3899849999999,284.55800373554234L814.1911675,276.35846604108815L816.2699600000001,313.43216468095784L816.7886975,267.38306258320813L818.34491,303.2561944842339L818.86749,299.32108153104787L823.3324749999999,333.5600696921349L823.747465,291.7630333125592L825.9261625,277.5072934150696L826.1374999999999,332.51854110956197L827.79746,319.29039780497556L828.004955,328.3146755814553L828.62744,251.55401904582982L828.834935,309.46587328314786L830.7062324999999,304.5397913873196L833.092425,310.14208037853246L834.029995,297.10982758998875L836.0011975,276.7183945000172L837.14242,271.4252496182919L837.349915,294.8871696412564L837.9762425,282.7066220760346L839.3249599999999,310.9272715866566L841.192415,306.3530847847462L845.24241,291.617927145958L847.6324450000001,286.53145883679395L848.0474350000001,309.19992957711224L848.1511825,282.5329216241837L848.877415,288.7663634538651L850.644965,308.5640016615391L851.7861875000001,264.09432653784756L852.92741,308.14042423367505L853.657485,294.77947760820393L854.2799699999999,272.67384801507L856.76991,303.1102456569672L862.8986974999999,264.50509552359586L866.63745,358.2580043792725L866.7411975,294.91424713730817L867.1561875,281.7639656782151L869.23498,294.2207935869694L869.3387275,314.68222368955617L869.442475,345.8818471848965L870.2724549999999,335.2458966195584L874.8411874999999,299.09715850353246L875.5674200000001,304.7414119958878L875.8786625,266.1556992352009L877.8537074999999,272.87344623804097L883.459915,322.3047073602677L884.3974850000001,298.814473938942L884.6049800000001,307.6411197006703L885.0199700000001,290.09445284008984L885.642455,339.5497017025948L885.9536975,298.33022494316106L886.67993,243.2126896500588L887.50991,282.13894967436795L887.8249950000001,308.9747144699097L889.069965,303.33001155853276L891.87499,283.7541054606438L892.28998,278.7689249634743L893.4312025,263.6928268194199L894.572425,294.68172897100453L901.63494,282.01412354111676L903.0912475,278.8595390737057L903.9212275,281.98002387285237L905.3736925,283.4114234566689L905.47744,289.7777247846127L908.1787175000001,271.93635140061383L909.6311825,270.07519487738614L912.2287125,297.54947174787526L915.2412325,311.82088513374333L915.5524750000001,326.59795109629636L918.24991,306.6025685191155L920.1212075,302.0489426374436L920.5361975,280.61738539934163L923.1337275000001,286.63651053309445L925.8311625,269.2360733866692L928.53244,270.9519552111626L930.092495,304.0996416330338L930.9224750000001,360.4884148061276L931.0262225,320.21159444451337L933.3086675,312.2660908520222L933.7275,351.387511086464L935.179965,311.4910115718842L939.3337075000001,282.15855557918553L940.267435,299.36068658232693L941.5162475,288.92253656387334L943.4874500000001,361.7106098353863L943.7986925,268.9510293722153L944.73242,297.44413916468625L950.2387225,314.93816782236104L951.379945,298.30106888413434L953.2512425,319.5158937990666L954.2887175,303.37939147353177L954.3924649999999,304.00560070276265L956.25992,300.2149759650231L956.3636675,295.97948257327084L958.7537025,294.0649013638497L959.1686925,282.2344512164593L960.7287474999999,293.39167166948323L963.8411724999999,282.4441613674164L964.7787425,339.7505358278752L965.089985,272.7635071098805L965.8162175,291.3395682394505L966.8536925,280.48003171086316L967.1649349999999,326.56873885989194L967.6836725,255.80114115476613L968.72499,298.28219328522687L971.21493,270.59107173681264L972.1525,347.3718959510327L974.1237024999999,308.60894356369977L975.8874099999999,322.3558849513531L982.3274399999999,310.09247575402264L985.962445,309.3429010033608L987.729995,312.37355817556386L988.76747,297.19993610382085L989.2862074999999,303.0692361712456L990.42743,259.03735135197644L991.0499149999999,316.10485960245137L991.77999,313.5840683102608L993.647445,313.6934456646443L994.1661825,299.1696834981442L994.6849199999999,304.15952671766286L996.5562175,282.7483618676663L997.6974399999999,305.03201757073407L998.0086825,297.7699679553509L1000.087475,350.9784835994244L1000.917455,353.08839355111127L1001.95493,250.27132098078732L1003.2037425,325.7836038291455L1005.589935,331.9988441884518L1006.1086724999999,265.3016907393933L1012.4449549999999,361.2075414180756L1012.5487025,303.07816837430005L1015.872465,325.53204153180127L1020.33745,346.9137132585049L1021.16743,253.50241903662686L1021.99741,305.42722542285924L1022.105,342.4142985463143L1025.632415,287.06160475015645L1026.77748,311.7201590955258L1028.02245,335.5883539140225L1029.79,340.34135330915456L1036.0186925,279.6525389373303L1038.512475,345.45091052055363L1041.6287425,307.60482911467557L1042.0437325,326.98877711296086L1043.4961975,297.19297010898595L1045.2637475000001,292.45030735135083L1045.8862325,335.6218918085099L1050.24747,292.0084160983563L1051.90743,285.3369592547417L1053.0524950000001,318.74525253176694L1053.9862225,330.50722245574L1054.8162025,277.715823841095L1056.894995,311.0885006606579L1057.10249,301.2183601081372L1057.4137325000002,338.5087348937989L1057.6212275,297.8878280937672L1058.2437125000001,299.2870380401612L1060.3186625,293.2090390145779L1060.6337475,263.3235729157925L1061.152485,316.0668836951256L1062.0862125,316.59910817146306L1069.3562225,321.15166668295865L1071.4311725,276.5237960636616L1071.53492,315.62931810021405L1071.742415,323.85655124187474L1073.1987225,320.6725860059262L1073.6137125,302.59021167159085L1074.54744,284.9169210016728L1074.6511875,312.63242353200917L1075.169925,328.2551837384701L1075.6886625,305.66468719840054L1077.2487175,302.2175871253014L1080.4687325,342.05762837529187L1081.7137025,290.22017781138425L1082.439935,324.249680531025L1082.9586725,273.7767222940922L1084.41498,321.61900628805165L1085.3487075,290.09372253417973L1088.049985,294.82453186512L1088.7762175,296.41373370289807L1088.879965,324.2528826415539L1089.8136925000001,291.75393257737164L1093.7599400000001,300.2364357233048L1094.5899200000001,300.4967055141926L1094.6936675,321.66097078919415L1095.1125,367.433848720789L1098.43242,309.60215960145L1103.3162375,338.1976245760918L1103.7312275000002,313.8842802166939L1105.5986825,299.4825914919377L1106.11742,333.3868748366833L1107.9887175000001,307.06552628874783L1108.29996,338.1148752987385L1110.4824999999998,351.4926751375199L1111.6237225000002,330.7719302594662L1114.1136625,298.2793844163418L1114.8437374999999,326.68732930421834L1116.607445,322.74907041788106L1116.81494,313.2198703706265L1117.1261825000001,285.18561739921574L1119.3087225,338.89899913668637L1119.5162175,312.40810726284985L1120.034955,347.78199080824857L1121.1761775,293.92867122292523L1122.42499,342.9926446497441L1124.1886975,316.4420362234116L1126.0599949999998,311.1640592336655L1126.68248,342.8756271719933L1127.719955,366.6055694639683L1129.58741,328.99593864083295L1129.695,355.65317173004155L1132.4961825,300.9912349700928L1133.3261625,297.3072348952294L1134.36748,320.0309841752053L1135.5087025,293.81277729272847L1137.6912425,321.79265056252484L1139.5586975,300.59557769894604L1142.8824599999998,327.9762630581856L1143.6086925000002,304.5671497702599L1149.0112474999999,313.8211368441582L1149.2187425,327.67273668646817L1150.2562174999998,324.07272179126744L1150.98245,368.62907860875134L1153.7874749999999,353.4060204446316L1155.9661725,296.37873519659047L1157.00749,311.5179767131806L1158.66745,365.88256661295895L1158.8749449999998,323.4226371765137L1159.6011775000002,287.89274905323987L1162.9249399999999,310.3258365809918L1163.4436775000001,294.1165283739567L1164.5887424999999,324.61039547324185L1165.10748,327.23775525093083L1169.572465,345.5025375306607L1169.8837075,322.73502607345586L1171.9624999999999,349.0885080814362L1172.584985,352.7293077528477L1172.6887325,352.00681049823766L1175.3861675,337.56562907695775L1176.1162425,325.02728779315953L1182.6561774999998,302.6912747740746L1183.5937475,308.29519290924077L1184.31998,319.9068321704865L1184.6312225,324.8729123592377L1185.3574549999998,347.3730756759644L1185.6686975,315.25910918116574L1187.954985,329.50636629462247L1189.0962075,327.35887367725377L1190.23743,259.6812564551831L1191.4862425,350.08076910376553L1191.58999,315.7725704133511L1191.9012324999999,360.36634136438374L1194.3911724999998,287.1783413410187L1195.0175,359.8183310449124L1197.4036925,315.5229743242264L1198.4411675,343.599135619402L1199.27499,327.5087549209595L1200.5199599999999,367.80124877095227L1205.60743,286.6267918467522L1206.545,364.5124003708363L1207.4787274999999,319.68161706328397L1211.1137325,342.81737123131757L1214.0186625,302.14427564740186L1214.3337475,312.0826717138291L1218.48749,347.83816818594937L1220.97743,276.0046047389508L1222.0187475,310.0835997283459L1227.7287025,348.0778770565987L1229.0774199999998,337.0744702637196L1230.222485,321.25503305792813L1232.08994,303.7519036650658L1235.8286925,305.3287464797497L1236.34743,291.4914156913758L1236.4511774999999,301.0044366538525L1236.6586725,304.3590687632561L1238.11498,320.507199805975L1239.35995,367.5514841496945L1241.749985,314.44504280090337L1242.37247,306.9250828444958L1243.9286825,305.83125312328343L1244.5511675,326.83546904921536L1245.5924850000001,333.2587904155255L1248.082425,358.0261041641236L1249.849975,356.2073053836823L1252.13242,328.74482576251035L1255.352435,323.07585422396664L1256.0786675,347.289596092701L1257.2237325,357.7146006047726L1258.8836925,289.6643588364125L1259.2986825,327.3386498212815L1260.024915,321.69658724665646L1260.547495,334.87372149229054L1264.1825000000001,378.34405724406247L1264.9087325,337.6740514159203L1268.647485,328.03940643072133L1271.5524149999999,329.020151090622L1271.75991,346.438284111023L1271.8675,379.93988801240926L1272.074995,358.73483796119694L1272.69748,334.5282867968083L1273.6312075,296.3877235770226L1274.2536925,299.00688145756726L1274.77243,265.98907713294034L1277.78495,358.0407102823258L1279.237415,356.46100242137913L1280.38248,314.874518853426L1281.419955,375.10880206227307L1281.834945,333.8037109792233L1281.9386925000001,322.9118162810803L1284.847465,349.40546084642415L1285.7811925,303.88774056434636L1286.6111725,312.3131113171578L1288.1712275,321.1750926494599L1288.274975,400.5351326286793L1289.519945,352.3456724405289L1292.73996,354.6794492423535L1293.6736875,308.68455831408505L1295.0262475000002,313.1078526794911L1295.4412375000002,343.82794607877736L1295.959975,390.1090607464314L1296.8937025,318.0605626523495L1297.7236825,319.4820750176907L1298.449915,328.47337667346005L1298.5536625,300.4674371004105L1300.3212125,338.4458724081517L1303.43748,329.8941587328911L1304.4749550000001,365.15057538151746L1308.317455,370.3563082635403L1309.2511825,328.5192174136639L1309.35493,289.56470016837125L1309.977415,325.55271480679517L1311.6412175,312.34659303426747L1312.36745,369.75785065889363L1315.2762225000001,346.6547917246819L1315.37997,317.4735090553761L1316.3136975,311.5276953995228L1316.832435,364.46751464605336L1317.9775000000002,366.06458131670956L1318.9112275,342.5686178028584L1320.3636925,323.22219629287724L1321.504915,327.2830903947354L1324.30994,315.5492653369904L1324.6211825,311.98211420774464L1325.55491,339.50537775158887L1328.15244,317.25537229776387L1328.56743,298.5558332920075L1329.5049999999999,371.76787723302846L1330.9574650000002,328.8830221116543L1331.57995,367.8502916216851L1331.7874450000002,336.3074805259705L1335.3187025,300.4251917123795L1335.9411875,327.7800354778767L1336.5636725,298.1388847947121L1336.7711675,327.9891838550568L1336.874915,356.2496631264687L1337.9162325000002,352.41095055341725L1338.43497,325.79551343321805L1339.887435,351.44121665954594L1340.8211625000001,317.2161604881287L1342.484965,346.2080130398274L1345.0824949999999,330.0733645677567L1347.0536975,328.28641836047177L1347.987425,343.4330752909184L1349.8587225,361.0334477245808L1352.6637475,305.1934713542462L1355.04994,332.69898284673695L1355.257435,362.7914625823498L1355.3611825,318.53812654018407L1360.6599899999999,331.4068469822407L1361.4899699999999,317.96466786861424L1361.8012125,339.2723539888859L1362.73494,325.25840152502064L1366.6811875,333.03391237258916L1369.9012025000002,307.00524796247487L1371.979995,325.90651993155484L1372.7062274999998,325.8071421504021L1373.4324600000002,373.1704578220845L1373.9511975,319.84149788022046L1377.1712125,326.02544744014745L1378.0011925000001,352.3089886128903L1378.2086875,331.74469773173337L1381.739945,351.54008884429936L1382.0511875000002,335.4484722435475L1383.5074949999998,337.5846170306206L1383.8187375,374.59888000488286L1384.95996,375.6902379214764L1385.582445,347.5837408423424L1388.4912175,323.33297808170323L1388.8024599999999,363.1021234810353L1388.9062075,329.19289652705197L1389.5286925,310.72626892924313L1389.7361875000001,340.3010179519654L1391.5037375,365.0767583072186L1392.3337175,321.0071222901345L1393.2674450000002,360.0933754861355L1394.8274999999999,369.4551669478417L1396.4874599999998,368.8092394590378L1400.537455,387.2434527099133L1401.782425,357.7473520159722L1401.98992,329.4304706573487L1403.0312374999999,348.0408561646939L1404.17246,348.2706778168679L1404.8986925,327.1674211740494L1405.624925,329.9837054729462L1405.8324200000002,339.09146283268933L1407.59997,343.7403093695641L1409.5711725,297.77766425609593L1413.309925,359.0948787748814L1414.3512425,359.35475532412534L1416.11495,374.866789919138L1416.737435,342.3668286621571L1417.6711625,328.9179082632065L1420.7874299999999,328.5958995342255L1423.177465,356.7671129524708L1423.2812125,338.91753767132764L1425.1486675,351.480259937048L1428.0574399999998,320.599386882782L1428.5761774999999,310.7028429627419L1429.9287375,373.05080000758176L1431.3812025,316.526639354229L1432.2111825,322.0480890989304L1432.72992,345.112497997284L1432.937415,328.0089021146298L1433.0411625000002,319.34657518267636L1435.119955,399.95229233503346L1435.6386925,330.18184308409695L1437.095,375.2708176195622L1438.1324749999999,362.0767178058625L1438.6512125,307.377366912365L1439.3774449999999,363.7738363862038L1441.35249,341.06559206247334L1442.59746,372.1107277691365L1446.232465,347.35560451149945L1447.1661924999999,306.22427005767827L1452.149915,363.65114499330525L1452.672495,345.237548840046L1454.2287075,336.4246103584767L1455.3699299999998,303.2475993454457L1455.7849199999998,343.1352228343487L1457.4487225,360.5426821529866L1458.79744,328.0090706467629L1460.8762325,364.2109525620938L1461.80996,353.9399864196778L1462.63994,311.96964282989507L1464.7187325,367.3231231093407L1466.3786925,326.1912268817425L1468.457485,326.06825460195546L1468.7687275,344.16175205707555L1470.4286875,320.21153826713567L1472.09249,349.63432748317723L1473.2337125,329.54602752327924L1479.4662475,320.5222553431988L1480.399975,408.2542975664139L1480.5037225,361.19754184484486L1483.61999,363.0552715480328L1485.5911925,322.264652889967L1485.902435,359.5840152025223L1488.1887225,357.73235265612607L1492.757455,385.1529239535332L1494.939995,353.893190664053L1495.56248,324.5849471211434L1495.769975,389.905417752266L1497.9486725,317.16369081735616L1500.23496,389.40751765370374L1503.24748,345.7078658461571L1508.0237075,311.0046278357506L1509.6836675,347.0714031577111L1510.93248,344.3251720488072L1517.057425,354.27834276556973L1518.7212275,334.7048522949219L1521.9412425,353.5516322076321L1522.7712225,349.1233942329884L1524.94992,322.6073910713196L1527.54745,364.3867315769196L1528.0661875,326.22869719266896L1529.4187475,308.8973582208157L1530.7674650000001,364.0108487427235L1531.38995,393.62761844396596L1535.7511875,353.79004899859433L1535.854935,352.22208220958714L1536.3736724999999,316.05452467203145L1537.9337275,340.31332079768185L1543.954925,358.24716214537625L1545.722475,407.729488503933L1548.5275000000001,391.28979687094693L1548.6312475000002,331.77059550285344L1549.4612275000002,326.3902071535588L1550.7061975000001,337.0267756700516L1551.01744,326.81434635519986L1551.9511675,346.4924952805043L1553.5112225,385.1290485680104L1553.9262125,337.2085094869137L1554.1337075000001,317.72832964062695L1555.68992,362.22266663312917L1557.5612175,329.03818402886395L1559.4286725,318.7855317115784L1560.9887275,338.7549603402615L1562.0262025,332.7304421782494L1562.3374450000001,354.6823142886162L1563.582415,374.2793992578984L1563.6861625,328.48652217984204L1564.1049950000001,337.00778771638875L1567.009925,357.7697106122971L1569.7112025000001,328.3573703885079L1573.1387125,363.65030233263974L1574.694925,345.0366585373879L1578.4336775,329.138067406416L1578.952415,361.75487760901456L1583.93998,350.07520754337315L1584.35497,320.0401410877705L1586.42992,359.13291085958485L1591.417485,336.86009739041333L1591.5212325,361.1493978321553L1594.2186675,360.7937950313092L1594.52991,350.6308579862118L1598.89499,346.1253199398518L1600.5549500000002,405.26464987993245L1604.189955,398.71009815931325L1605.7461675,369.304330688715L1606.57999,367.66647924184804L1607.0987275,350.4203613519669L1607.2024749999998,382.0482811748982L1610.6299849999998,334.33014918565755L1612.3936925,346.4369358539582L1612.704935,335.0323102295399L1613.0161775000001,339.3345985233784L1614.3687375,381.0529303967953L1617.16992,337.66326535940175L1619.0412175,316.2827733576298L1619.76745,409.4039114236832L1620.4936825,344.4497734725476L1622.7799699999998,342.04223577380185L1624.9586675,369.9939641773701L1626.3112274999999,366.69882391095166L1629.9462325,357.9081878483296L1632.332425,365.64622838497166L1632.6436675,357.4893293201924L1633.9962275,344.5356686830521L1634.4112175,356.4251050770283L1635.0337025,330.9595627009869L1639.4986875000002,351.51874144077306L1639.602435,366.45366583466534L1641.57748,362.09677312970166L1641.8887224999999,354.4436166107655L1642.7187024999998,349.18811057209973L1642.82245,384.9642803192139L1642.9261975,335.2001120567322L1643.5486825,356.28718961477284L1645.627475,395.50405521392827L1645.8349699999999,328.575900387764L1647.7024250000002,363.42789609432225L1652.897485,346.40581358671193L1654.3499499999998,386.2804601013661L1654.972435,350.2649747252465L1658.5036925,340.060185533762L1662.7611825,336.38798270821576L1665.6699549999998,393.115954887867L1668.47498,366.55113358497624L1668.9937175,335.6671707749367L1669.6162024999999,314.105450552702L1672.0062375,367.1615569710732L1674.599925,358.78326286077504L1675.8487375,369.8800926327706L1675.952485,338.74462370276456L1676.57497,327.9469384670258L1677.5086975,338.8087220907212L1679.2762475,316.5823111355305L1680.5212175,337.18974624276166L1681.1437025,346.2435171425343L1683.222495,357.31855009198193L1683.637485,352.456060987711L1686.127425,356.6875657856465L1686.33492,353.91695369482045L1687.27249,343.0839328885079L1692.4637075,325.0373997211457L1694.95749,333.8094972491265L1695.0612375,381.22921500802045L1697.3436824999999,326.02595303654675L1700.9786875,327.18202729225163L1701.082435,364.3178019344807L1703.5762175,345.40287886261945L1703.7837124999999,341.2570445656777L1703.88746,388.26649893522267L1707.0037275,346.7378218889237L1708.6636875,346.11503947973256L1709.597415,358.8975276470185L1709.9125000000001,370.52663807272916L1710.119995,342.4068831324578L1711.6762075,328.70359156727795L1712.2986925,329.90191121101384L1714.377485,340.47219042181973L1715.41496,387.4031649947167L1715.5187075,322.2008353888989L1716.3486874999999,341.03272829651837L1716.7636774999999,320.3194550096989L1717.3861625,322.78300155401234L1719.049965,361.4520815432072L1723.51495,395.9118467986584L1724.75992,343.022137773037L1725.9049850000001,360.1603389203549L1726.94246,396.2464954376221L1727.0462075,301.9034432291985L1727.4611975,351.93737525939946L1727.8761875,354.93561808466916L1728.2911775,327.8546952128411L1730.0587275,350.88977952003484L1730.6812125,340.8817796826363L1731.0962025,340.9149805128575L1731.3036975,331.81211058497433L1732.85991,361.03597570657735" style="fill: none;" fill="none"></path></g></g></g></g></g></g><g transform="translate(50, 377)" clip-path="url(#clip_1)"><clipPath id="clip_1"><rect width="1921" height="22"></rect></clipPath><g><g><line x1="0" y1="0" x2="0" y2="5" style="visibility: inherit;" fill="rgb(0, 0, 0)" stroke="rgb(204, 204, 204)" stroke-width="1px"></line><line x1="192.125" y1="0" x2="192.125" y2="5" style="visibility: inherit;" fill="rgb(0, 0, 0)" stroke="rgb(204, 204, 204)" stroke-width="1px"></line><line x1="384.25" y1="0" x2="384.25" y2="5" style="visibility: inherit;" fill="rgb(0, 0, 0)" stroke="rgb(204, 204, 204)" stroke-width="1px"></line><line x1="576.375" y1="0" x2="576.375" y2="5" style="visibility: inherit;" fill="rgb(0, 0, 0)" stroke="rgb(204, 204, 204)" stroke-width="1px"></line><line x1="768.5" y1="0" x2="768.5" y2="5" style="visibility: inherit;" fill="rgb(0, 0, 0)" stroke="rgb(204, 204, 204)" stroke-width="1px"></line><line x1="960.625" y1="0" x2="960.625" y2="5" style="visibility: inherit;" fill="rgb(0, 0, 0)" stroke="rgb(204, 204, 204)" stroke-width="1px"></line><line x1="1152.75" y1="0" x2="1152.75" y2="5" style="visibility: inherit;" fill="rgb(0, 0, 0)" stroke="rgb(204, 204, 204)" stroke-width="1px"></line><line x1="1344.875" y1="0" x2="1344.875" y2="5" style="visibility: inherit;" fill="rgb(0, 0, 0)" stroke="rgb(204, 204, 204)" stroke-width="1px"></line><line x1="1537" y1="0" x2="1537" y2="5" style="visibility: inherit;" fill="rgb(0, 0, 0)" stroke="rgb(204, 204, 204)" stroke-width="1px"></line><line x1="1729.125" y1="0" x2="1729.125" y2="5" style="visibility: inherit;" fill="rgb(0, 0, 0)" stroke="rgb(204, 204, 204)" stroke-width="1px"></line><line x1="1921.25" y1="0" x2="1921.25" y2="5" style="visibility: inherit;" fill="rgb(0, 0, 0)" stroke="rgb(204, 204, 204)" stroke-width="1px"></line></g><g transform="translate(0, 8)"><text x="0" y="0" dx="0em" dy="0.95em" style="text-anchor: middle; visibility: hidden; font-family: Roboto, sans-serif; font-size: 12px; font-weight: 200;" fill="rgb(33, 33, 33)" stroke="none" stroke-width="1px">-50k</text><text x="192.125" y="0" dx="0em" dy="0.95em" style="text-anchor: middle; visibility: inherit; font-family: Roboto, sans-serif; font-size: 12px; font-weight: 200;" fill="rgb(33, 33, 33)" stroke="none" stroke-width="1px">0</text><text x="384.25" y="0" dx="0em" dy="0.95em" style="text-anchor: middle; visibility: inherit; font-family: Roboto, sans-serif; font-size: 12px; font-weight: 200;" fill="rgb(33, 33, 33)" stroke="none" stroke-width="1px">50k</text><text x="576.375" y="0" dx="0em" dy="0.95em" style="text-anchor: middle; visibility: inherit; font-family: Roboto, sans-serif; font-size: 12px; font-weight: 200;" fill="rgb(33, 33, 33)" stroke="none" stroke-width="1px">100k</text><text x="768.5" y="0" dx="0em" dy="0.95em" style="text-anchor: middle; visibility: inherit; font-family: Roboto, sans-serif; font-size: 12px; font-weight: 200;" fill="rgb(33, 33, 33)" stroke="none" stroke-width="1px">150k</text><text x="960.625" y="0" dx="0em" dy="0.95em" style="text-anchor: middle; visibility: inherit; font-family: Roboto, sans-serif; font-size: 12px; font-weight: 200;" fill="rgb(33, 33, 33)" stroke="none" stroke-width="1px">200k</text><text x="1152.75" y="0" dx="0em" dy="0.95em" style="text-anchor: middle; visibility: inherit; font-family: Roboto, sans-serif; font-size: 12px; font-weight: 200;" fill="rgb(33, 33, 33)" stroke="none" stroke-width="1px">250k</text><text x="1344.875" y="0" dx="0em" dy="0.95em" style="text-anchor: middle; visibility: inherit; font-family: Roboto, sans-serif; font-size: 12px; font-weight: 200;" fill="rgb(33, 33, 33)" stroke="none" stroke-width="1px">300k</text><text x="1537" y="0" dx="0em" dy="0.95em" style="text-anchor: middle; visibility: inherit; font-family: Roboto, sans-serif; font-size: 12px; font-weight: 200;" fill="rgb(33, 33, 33)" stroke="none" stroke-width="1px">350k</text><text x="1729.125" y="0" dx="0em" dy="0.95em" style="text-anchor: middle; visibility: inherit; font-family: Roboto, sans-serif; font-size: 12px; font-weight: 200;" fill="rgb(33, 33, 33)" stroke="none" stroke-width="1px">400k</text><text x="1921.25" y="0" dx="0em" dy="0.95em" style="text-anchor: middle; visibility: hidden; font-family: Roboto, sans-serif; font-size: 12px; font-weight: 200;" fill="rgb(33, 33, 33)" stroke="none" stroke-width="1px">450k</text></g><line x1="0" y1="0" x2="1921.25" y2="0" fill="rgb(0, 0, 0)" stroke="rgb(204, 204, 204)" stroke-width="1px"></line></g></g></g></g></svg>