<svg viewBox="0 0 330.0000305175781 200.00001525878906" xmlns="http://www.w3.org/2000/svg"><g><g><g><g><g><line x1="50" y1="177" x2="45" y2="177" style="visibility: inherit;" fill="rgb(0, 0, 0)" stroke="rgb(204, 204, 204)" stroke-width="1px"></line><line x1="50" y1="159.29999999999998" x2="45" y2="159.29999999999998" style="visibility: inherit;" fill="rgb(0, 0, 0)" stroke="rgb(204, 204, 204)" stroke-width="1px"></line><line x1="50" y1="141.6" x2="45" y2="141.6" style="visibility: inherit;" fill="rgb(0, 0, 0)" stroke="rgb(204, 204, 204)" stroke-width="1px"></line><line x1="50" y1="123.89999999999999" x2="45" y2="123.89999999999999" style="visibility: inherit;" fill="rgb(0, 0, 0)" stroke="rgb(204, 204, 204)" stroke-width="1px"></line><line x1="50" y1="106.19999999999997" x2="45" y2="106.19999999999997" style="visibility: inherit;" fill="rgb(0, 0, 0)" stroke="rgb(204, 204, 204)" stroke-width="1px"></line><line x1="50" y1="88.50000000000001" x2="45" y2="88.50000000000001" style="visibility: inherit;" fill="rgb(0, 0, 0)" stroke="rgb(204, 204, 204)" stroke-width="1px"></line><line x1="50" y1="70.8" x2="45" y2="70.8" style="visibility: inherit;" fill="rgb(0, 0, 0)" stroke="rgb(204, 204, 204)" stroke-width="1px"></line><line x1="50" y1="53.09999999999999" x2="45" y2="53.09999999999999" style="visibility: inherit;" fill="rgb(0, 0, 0)" stroke="rgb(204, 204, 204)" stroke-width="1px"></line><line x1="50" y1="35.400000000000034" x2="45" y2="35.400000000000034" style="visibility: inherit;" fill="rgb(0, 0, 0)" stroke="rgb(204, 204, 204)" stroke-width="1px"></line><line x1="50" y1="17.700000000000017" x2="45" y2="17.700000000000017" style="visibility: inherit;" fill="rgb(0, 0, 0)" stroke="rgb(204, 204, 204)" stroke-width="1px"></line><line x1="50" y1="0" x2="45" y2="0" style="visibility: inherit;" fill="rgb(0, 0, 0)" stroke="rgb(204, 204, 204)" stroke-width="1px"></line></g><g transform="translate(40, 0)"><text x="0" y="177" dx="0em" dy="0.3em" style="text-anchor: end; visibility: hidden; font-family: Roboto, sans-serif; font-size: 12px; font-weight: 200;" fill="rgb(33, 33, 33)" stroke="none" stroke-width="1px">0.32</text><text x="0" y="159.29999999999998" dx="0em" dy="0.3em" style="text-anchor: end; visibility: inherit; font-family: Roboto, sans-serif; font-size: 12px; font-weight: 200;" fill="rgb(33, 33, 33)" stroke="none" stroke-width="1px">0.34</text><text x="0" y="141.6" dx="0em" dy="0.3em" style="text-anchor: end; visibility: hidden; font-family: Roboto, sans-serif; font-size: 12px; font-weight: 200;" fill="rgb(33, 33, 33)" stroke="none" stroke-width="1px">0.36</text><text x="0" y="123.89999999999999" dx="0em" dy="0.3em" style="text-anchor: end; visibility: inherit; font-family: Roboto, sans-serif; font-size: 12px; font-weight: 200;" fill="rgb(33, 33, 33)" stroke="none" stroke-width="1px">0.38</text><text x="0" y="106.19999999999997" dx="0em" dy="0.3em" style="text-anchor: end; visibility: hidden; font-family: Roboto, sans-serif; font-size: 12px; font-weight: 200;" fill="rgb(33, 33, 33)" stroke="none" stroke-width="1px">0.4</text><text x="0" y="88.50000000000001" dx="0em" dy="0.3em" style="text-anchor: end; visibility: inherit; font-family: Roboto, sans-serif; font-size: 12px; font-weight: 200;" fill="rgb(33, 33, 33)" stroke="none" stroke-width="1px">0.42</text><text x="0" y="70.8" dx="0em" dy="0.3em" style="text-anchor: end; visibility: hidden; font-family: Roboto, sans-serif; font-size: 12px; font-weight: 200;" fill="rgb(33, 33, 33)" stroke="none" stroke-width="1px">0.44</text><text x="0" y="53.09999999999999" dx="0em" dy="0.3em" style="text-anchor: end; visibility: inherit; font-family: Roboto, sans-serif; font-size: 12px; font-weight: 200;" fill="rgb(33, 33, 33)" stroke="none" stroke-width="1px">0.46</text><text x="0" y="35.400000000000034" dx="0em" dy="0.3em" style="text-anchor: end; visibility: hidden; font-family: Roboto, sans-serif; font-size: 12px; font-weight: 200;" fill="rgb(33, 33, 33)" stroke="none" stroke-width="1px">0.48</text><text x="0" y="17.700000000000017" dx="0em" dy="0.3em" style="text-anchor: end; visibility: inherit; font-family: Roboto, sans-serif; font-size: 12px; font-weight: 200;" fill="rgb(33, 33, 33)" stroke="none" stroke-width="1px">0.5</text><text x="0" y="0" dx="0em" dy="0.3em" style="text-anchor: end; visibility: hidden; font-family: Roboto, sans-serif; font-size: 12px; font-weight: 200;" fill="rgb(33, 33, 33)" stroke="none" stroke-width="1px">0.52</text></g><line x1="50" y1="0" x2="50" y2="177" fill="rgb(0, 0, 0)" stroke="rgb(204, 204, 204)" stroke-width="1px"></line></g></g><g transform="translate(50, 0)" clip-path="url(#clip_0)"><clipPath id="clip_0"><rect width="280" height="176"></rect></clipPath><g><g><g><line x1="0" y1="0" x2="0" y2="177" fill="rgb(0, 0, 0)" stroke="rgb(66, 66, 66)" stroke-width="1px" opacity="0.25"></line><line x1="28" y1="0" x2="28" y2="177" fill="rgb(0, 0, 0)" stroke="rgb(66, 66, 66)" stroke-width="1px" opacity="0.25"></line><line x1="56" y1="0" x2="56" y2="177" fill="rgb(0, 0, 0)" stroke="rgb(66, 66, 66)" stroke-width="1px" opacity="0.25"></line><line x1="84" y1="0" x2="84" y2="177" fill="rgb(0, 0, 0)" stroke="rgb(66, 66, 66)" stroke-width="1px" opacity="0.25"></line><line x1="112" y1="0" x2="112" y2="177" fill="rgb(0, 0, 0)" stroke="rgb(66, 66, 66)" stroke-width="1px" opacity="0.25"></line><line x1="140" y1="0" x2="140" y2="177" fill="rgb(0, 0, 0)" stroke="rgb(66, 66, 66)" stroke-width="1px" opacity="0.25"></line><line x1="168" y1="0" x2="168" y2="177" fill="rgb(0, 0, 0)" stroke="rgb(66, 66, 66)" stroke-width="1px" opacity="0.25"></line><line x1="196" y1="0" x2="196" y2="177" fill="rgb(0, 0, 0)" stroke="rgb(66, 66, 66)" stroke-width="1px" opacity="0.25"></line><line x1="224" y1="0" x2="224" y2="177" fill="rgb(0, 0, 0)" stroke="rgb(66, 66, 66)" stroke-width="1px" opacity="0.25"></line><line x1="252" y1="0" x2="252" y2="177" fill="rgb(0, 0, 0)" stroke="rgb(66, 66, 66)" stroke-width="1px" opacity="0.25"></line><line x1="280" y1="0" x2="280" y2="177" fill="rgb(0, 0, 0)" stroke="rgb(66, 66, 66)" stroke-width="1px" opacity="0.25"></line></g><g><line x1="0" y1="177" x2="280" y2="177" fill="rgb(0, 0, 0)" stroke="rgb(66, 66, 66)" stroke-width="1px" opacity="0.25"></line><line x1="0" y1="159.29999999999998" x2="280" y2="159.29999999999998" fill="rgb(0, 0, 0)" stroke="rgb(66, 66, 66)" stroke-width="1px" opacity="0.25"></line><line x1="0" y1="141.6" x2="280" y2="141.6" fill="rgb(0, 0, 0)" stroke="rgb(66, 66, 66)" stroke-width="1px" opacity="0.25"></line><line x1="0" y1="123.89999999999999" x2="280" y2="123.89999999999999" fill="rgb(0, 0, 0)" stroke="rgb(66, 66, 66)" stroke-width="1px" opacity="0.25"></line><line x1="0" y1="106.19999999999997" x2="280" y2="106.19999999999997" fill="rgb(0, 0, 0)" stroke="rgb(66, 66, 66)" stroke-width="1px" opacity="0.25"></line><line x1="0" y1="88.50000000000001" x2="280" y2="88.50000000000001" fill="rgb(0, 0, 0)" stroke="rgb(66, 66, 66)" stroke-width="1px" opacity="0.25"></line><line x1="0" y1="70.8" x2="280" y2="70.8" fill="rgb(0, 0, 0)" stroke="rgb(66, 66, 66)" stroke-width="1px" opacity="0.25"></line><line x1="0" y1="53.09999999999999" x2="280" y2="53.09999999999999" fill="rgb(0, 0, 0)" stroke="rgb(66, 66, 66)" stroke-width="1px" opacity="0.25"></line><line x1="0" y1="35.400000000000034" x2="280" y2="35.400000000000034" fill="rgb(0, 0, 0)" stroke="rgb(66, 66, 66)" stroke-width="1px" opacity="0.25"></line><line x1="0" y1="17.700000000000017" x2="280" y2="17.700000000000017" fill="rgb(0, 0, 0)" stroke="rgb(66, 66, 66)" stroke-width="1px" opacity="0.25"></line><line x1="0" y1="0" x2="280" y2="0" fill="rgb(0, 0, 0)" stroke="rgb(66, 66, 66)" stroke-width="1px" opacity="0.25"></line></g></g></g><g><g><line x1="0" y1="460.19999999999993" x2="280" y2="460.19999999999993" fill="rgb(0, 0, 0)" stroke="rgb(153, 153, 153)" stroke-width="1.5px"></line></g></g><g><g><line x1="28" y1="0" x2="28" y2="177" fill="rgb(0, 0, 0)" stroke="rgb(153, 153, 153)" stroke-width="1.5px"></line></g></g><g><g><g><g><g><path stroke="rgb(255, 112, 67)" stroke-width="2px" d="M37.716559999999994,-4.211050290049589L37.79216,11.928837710091484L37.8224,20.53499068667009L38.00384,20.368663540756067L38.1556,24.94502742074786L38.80632,24.773806820776763L38.92728,14.044216516035105L39.04824,15.939703268973606L39.441919999999996,22.728420623813367L39.578,20.085549149457258L39.63848,19.705208493159624L39.66872,14.69664137385029L39.88096,14.312696299668112L39.9112,13.951424580635042L40.017039999999994,14.415454476971629L40.138,16.7425812112872L40.228719999999996,7.733222729376042L40.652640000000005,14.09873152640002L41.75752,5.9692294458398685L42.257039999999996,16.124064823390718L42.3024,30.628203289757323L42.56,37.097077885302475L42.69608,37.783602742572334L42.711200000000005,46.594063220156286L42.80192,48.827279153903376L42.81704,38.87855843987419L42.89264,43.53760820082651L43.16536,44.0755759731044L43.210719999999995,30.33430149168414L43.3468,33.66750033384949L44.08824,34.64760175041189L44.1336,36.45189025099177L44.22432,32.464006667703956L44.315599999999996,39.23922464452425L44.3912,46.86115823985481L44.5424,55.12857744456133L44.63312,45.695844782357184L44.70872,33.27883161363888L45.49608,34.53404831920794L45.57168,37.76555789014541L45.586800000000004,45.72922256768253L45.85896,49.866676330450254L46.05608,50.20578499310201L46.25264,40.24165581746689L46.82776,35.572309457563115L47.08536,42.78821140009325L47.38776,41.18017901347971L47.584320000000005,43.53975595335305L47.91752,45.01542624294838L47.96288,44.84407490050842L48.17512000000001,43.95597319815187L48.235600000000005,46.84314449914471L48.96192,57.43606271200284L49.06776,52.111630944328915L49.400960000000005,55.97433533425179L49.5824,67.446897917718L49.7336,67.30396248205322L50.187760000000004,55.878457189225095L50.354079999999996,56.74057959832129L50.47560000000001,70.7924342281662L50.566320000000005,61.3624228481676L51.050720000000005,55.43471525455869L51.111200000000004,69.87585874286508L51.4892,65.51462241820822L51.731680000000004,65.2998147106906L51.7468,62.37042671303389L51.973600000000005,68.22913973725103L52.03408,69.23394758699098L52.29168,71.86771155594441L52.82144,66.31971033810768L52.9424,72.38620016097543L53.24536,74.30970040511804L53.45704,69.45244014472792L53.59312,73.73648013479128L53.683840000000004,75.2759665167726L53.76,79.51033968904004L53.86584,77.88559330688948L54.001920000000005,78.36182717077155L54.2136,77.01483551497591L54.243840000000006,71.89343277594647L54.2892,65.85455791223764L54.42584,74.33355372469855L54.9556,76.84658756328363L55.31848,69.35505964322529L55.636559999999996,69.12429303386001L55.908719999999995,62.687311609138206L56.04536,73.28099517080138L56.24191999999999,79.70389199765296L56.28728,77.26177779025895L56.40824,78.20783287279048L57.0136,80.94782097811839L57.2712,84.84276656195726L57.4224,89.5946972768617L57.467760000000006,74.20152309424354L57.770720000000004,72.74246189407509L58.012640000000005,79.22341845161918L58.285360000000004,80.26909902410031L58.4668,72.7831394524355L58.72384,76.29516919439904L58.81512,76.18899239770099L59.178000000000004,78.63672963661864L59.375119999999995,78.95527186800788L59.42048,82.95874265199751L59.435599999999994,86.90846061805397L59.55656,88.08914565384097L59.617039999999996,80.04209331357305L59.72288,81.1519524126281L60.46432,84.75809573823389L60.52536,91.34547986086714L60.6312,97.05106026110948L60.76728,95.31091117249666L61.10048,91.04748246781078L61.160959999999996,89.10488188571958L61.28192,97.11876918737426L61.402879999999996,93.19397260346608L61.46336,83.86488647698523L61.76632,88.37832280539963L61.84192,94.13360024299318L61.85704,88.97124938730056L61.93264,89.93968025066646L62.11408,87.67848895799037L62.160000000000004,97.5810637450869L62.2356,100.19842324594583L62.52288,95.3162555142637L62.76536,96.6572134807346L62.916560000000004,91.71790256468284L63.098,92.76322947244542L63.49168,90.10695278108534L63.62776,84.67660792029153L64.15752,84.00865298602729L64.17264,88.21348163422202L64.20288,86.22105375371132L64.86872,81.5863742127523L64.99024,84.53207629767091L65.12631999999999,87.62379962591548L65.15656,89.41344458572996L65.23216000000001,97.28863037534316L65.61072,98.66154616896964L65.62584,106.35339169874581L65.77704,95.39291055187459L65.80728,88.81258120527787L65.88288,86.3766448687966L66.09512000000001,84.74341310688588L66.18584,87.93352854507405L66.32191999999999,93.18962326679969L66.54872,81.70456524988617L66.6092,86.43401055992014L66.64,101.58024085915302L67.018,103.72971478793748L67.3512,109.55166755016882L67.44192,110.92287105736875L67.69896,106.70989880095573L67.79024,106.18287439304979L68.18336000000001,95.49010108684539L68.53168,97.06440140947723L68.63752,94.68756033745426L68.71312,96.07763640026461L68.91024,101.66640820944436L69.47024,99.75802711036282L69.68192,108.26884290091087L70.21168,107.60528262443478L71.46776000000001,97.50298290721857L71.60384,98.87696327014137L71.74048,104.61749299790485L71.8312,109.63287792936578L72.19408,109.38663581094511L72.90584,111.13750417161805L73.0268,107.42453194814219L73.57168,109.36131709788616L73.81360000000001,110.20321611627564L73.85896000000001,107.46220866957081L73.98048,108.8739561612533L74.02584,115.92419611544172L74.38872,108.96698057610246L74.4492,105.05394365047485L74.90336,94.99191366705342L75.47847999999999,96.92976335211424L75.7512,110.717146589302L75.84192,118.53843648549496L76.08384000000001,116.16125024626595L76.35656,115.37380564254488L76.37168,114.71265173460229L76.88632,115.9914189535688L77.03752,113.43293251027532L77.08287999999999,107.8179888381354L77.098,107.34019289814186L77.12823999999999,105.37574531556815L77.14336,100.19710972739254L77.52192,106.95746956844923L78.02144,106.87168348657964L78.6268,111.19201440589354L79.09608,108.63408250675636L79.50431999999999,113.61478493133805L79.58048000000001,111.89202015590439L79.91311999999999,118.54809306735855L80.20096000000001,111.9729039995376L80.42776,111.954434943706L80.67023999999999,112.05086878568545L81.10871999999999,104.14395823735366L81.15408,111.55906055842861L81.53264,112.69012944266215L81.92632,118.08816492059835L82.18336,109.04708750426178L82.48632,109.85259837019092L82.75847999999999,106.84158986155772L82.78872,102.46252011146893L82.81896,107.28687538913934L82.91024,107.60857025988132L83.3336,111.04690058831711L83.54584,117.06529198053082L84.39312,120.36750656820894L84.4536,122.56204071794488L84.62048,119.21917513581839L85.0892,113.40276669486003L85.21072,114.21318449868942L85.40728,115.03375483211389L85.48288000000001,111.23505488310163L85.72536,115.35424398227869L85.80095999999999,119.98343741681781L85.8312,129.05096106878884L85.98240000000001,134.4140169975279L86.04288,123.82718880397786L86.48192,126.15314973725503L86.66336,114.2539998658516L87.45072,113.68687832641707L87.61703999999999,112.61871717624727L87.87408,119.667573362904L88.298,114.79673339028189L88.69167999999999,119.66480884491823L88.87312,125.83249727689875L89.04,129.33497037055284L89.08536,128.98604278780334L89.94776,121.08427475581952L90.02336000000001,114.36816539460656L90.03848,112.35790061291598L90.19024,115.1170308598074L91.29512,109.52415850688176L91.46144,112.61947822409365L91.47655999999999,114.00805917166169L91.5068,115.51507985343036L91.58239999999999,126.78757970660625L91.59751999999999,124.06927888351497L91.97608,121.41608564590106L92.05168,124.595301159231L92.09703999999999,120.52941848993785L92.21799999999999,116.66077234125427L92.52096,117.62835359916862L92.56632,116.9148893901454L92.58144,117.4263852851836L92.80824,114.7905862508564L93.14144,113.11698403706248L93.338,113.77666669815834L93.36824,114.95241833049093L93.56536,119.05675938795824L94.12536,119.21908994836102L94.48823999999999,115.09130992366367L94.59408,117.66363984747825L94.68536,126.61736279251635L95.04823999999999,123.29316057158982L95.0936,124.75212568159982L95.9868,123.81910435507348L96.24383999999999,126.71898141473328L96.25895999999999,132.49070410591239L96.56192,130.31678704894705L96.60728,126.3417198138065L96.74336,113.13404477576174L97.28824,114.56804787957523L97.33359999999999,120.29809730436712L97.57608,122.18433475486225L98.04535999999999,125.91254317040314L98.46871999999999,117.64772299572867L98.59024,123.66112820175317L98.65072,125.61805066267864L98.77168,126.56390166044365L98.938,124.20706217622832L99.33168,128.77638243398712L99.40728,124.284204218159L99.6492,122.23188948712938L99.89168000000001,124.4796447448861L100.01264,127.20916919546914L100.14872,122.25068298243042L100.28536,130.2933908108625L100.45168000000001,130.6624013116213L100.4668,130.05387957157205L100.64824,127.00990490950056L100.67848,119.69187489531582L101.2536,122.83086087812272L101.4356,128.39695924108796L101.72288,123.11849508515341L102.07119999999999,133.14295325655544L102.3736,132.52133719193222L103.10047999999999,129.68125542919208L103.23656,125.36937805247526L103.28192000000001,131.90751436371934L103.31216,137.91785517823297L104.08384,134.8336892860627L104.1292,129.54409353837346L104.43216000000001,140.0877069574891L104.4624,144.924380685228L104.47752000000001,138.67855568727128L104.58336,123.94270624399348L104.85607999999999,124.65810292053321L105.28,136.75597134761867L105.5824,141.74679634769475L105.61264000000001,141.17604852080171L105.70336,129.43450136876L106.17264,132.17273519453943L106.43024,133.33610313425982L106.7024,138.3463293915422L106.82336000000001,126.17410611423436L107.29263999999999,128.32415112324108L107.70143999999999,127.1363260821554L108.0492,125.9668467495473L108.48824,125.46378441653442L108.65512,123.90141982318042L108.89703999999999,119.84275592137023L109.10872,114.63364026289366L109.4268,117.37321301782836L110.03215999999999,130.58060382178257L110.36536000000001,133.14959387285012L110.44096,130.12355627478658L111.00096,133.56685599482955L111.16727999999999,130.45457901714386L111.258,126.7269801792988L111.47024,127.92392557725245L111.50048000000001,130.37123089233L111.98432000000001,134.91862748860694L112.34776,130.10226987361537L112.5292,128.30780080175174L112.56,139.85792388925418L112.65072,131.91913415914456L112.83216,139.80703540280868L113.21072000000001,134.48687106630453L113.63408,131.44028891957547L113.66432,134.30075891397442L113.72536000000001,139.79502493370794L113.95216,144.2374224485708L114.57263999999999,138.45605959306675L114.618,131.4984867132337L115.16288,126.39643779019306L115.42048000000001,130.48397727858892L115.46584,133.39218807728213L115.61704,131.51127240247206L115.88919999999999,127.5150265335242L115.90432,131.09777005429268L116.16192000000001,138.25522681900978L116.20728,134.12807186620904L116.72192,139.06852884875227L116.75216,140.98416248909524L116.858,139.0244406029695L117.2668,135.1600398328968L117.40288,130.8714253894727L117.72095999999999,131.152639059558L118.08384,133.87430381556416L118.16,141.8012559686903L118.25071999999999,138.5202938052895L118.65896,135.01185637789263L118.96192,139.8691755227881L119.03752,134.13561892346368L119.26432,137.43240204236403L119.34048,138.67146396387517L119.99119999999999,145.84492860167566L120.05168,142.29959047275386L120.36919999999999,137.49518233083248L120.39999999999999,144.94356221164801L120.64192000000001,146.92836588028393L120.67216,149.8139930856426L120.76288000000001,137.1298402769684L120.79312,140.39510265012495L121.06584,141.4291497339005L121.4136,143.1016789406058L121.55024,141.65776013192632L121.83752000000001,136.96193016563117L122.00384,133.15038800116932L122.03408,135.26957394287916L122.12536,134.2535980606433L122.32191999999999,138.94380559589604L122.59408,140.89890511552176L123.18432,139.30472567391206L123.53264,137.39298735566027L123.59312,140.5030470925992L123.60824000000001,137.36106128206404L123.71408,136.64650025076L123.97167999999999,139.93572857920122L124.138,133.55793136205554L124.30432,138.0030400791542L124.41072,138.16094079725602L124.50144,134.1042791718999L124.86432,137.3861892339444L125.75752,132.1053495166812L126.30239999999999,146.54349276054586L126.31751999999999,143.3105219091695L126.37799999999999,138.90113746915586L126.68096,138.59487926122145L126.69608,142.25374834511638L126.7112,150.30830943330508L126.83216,153.14363149729002L127.49799999999999,148.0561492486395L127.60384,146.0636417224167L127.64920000000001,137.62180175984852L127.93704,133.8182799780664L128.75408000000002,140.81927907730923L128.89072000000002,140.60845008531683L128.92096,142.1395827164619L128.98144,139.7630261844616L129.07216,147.62470929302103L129.11751999999998,144.60076702402432L129.22335999999999,132.43541625479696L129.34432,132.44649547421838L129.39024,137.49285692503398L129.57168,139.4606075723788L129.98048,136.96493395089038L130.04096,134.53132081460313L130.20728,130.23988569516752L130.37359999999998,133.48469112836608L131.40288,133.0526182491975L131.61512000000002,132.20094857927543L131.73608000000002,132.27596885631309L131.94776,132.58979558628693L131.96287999999998,133.97367288161456L132.35656,131.45341773205487L132.56824,129.5917424093097L132.9468,133.63436268630085L133.38584,138.74008357323677L133.43120000000002,144.57862557528895L133.82432,144.32664975141572L134.09704,143.32030056366375L134.15752,138.6916787102762L134.53608,137.04488771885298L134.9292,132.7890387209038L135.32288,130.5577691979277L135.55024,135.4440902392309L135.6712,148.96560472251423L135.68632,149.51459064961344L136.01896,148.35182927656695L136.07999999999998,155.00111291055995L136.29168,151.4981839778728L136.89704,143.88783806578556L137.03312,142.5521633435264L137.21511999999998,139.79049054914563L137.5024,151.8029711898199L137.54776,141.5903579912204L137.68384,140.81375074396243L138.48632,143.63313713556357L138.65264,142.2003482680668L138.92536,145.32478530294594L139.07656,144.16903806857408L139.09168,143.59319082458103L139.36384,142.53580918526222L139.37896,141.10596128353816L139.72728,139.88849723845328L139.78776,136.93627910202505L140.01512,137.2602564643965L140.46872,135.3987178701845L140.60536,145.0438406335525L140.65072,138.25085690898968L140.75656,137.6636213903622L140.90776,135.27187640219904L140.95311999999998,142.4922152611612L141.02872,133.5343763549923L141.18048,136.13754699228994L141.54335999999998,132.49910081862683L141.68,144.73534970426124L141.96728,144.7974782690022L142.22431999999998,147.4164091220268L143.16288,146.684718903945L143.69263999999998,146.1049358278788L143.95024,146.3262185758517L144.10144,143.60940614856278L144.17704,143.0815639037907L144.34336,134.495740665139L144.43408,140.06143394776657L144.54048,142.92744932453917L144.81264,144.66759944368053L144.88824,142.98415009503753L144.96384,142.91116510108228L145.23656,138.84639142200416L145.40287999999998,140.5923622908894L145.44824,140.27614345209025L145.7512,150.07888670478L145.87216,156.35677038737376L146.02336,140.81461800282145L146.20536,145.67041311231222L146.55312,149.7511024258552L146.62872,139.67389674556358L147.55216,151.6385394595391L147.56728,147.9007213438944L148.05168,149.87483211787918L148.7024,155.0747425033592L148.82336,140.65219634496827L148.94432,141.75006465031896L148.96,149.35489910074594L149.47408,143.52265197055652L149.64096,144.65414095411964L149.8224,149.81544334465428L150.08,153.80483050092553L150.98776,144.80120004263222L151.3512,151.7558512320918L151.80536,148.82120809023394L151.86584000000002,150.70069678941255L152.07752,146.23278487395575L152.33512000000002,142.6613732068022L152.42584,148.6260810594725L153.06144,144.0143644440751L153.30336,139.99444549730904L153.47024000000002,143.8565184369772L153.60632,148.38264143318472L153.72728,141.1841745892199L154.03024000000002,143.13243007654143L154.06048,142.44778668161743L154.10584,149.04007368133375L154.13608000000002,145.36690423277562L154.2268,143.4257719647142L154.5292,141.1196540600808L154.57512000000003,134.12354034702489L154.65072,139.83098194194145L154.7868,143.35539780850598L155.84632000000002,146.3250105714523L156.14872,139.7257351527049L156.16384,143.1101247030159L156.19407999999999,146.68581972346664L156.40632000000002,148.2332931317446L156.4668,145.7659360550378L156.60288,140.9665059484562L156.618,143.2917751501513L156.6936,147.62086617413237L156.7692,145.97586149134082L156.99656000000002,144.34149877403883L157.46584000000001,150.8427774845046L157.64728,145.00855399480358L157.75312,147.8987063533717L157.82872,140.1540565399321L158.04096,144.4919714443679L158.17704,141.1743222709176L158.57072000000002,140.07217123005847L158.67656000000002,139.70933018144405L158.69168000000002,144.7197734166171L158.82776,141.62278825813448L159.40288,141.35759775384614L159.52384,141.2473617037794L159.53896,145.15583540920383L159.6,156.0969932599304L160.08384,151.800988793578L160.79559999999998,154.5935689259805L160.85608000000002,151.7031096297048L161.12824,147.2642198298897L161.20384,150.9680564030722L161.47656,148.2472509804198L161.52192000000002,152.44578605549506L161.83999999999997,157.4772366193353L162.00632000000002,156.6047840468537L162.3692,149.97926410630055L162.4756,151.3389189803285L162.73264,151.41511315367714L162.76288,149.67126105464757L162.80824,143.3601617040471L163.12632,149.66078969849562L163.15656,148.46621916182883L163.23216000000002,154.3926358716968L163.39848,147.83491818769477L163.58048,153.11442370095077L163.83752,151.29596500204931L164.11023999999998,149.21369410399754L164.20095999999998,153.9197135546455L164.35216000000003,161.19977062098084L164.62432,158.50477604837357L164.64,161.89396525365794L165.04824000000002,153.662054048435L165.16920000000002,148.03105797437203L165.32095999999999,148.91994427959548L165.48728000000003,144.52953853678954L165.80535999999998,147.1498707608715L166.07752000000002,144.74129354693505L166.56192,148.4381963523508L166.66776000000002,146.260143816011L167.45512,146.69119633885435L167.48536,149.55113625795968L167.63655999999997,150.59102314157084L167.74239999999998,159.5825681700873L168.1512,162.11862909165424L168.46872000000002,152.9306322346175L168.62048,150.26095958292748L168.86239999999998,158.86873945319815L168.89263999999997,156.0595002026806L168.99848,147.70150020906033L169.48288,146.89959834807337L169.55848,143.37437494750753L169.72536,146.9859406170603L169.80096,149.64629400356748L170.45167999999998,154.67260307898604L170.49704,153.41268610734033L170.79999999999998,157.60587790357042L170.89072,160.80552936522346L170.90583999999998,162.5896364076625L171.29896000000002,160.94806974552225L171.40536,157.60844921006054L172.35848,151.41000919183068L172.49512,148.7433520879744L172.60096,149.3240051988601L172.64632,150.6050190212631L172.75216,155.59912217630767L172.79752,152.56463227137223L173.13072,153.41955053963838L173.29703999999998,153.52920580481634L173.46336,140.88525015935392L173.64536,150.27576137557676L173.66048,149.46704299315837L173.70584,157.35645117679258L174.06871999999998,148.34550616216075L174.16,156.58061361236227L174.50776,153.2030805869272L174.65895999999998,156.44921917935432L174.78048,155.3751544476761L174.96192,162.2975818277129L175.70335999999998,151.2066044354873L175.84,159.17881132509933L175.97608,155.54298570243495L176.50584,157.7063481407641L176.92919999999998,151.36602298481935L176.97512,149.42824285545151L177.58048,154.9804001099956L177.94335999999998,144.8214655713494L178.09512,145.12608587004277L178.92728,152.4441228631588L179.12384,154.76852277537893L179.29072,153.19229759228654L179.56288,148.9595026388909L180.10775999999998,146.715954237887L180.18336,142.77119649750514L180.19848,142.19087204994278L180.22871999999998,142.4726719526143L180.44096,145.67434520409648L180.6224,156.43019088319627L180.97072,152.91039312488846L181.06144,149.3862779581965L181.28824,147.06638937738066L181.37895999999998,149.61901455132082L181.53072,152.35687918548533L181.8936,158.6508600704953L182.1512,162.08568108517437L182.48384,158.98916372798988L182.95311999999998,156.0666294809765L183.05895999999998,158.86041111925758L183.22584,162.49447935807416L183.46776,151.89519320003814L183.52823999999998,152.61079339309111L183.63407999999998,151.9805831368183L183.71024,154.0771018228182L184.24,163.4986729050427L184.34584,161.51385318665206L184.89072000000002,158.51359036104975L185.31408,156.89761495195089L185.34431999999998,159.19912736655633L185.36,166.8715827097974L185.39024,167.49278126421464L185.48096,163.31954861320793L185.61704,153.65287195108976L185.70776,148.3447396353641L185.78336,138.95916914199344L186.2224,150.61497705015276L186.43408,157.31179517288643L186.60096000000001,153.52001061785003L186.75216,162.556842407869L186.81264,160.22191111402913L186.82776,156.77547184799434L187.25168,159.6830725727935L187.38776000000001,152.87947758069396L187.50872,150.37959180373406L187.73608000000002,150.5439263278154L187.7512,165.54621624791076L187.93264,165.49768627073436L188.40192000000002,165.90684785357755L188.538,157.51457748837257L188.73512000000002,153.30990291134708L188.7956,156.5562828141224L188.87120000000002,167.19563043342663L189.00728,160.04864572898524L189.12824,156.0274126661776L189.23408,155.30322496968262L189.2492,149.60924147175402L189.5068,153.32514108065757L189.96096,153.94868262794014L190.11216000000002,160.9439064919138L190.67216000000002,166.11866916055584L190.80824,161.36658768436374L190.82336,151.19974245656167L190.91408,151.85812719362156L191.15656,149.77306938467729L191.2624,159.3037775105137L191.68632000000002,160.6834846869647L191.70144000000002,156.03111054989932L191.83752,152.1230717259242L191.91312,159.72026223168336L192.08,164.57850311413745L192.21608,163.080943089815L192.42776,158.54917990570786L192.59408,156.59275144461108L193.00288,153.21530069663118L193.04824,150.51892494293443L193.18432,154.0699245806479L193.56288,152.0220087501969L193.62336,147.28151558718477L193.76,158.18632502365944L193.97168000000002,156.67550314550897L194.0624,163.08700121572795L194.09264000000002,161.0102103348445L194.60728,153.02549907421297L194.698,153.37186844143403L194.78872,148.0131291377135L194.81896,150.40372421190665L194.83408,157.14535428670368L194.98584000000002,160.46942821971965L195.06144,157.4655358471417L195.27312,160.47942267405645L195.4092,155.86034369079863L195.65168,158.53352006917353L196.03024,157.10736459162925L196.31752,155.91608565132083L196.4536,158.04583635258834L196.72632000000002,162.6290087051878L197.13512,154.89225342438755L197.48288000000002,155.4156915388473L197.51312000000001,161.38107420933056L197.52824,156.64959773261435L198.30048,156.22743706488063L198.42144,153.44972082008988L198.4668,155.78464061516567L198.60288,154.55379452286985L199.178,155.2755154298474L199.64728000000002,150.82040622274454L199.95023999999998,151.6969694926761L200.05607999999998,152.20424446549552L200.16192,161.4033647530469L200.23752000000002,156.9077431221719L200.7068,155.37170602917166L200.82776,159.38609097504315L200.858,157.93278084339914L201.37264000000002,160.77833771075137L201.418,159.46369184354145L201.63024,159.0760689145279L201.6756,165.79471483504486L201.84192,170.03085766718218L201.93264000000002,167.29418794682877L202.35656,161.09793146354713L202.40192,164.84875978650305L202.41704,160.731157925258L202.50776000000002,154.79259353550074L202.538,156.78354569954752L202.79559999999998,162.63096160580562L202.91655999999998,157.86320364290384L203.05264000000003,162.3428850091333L203.28,166.7888233659765L203.52192,169.33508222568636L204.11216,174.32475345175627L204.29360000000003,171.77923542047242L204.32384000000002,164.93405934920727L204.4756,164.32195448607695L204.64192,163.9978517087131L204.74775999999997,159.84023203085835L204.8536,157.87455393332823L204.88384000000002,158.40556941186537L205.14144,159.59722467991796L205.42872000000003,151.6805062385385L205.9736,158.44575047325998L206.12536,162.55370141644426L206.3824,167.93160739170995L206.47312,165.05490997688463L206.60920000000002,160.80320568118384L207.06336,158.1917103769415L207.41168,161.91532223952015L207.4268,160.79736752708078L207.69896000000003,162.485853947397L208.12287999999998,157.6995669872736L208.19848,152.96923961348386L208.3956,161.8398902947131L208.60728,156.54713329162738L208.72824,154.40839856437768L208.80383999999998,157.45661701185657L208.83408000000003,156.07351999415852L208.84920000000002,153.61689057191546L209.15215999999998,167.28053831482134L209.22776,162.37594763174178L209.44,167.90083088001325L209.5912,168.73792988253064L209.6668,158.96773824091207L209.77264,163.69679046747362L210.06047999999998,162.2696496598558L210.24192,167.2435922522924L210.77168,165.57898505804428L210.90776,156.85582159207755L211.63407999999998,162.40659922985134L211.71024,162.27902176039157L211.93704,160.5474194577738L212.10335999999998,153.27786820956493L212.16384,156.40696967022672L212.40632,161.5535237024847L212.60288,158.5316956586017L212.90584,163.51725464024392L213.04192,164.57971893404869L213.16288,157.33523378047317L213.46584000000001,163.38383818908312L213.70776,159.28849618461L214.01072,156.808196983494L214.05608,158.71794748887876L214.298,155.36598575941005L214.54048,158.88036170978114L214.7068,157.21643651830414L215.61512,154.52343134943996L215.7512,169.38356615104885L215.76632,169.46246319889192L216.22048,169.8586801092575L216.50776,162.4359969902486L216.55312,164.9909039669305L216.88632,166.17610887366948L217.55216,172.03677146719943L217.87024,169.6826408617917L217.96096,162.766121005608L217.9912,170.88328951811397L218.30872,162.09281007656816L218.64192,170.385798114594L219.08096,167.15486587646976L219.77704,158.69909366585833L220.01896,160.39891334425226L220.20096,160.90306731969608L221.0936,163.0747493249803L221.33608,160.7018881692069L221.80536,162.81756674847472L221.92632,163.25535785199085L222.24384,158.53836932087466L222.6224,163.5542698568375L222.698,159.39779205002017L222.89512000000002,153.64910749004855L223.09168,160.55012256030187L223.1824,170.2527138169047L223.818,168.5928364309929L223.83312,167.3024483319081L223.90872,159.7360057280038L224.13608000000002,159.75190346989478L225.0136,163.12938897820385L225.27120000000002,174.4485824216132L225.68,178.15275056294942L225.69512,169.1976401563427L225.81608,162.81414554333332L225.99752,160.9815794146993L226.04288,157.9641617653929L226.17896,159.84923622597236L226.40632000000002,168.23616411917791L226.4668,164.26891988178124L226.49704,158.23022656714937L226.72384,162.9629762522937L226.99656000000002,159.57063304379946L227.26872,155.60979533073524L227.49608,156.98351961777934L227.64728,156.67635926727257L227.69264,160.6145897026289L227.87408,166.65782933207922L227.8892,161.6839436744009L227.95024,160.29989238586154L228.3736,163.36851768974142L228.76728,159.68610218813225L229.26680000000002,164.1046093371523L229.49360000000001,163.26010094565228L230.03848,159.76766579915332L230.11408,163.79758975725917L230.84096000000002,164.02212068212958L230.90144,158.51630155785642L231.20384,162.5543700298295L231.93071999999998,160.79441219095142L231.94583999999998,164.2999294538722L232.33896000000001,166.3364581715718L232.38432,165.64979199955792L233.02048,164.39165942186077L233.2624,174.74305191704005L233.79216000000002,179.7229530326627L234.01896,177.1885373706879L234.14048,175.3603020784415L234.21607999999998,171.02456741077646L234.23119999999997,174.362799616712L234.73072,167.40434969667055L234.98776,165.50291501285707L235.03312,162.2202836609011L235.07848,161.05866774416714L235.2756,168.1963345247313L235.68384,164.33042455421716L235.95656,157.99565620128408L236.06240000000003,171.68279671492635L236.16824000000003,167.6967972911743L236.50143999999997,164.85306588872356L236.81896,168.39611715593384L237.01608,169.90312581848173L237.54584,169.1564635538523L237.89360000000002,170.16165789267208L237.93896,169.23292183340064L238.13608,166.24300334608836L238.19655999999998,166.6818694863098L238.28727999999998,162.1628008409367L238.93800000000002,163.31234070086634L238.95312,166.80681964888666L239.24096,168.08528950175344L239.28632,167.41512079930718L239.40728,166.0260439079786L239.42239999999998,171.91130551348834L239.43751999999998,166.09683087736792L239.52824,166.56826570076007L239.8312,174.21599154020703L239.86144,166.23562608447884L240.1336,167.99255613736636L240.89072,165.8499941650172L241.1024,172.0528521360838L241.19312,169.0109160841634L241.70775999999998,165.2693112838942L242.32824,162.33471455744973L242.75216,171.2273794136767L243.16096,171.57414716496015L243.23656,165.98224875220026L243.32728,158.57785296254377L243.6756,164.09906783469333L244.0536,165.8383664582241L244.2356,168.96591260278637L244.25072,164.99524877693898L244.34144,160.58506237880377L244.47752,159.97877621779438L244.73512,155.44091991740225L244.91656,156.58824965332602L245.00727999999998,158.97693126067315L245.31024,162.49001378694055L245.37072,163.6846955876283L245.7336,165.19617453460293L245.76384,165.58274536159277L245.90048,163.7802637912431L246.65704,159.3096646414756L247.02048,158.27469110647198L247.0356,166.55905451154325L247.36824,161.16258781299362L247.898,158.1418166991792L247.91312,163.30339340667257L248.27656,162.8481469815989L248.3068,161.79641804373378L248.32192,169.99368139550754L248.77608,167.11301995066208L249.018,165.26766553847432L249.15408,166.5609838254955L249.20000000000002,169.5209032277886L249.23024,166.01600964430713L249.45704,161.33961714722955L249.54775999999998,158.7588241709366L249.85072,159.19542999822468L250.00191999999998,168.27095582818134L250.01704,161.47137759646856L250.138,160.9282301743095L250.19848,156.7124219631711L250.2892,154.64558715674636L250.53168,160.66747795255992L251.1824,170.75210150189406L251.36383999999998,166.87027245108612L251.53072,167.7597019204159L251.68192,175.0702823644077L251.69704,161.7391555741546L251.75752,163.1367723056744L251.81799999999998,164.5384075754327L251.87848,160.29363452157037L252.13608,162.07272286153233L252.2268,161.26068942389725L252.28728,160.77970442439218L252.31752,158.7816089395589L252.54432,163.07094700836575" style="fill: none;" fill="none"></path></g></g></g></g><g opacity="0.2"><g><g><g><path stroke="rgb(255, 112, 67)" stroke-width="2px" d="M34.96192,-5.588646340370163L35.0224,0.07281203269960068L35.1736,-16.38643573522566L36.11216,14.285696339607254L36.520959999999995,-18.71777962446211L37.383359999999996,-24.481678712367994L37.5956,3.9496814131736913L37.716559999999994,4.670353424549118L37.79216,36.1386692941189L37.8224,33.44422001838686L38.00384,20.119172823429125L38.1556,31.809573215246218L38.80632,24.516975921392458L38.92728,-2.0501689195632777L39.04824,18.782933396101015L39.441919999999996,32.911496651172655L39.578,16.121241939067858L39.63848,19.134697508811968L39.66872,7.183790695667282L39.88096,13.736778688430801L39.9112,13.409517002105728L40.017039999999994,15.11149932146074L40.138,20.23327131271364L40.228719999999996,-5.780814993381485L40.652640000000005,23.646994721889513L41.75752,-6.2250236749648895L42.257039999999996,31.356317889690416L42.3024,52.38441098928453L42.56,46.80038977861406L42.69608,38.81339002847673L42.711200000000005,59.80975393652918L42.80192,52.177103054523485L42.81704,23.95547736883165L42.89264,50.526182842254656L43.16536,44.88252763152124L43.210719999999995,9.722389769554153L43.3468,38.667298597097414L44.08824,36.1177538752556L44.1336,39.15832300186159L44.22432,26.48218129277231L44.315599999999996,49.40205160975458L44.3912,58.294058632850664L44.5424,67.52970625162126L44.63312,31.546745789051073L44.70872,14.653311860561386L45.49608,36.416873377561586L45.57168,42.61282224655153L45.586800000000004,57.67471958398821L45.85896,56.07285697460176L46.05608,50.71444798707964L46.25264,25.295462054014223L46.82776,28.56828991770746L47.08536,53.61206431388857L47.38776,38.768130433559435L47.584320000000005,47.07912136316301L47.91752,47.22893167734148L47.96288,44.58704788684847L48.17512000000001,42.6238206446171L48.235600000000005,51.17390145063402L48.96192,73.32544003129007L49.06776,44.12498329281809L49.400960000000005,61.768391919136064L49.5824,84.65574179291727L49.7336,67.08955932855608L50.187760000000004,38.74019924998285L50.354079999999996,58.03376321196558L50.47560000000001,91.8702161729336L50.566320000000005,47.21740577816965L51.050720000000005,46.543153864145296L51.111200000000004,91.53757397532465L51.4892,58.97276793122293L51.731680000000004,64.97760314941408L51.7468,57.97634471654894L51.973600000000005,77.01720927357675L52.03408,70.7411593616009L52.29168,75.81835750937464L52.82144,57.997708511352556L52.9424,81.48593489527704L53.24536,77.1949507713318L53.45704,62.16654975414278L53.59312,80.16254011988642L53.683840000000004,77.58519608974458L53.76,85.86189944744112L53.86584,75.44847373366358L54.001920000000005,79.07617796659471L54.2136,74.99434803128244L54.243840000000006,64.21132866740228L54.2892,56.79624561667444L54.42584,87.05204744338991L54.9556,80.61613832116129L55.31848,58.117767763137834L55.636559999999996,68.77814311981203L55.908719999999995,53.03183947205545L56.04536,89.17152051329614L56.24191999999999,89.33823723793031L56.28728,73.59860647916796L56.40824,79.62691549658777L57.0136,85.05780313611032L57.2712,90.68518493771555L57.4224,96.72259334921839L57.467760000000006,51.11176182031633L57.770720000000004,70.5538700938225L58.012640000000005,88.94485328793527L58.285360000000004,81.83761988282205L58.4668,61.554200094938295L58.72384,81.56321380734445L58.81512,76.0297272026539L59.178000000000004,82.30833549499513L59.375119999999995,79.43308521509172L59.42048,88.96394882798197L59.435599999999994,92.83303756713869L59.55656,89.86017320752146L59.617039999999996,67.97151480317117L59.72288,82.81674106121065L60.46432,90.16731072664263L60.52536,101.22655604481699L60.6312,105.6094308614731L60.76728,92.7006875395775L61.10048,84.65233941078188L61.160959999999996,86.1909810125828L61.28192,109.13960013985636L61.402879999999996,87.30677772760393L61.46336,69.87125728726389L61.76632,95.14847729802133L61.84192,102.76651639938356L61.85704,81.22772310376169L61.93264,91.39232654571535L62.11408,84.28670201897623L62.160000000000004,112.43492592573168L62.2356,104.12446249723436L62.52288,87.99300391674043L62.76536,98.66865043044092L62.916560000000004,84.30893619060518L63.098,94.3312198340893L63.49168,86.12253774404527L63.62776,76.53109062910082L64.15752,83.00672058463098L64.17264,94.520724606514L64.20288,83.23241193294527L64.86872,74.6343549013138L64.99024,88.95062942504885L65.12631999999999,92.26138461828234L65.15656,92.09791202545168L65.23216000000001,109.10140905976297L65.61072,100.72091985940935L65.62584,117.89115999341013L65.77704,78.95218883156778L65.80728,78.94208718538286L65.88288,82.72274036407472L66.09512000000001,82.29356546401979L66.18584,92.71870170235636L66.32191999999999,101.07376534938814L66.54872,64.47697822451593L66.6092,93.52817852497103L66.64,124.29958630800249L67.018,106.95392568111421L67.3512,118.2845966935158L67.44192,112.97967631816866L67.69896,100.39044041633608L67.79024,105.39233778119089L68.18336000000001,79.4509411275387L68.53168,99.425851893425L68.63752,91.12229872941973L68.71312,98.16275049448015L68.91024,110.04956592321398L69.47024,96.89545546174051L69.68192,121.03506658673288L70.21168,106.60994220972063L71.46776000000001,82.34953333139421L71.60384,100.93793381452562L71.74048,113.22828758955004L71.8312,117.15595532655718L72.19408,109.01727263331415L72.90584,113.76380671262743L73.0268,101.85507361292841L73.57168,112.26649482250215L73.81360000000001,111.46606464385988L73.85896000000001,103.35069749951364L73.98048,110.99157739877703L74.02584,126.49955604672434L74.38872,98.53115726709368L74.4492,99.18438826203348L74.90336,79.89886869192125L75.47847999999999,99.83653787970545L75.7512,131.39822144508364L75.84192,130.2703713297844L76.08384000000001,112.59547088742258L76.35656,114.19263873696329L76.37168,113.72092087268831L76.88632,117.90956978201868L77.03752,109.59520284533502L77.08287999999999,99.39557332992555L77.098,106.62349898815157L77.12823999999999,102.42907394170763L77.14336,92.42915634512903L77.52192,117.09800933003427L78.02144,106.74300436377527L78.6268,117.67251078486444L79.09608,104.79718465805055L79.50431999999999,121.08583856821062L79.58048000000001,109.307872992754L79.91311999999999,128.5322024345398L80.20096000000001,102.11012039780618L80.42776,111.92673135995867L80.67023999999999,112.19551954865457L81.10871999999999,92.28359241485597L81.15408,122.68171404004099L81.53264,114.38673276901247L81.92632,126.18521813750269L82.18336,95.48547137975694L82.48632,111.06086466908457L82.75847999999999,102.32507709860803L82.78872,95.89391548633577L82.81896,114.523408305645L82.91024,108.09111256599428L83.3336,116.20439608097078L83.54584,126.09287906885149L84.39312,125.32082844972612L84.4536,125.85384194254877L84.62048,114.20487676262857L85.0892,104.67815403342249L85.21072,115.42881120443346L85.40728,116.26461033225061L85.48288000000001,105.5370049595833L85.72536,121.5330276310444L85.80095999999999,126.92722756862642L85.8312,142.65224654674532L85.98240000000001,142.45860089063646L86.04288,107.94694651365282L86.48192,129.6420911371708L86.66336,96.40527505874635L87.45072,112.83619601726534L87.61703999999999,111.0164754509926L87.87408,130.24085764288904L88.298,107.49047343134882L88.69167999999999,126.96692202687265L88.87312,135.08402992486955L89.04,134.58868001103403L89.08536,128.46265141367914L89.94776,109.2316227078438L90.02336000000001,104.29400135278703L90.03848,109.34250344038011L90.19024,119.25572623014452L91.29512,101.1348499774933L91.46144,117.26245779991152L91.47655999999999,116.09093059301378L91.5068,117.77561087608339L91.58239999999999,143.6963294863701L91.59751999999999,119.99182764887811L91.97608,117.43629578948023L92.05168,129.36412442922594L92.09703999999999,114.43059448599817L92.21799999999999,110.85780311822893L92.52096,119.07972548604013L92.56632,115.84469307661058L92.58144,118.19362912774088L92.80824,110.83688769936563L93.14144,110.60658071637155L93.338,114.76619068980219L93.36824,116.71604577898981L93.56536,125.21327097415926L94.12536,119.46258578896524L94.48823999999999,108.89963988661768L94.59408,121.52213473320009L94.68536,140.0479472100735L95.04823999999999,118.30685724020006L95.0936,126.94057334661485L95.9868,122.41957236528398L96.24383999999999,131.0687970042229L96.25895999999999,141.14828814268114L96.56192,127.05591146349909L96.60728,120.37911896109583L96.74336,93.3225322186947L97.28824,116.7190525352955L97.33359999999999,128.89317144155504L97.57608,125.01369093060495L98.04535999999999,131.50485579371454L98.46871999999999,105.25049273371698L98.59024,132.6812360107899L98.65072,128.55343435406687L98.77168,127.98267815709116L98.938,120.67180294990541L99.33168,135.63036282062532L99.40728,117.54593689441683L99.6492,119.15341739058496L99.89168000000001,127.85127763152124L100.01264,131.30345587134363L100.14872,114.81295366287233L100.28536,142.35745255351068L100.45168000000001,131.21591706275942L100.4668,129.14109696149828L100.64824,122.4439429163933L100.67848,108.71482987403871L101.2536,127.53933985233309L101.4356,136.74610678553583L101.72288,115.20079885125162L102.07119999999999,148.17964051365854L102.3736,131.58891309499742L103.10047999999999,125.42113278508188L103.23656,118.90156198740007L103.28192000000001,141.7147188305855L103.31216,146.93336640000345L104.08384,130.20744044780733L104.1292,121.60969991683962L104.43216000000001,155.90312708616258L104.4624,152.1793912768364L104.47752000000001,129.30981819033624L104.58336,101.83893207907678L104.85607999999999,125.7311979353428L105.28,154.90277398824693L105.5824,149.23303384780885L105.61264000000001,140.31992678046228L105.70336,111.8221806406975L106.17264,136.28008593320848L106.43024,135.08115504384043L106.7024,145.86166877746584L106.82336000000001,107.91577119827272L107.29263999999999,131.5492186367512L107.70143999999999,125.3545885205269L108.0492,124.21262775063516L108.48824,124.70919091701509L108.65512,121.55787293314935L108.89703999999999,113.75476006865503L109.10872,106.81996677517893L109.4268,121.48257215023042L110.03215999999999,150.3916900277138L110.36536000000001,137.00307894945146L110.44096,125.58449987769129L111.00096,138.73180557489397L111.16727999999999,125.78616355061533L111.258,121.13558192253114L111.47024,129.7193436741829L111.50048000000001,134.04218886494638L111.98432000000001,141.73972238302233L112.34776,122.87773345112802L112.5292,125.61609719395639L112.56,157.18310852050783L112.65072,120.01094956398012L112.83216,151.63888726830484L113.21072000000001,126.50662456154825L113.63408,126.87041569948198L113.66432,138.5914639055729L113.72536000000001,148.03642396330835L113.95216,150.90101872086527L114.57263999999999,129.78401530981066L114.618,121.06212739348413L115.16288,118.74336440563204L115.42048000000001,136.6152865111828L115.46584,137.75450427532198L115.61704,128.6898988902569L115.88919999999999,121.52065773010256L115.90432,136.47188533544542L116.16192000000001,148.99141196608545L116.20728,127.93733943700792L116.72192,146.479214322567L116.75216,143.85761294960977L116.858,136.08485777378084L117.2668,129.3634386777878L117.40288,124.43850372433664L117.72095999999999,131.57445956468584L118.08384,137.95680094957353L118.16,153.69168419837953L118.25071999999999,133.5988505601883L118.65896,129.74920023679735L118.96192,147.1551542401314L119.03752,125.53528402447702L119.26432,142.3775767207146L119.34048,140.53005684614183L119.99119999999999,156.60512555837633L120.05168,136.98158327937128L120.36919999999999,130.28857011795046L120.39999999999999,156.11613203287126L120.64192000000001,149.90557138323786L120.67216,154.1424338936806L120.76288000000001,118.10361106395723L120.79312,145.29299620985987L121.06584,142.98022035956384L121.4136,145.61047275066377L121.55024,139.49188191890718L121.83752000000001,129.91818521618845L122.00384,127.43307475447656L122.03408,138.44835285544397L122.12536,132.72963423728945L122.32191999999999,145.97911689877512L122.59408,143.83155439496042L123.18432,136.91345651149751L123.53264,134.52537987828256L123.59312,145.1681366980076L123.60824000000001,132.6480825662613L123.71408,135.57465870380403L123.97167999999999,144.8695710718632L124.138,123.99123553633692L124.30432,144.67070315480234L124.41072,138.39779187440874L124.50144,128.01928673386575L124.86432,142.30905432701113L125.75752,124.18408994078638L126.30239999999999,168.2007076263428L126.31751999999999,138.4610656321049L126.37799999999999,132.28706080913545L126.68096,138.13549194931986L126.69608,147.74205197095873L126.7112,162.39015106558801L126.83216,157.39661459326746L127.49799999999999,140.42492587566377L127.60384,143.0748804330826L127.64920000000001,124.95904181599619L127.93704,128.11299730539324L128.75408000000002,151.32077772617342L128.89072000000002,140.2922065973282L128.92096,144.43628166317941L128.98144,136.19819138646127L129.07216,159.41723395586015L129.11751999999998,140.0648536205292L129.22335999999999,114.18739010095598L129.34432,132.46311430335047L129.39024,145.06239910125734L129.57168,142.412233543396L129.98048,133.2214235186577L130.04096,130.8809011101723L130.20728,123.80273301601412L130.37359999999998,138.35189927816393L131.40288,132.40450893044473L131.61512000000002,130.92344407439234L131.73608000000002,132.38849927186968L131.94776,133.06053568124773L131.96287999999998,136.04948882460596L132.35656,127.67303500771524L132.56824,126.7992294251919L132.9468,139.69829310178758L133.38584,146.39866490364076L133.43120000000002,153.33643857836725L133.82432,143.94868601560594L134.09704,141.81077678203584L134.15752,131.74874593019487L134.53608,134.57470123171808L134.9292,126.40526522397997L135.32288,127.21086491346361L135.55024,142.77357180118562L135.6712,169.2478764474392L135.68632,150.33806954026224L136.01896,146.60768721699716L136.07999999999998,164.9750383615494L136.29168,146.24379057884218L136.89704,132.47231919765474L137.03312,140.54865126013758L137.21511999999998,135.64798135757448L137.5024,169.82169215083124L137.54776,126.27143819332125L137.68384,139.6488398730755L138.48632,147.86221672296526L138.65264,140.0511649668217L138.92536,150.01144085526468L139.07656,142.43541721701624L139.09168,142.72941995859148L139.36384,140.94973672628404L139.37896,138.9611894309521L139.72728,138.06230117082598L139.78776,132.50795189738275L140.01512,137.74622250795366L140.46872,132.6064099788666L140.60536,159.51152477860452L140.65072,128.06138132214548L140.75656,136.78276811242105L140.90776,131.68425891995432L140.95311999999998,153.32272354960443L141.02872,120.097617995739L141.18048,140.04230294823648L141.54335999999998,127.04143155813219L141.68,163.08972303271295L141.96728,144.89067111611368L142.22431999999998,151.34480540156366L143.16288,145.5871835768223L143.69263999999998,145.23526121377947L143.95024,146.65814269781114L144.10144,139.5341875076294L144.17704,142.28980053663255L144.34336,121.61700580716135L144.43408,148.40997387170793L144.54048,147.22647238969805L144.81264,147.27782462239267L144.88824,140.458976072073L144.96384,142.8016876101494L145.23656,132.7492309033871L145.40287999999998,143.21131859421732L145.44824,139.80181519389154L145.7512,164.78300158381464L145.87216,165.77359591126444L146.02336,117.50138942599298L146.20536,152.9541057765484L146.55312,155.87213639616968L146.62872,124.55808822512628L147.55216,169.58550353050234L147.56728,142.29399417042734L148.05168,152.8359982788563L148.7024,162.87460808157923L148.82336,119.01837710738184L148.94432,143.39686710834505L148.96,160.76215077638628L149.47408,134.7742812752724L149.64096,146.35137442946436L149.8224,157.55739693045618L150.08,159.7889112353325L150.98776,131.2957543551922L151.3512,162.18782801628114L151.80536,144.41924337744715L151.86584000000002,153.51992983818056L152.07752,139.5309170007706L152.33512000000002,137.30425570607187L152.42584,157.5731428384781L153.06144,137.09678952097894L153.30336,133.9645670771599L153.47024000000002,149.64962784647943L153.60632,155.17182592749597L153.72728,130.38647432327272L154.03024000000002,146.05481330752374L154.06048,141.4208215892315L154.10584,158.92850418090822L154.13608000000002,139.85715005993845L154.2268,140.5140735626221L154.5292,137.66047720313074L154.57512000000003,123.62936977744104L154.65072,148.39214433431627L154.7868,148.64202160835268L155.84632000000002,150.77942971587183L156.14872,129.82682202458383L156.16384,148.18670902848245L156.19407999999999,152.04936225414278L156.40632000000002,150.55450324416162L156.4668,142.06490043997766L156.60288,133.76736078858377L156.618,146.77967895269396L156.6936,154.114502710104L156.7692,143.50835446715357L156.99656000000002,141.8899546980858L157.46584000000001,160.59469555020334L157.64728,136.25721876025202L157.75312,152.23393489122392L157.82872,128.53708181977274L158.04096,150.9988438010216L158.17704,136.1978485107422L158.57072000000002,138.41894466876985L158.67656000000002,139.16506860852243L158.69168000000002,152.23543826937677L158.82776,136.97731052041055L159.40288,140.95981199741365L159.52384,141.0820076286793L159.53896,151.0185459673405L159.6,172.5087300360203L160.08384,145.35698209404947L160.79559999999998,158.78243912458422L160.85608000000002,147.3674206852913L161.12824,140.60588513016702L161.20384,156.523811262846L161.47656,144.1660428464413L161.52192000000002,158.743588668108L161.83999999999997,165.02441246509554L162.00632000000002,155.29610518813135L162.3692,140.04098419547083L162.4756,153.3784012913704L162.73264,151.52940441370012L162.76288,147.05548290610315L162.80824,133.89351267814638L163.12632,159.1117316901684L163.15656,146.6743633568287L163.23216000000002,163.28226093649866L163.39848,137.99834166169168L163.58048,161.03368197083475L163.83752,148.56827695369722L164.11023999999998,146.09028775691988L164.20095999999998,160.97874273061754L164.35216000000003,172.1198562204838L164.62432,154.46228418946268L164.64,166.9777490615845L165.04824000000002,141.3141872406006L165.16920000000002,139.58456386327745L165.32095999999999,150.2532737374306L165.48728000000003,137.94392992258074L165.80535999999998,151.08036909699442L166.07752000000002,141.12842772603037L166.56192,153.9835505604744L166.66776000000002,142.99306501150133L167.45512,147.33777512311937L167.48536,153.84104613661768L167.63655999999997,152.15085346698763L167.74239999999998,173.06988571286203L168.1512,165.92272047400476L168.46872000000002,139.14863694906236L168.62048,146.25645060539247L168.86239999999998,171.78040925860407L168.89263999999997,151.8456413269043L168.99848,135.16450021862985L169.48288,145.69674555659296L169.55848,138.08653984665872L169.72536,152.4032891213894L169.80096,153.63682408332826L170.45167999999998,162.2120666921139L170.49704,151.52281064987184L170.79999999999998,163.89566559791567L170.89072,165.60500655770304L170.90583999999998,165.26579697132112L171.29896000000002,158.48571975231172L171.40536,152.599018406868L172.35848,142.11234916448595L172.49512,144.74336643218996L172.60096,150.19498486518862L172.64632,152.52653975486757L172.75216,163.09027690887453L172.79752,148.01289741396906L173.13072,154.7019279420376L173.29703999999998,153.69368870258333L173.46336,121.91931669116022L173.64536,164.36152819991113L173.66048,148.25396541953089L173.70584,169.19056345224382L174.06871999999998,134.82908864021303L174.16,168.93327478766443L174.50776,148.13678104877474L174.65895999999998,161.3184270679951L174.78048,153.7640573501587L174.96192,172.68122289776804L175.70335999999998,134.5701383471489L175.84,171.1371216595173L175.97608,150.08924726843836L176.50584,160.95139179825784L176.92919999999998,141.8555352509022L176.97512,146.52157266139986L177.58048,163.30863599181177L177.94335999999998,129.58306376338007L178.09512,145.58301631808283L178.92728,163.4211783528328L179.12384,158.2551226437092L179.29072,150.82795981764795L179.56288,142.61031020879747L180.10775999999998,143.35063163638117L180.18336,136.8540598869324L180.19848,141.32038537859918L180.22871999999998,142.89537180662157L180.44096,150.47685508131983L180.6224,172.56395940184595L180.97072,147.63069648742677L181.06144,144.1001052081585L181.28824,143.58655650615694L181.37895999999998,153.44795231223108L181.53072,156.46367613673212L181.8936,168.09183139801027L182.1512,167.237912607193L182.48384,154.34438769221308L182.95311999999998,151.68282811045648L183.05895999999998,163.05108357667925L183.22584,167.94558171629907L183.46776,135.9962639629841L183.52823999999998,153.6841936826706L183.63407999999998,151.035267752409L183.71024,157.2218798518181L184.24,177.63102952837946L184.34584,158.53662360906603L184.89072000000002,154.01319612264635L185.31408,154.47365183830263L185.34431999999998,162.65139598846437L185.36,178.38026572465898L185.39024,168.42457909584047L185.48096,157.0596996366978L185.61704,139.15285695791246L185.70776,140.3825411617756L185.78336,124.8808134019375L186.2224,168.09868891239168L186.43408,167.35702235698702L186.60096000000001,147.8323337852955L186.75216,176.11209009289743L186.81264,156.7195141732693L186.82776,151.6058129489422L187.25168,164.04447365999224L187.38776000000001,142.67408509254457L187.50872,146.62976313829424L187.73608000000002,150.7904281139374L187.7512,188.04965112805368L187.93264,165.4248913049698L188.40192000000002,166.52059022784235L188.538,144.92617194056513L188.73512000000002,147.0028910458088L188.7956,161.4258526682854L188.87120000000002,183.1546518623829L189.00728,149.32816867232324L189.12824,149.9955630719662L189.23408,154.21694342494013L189.2492,141.06826622486116L189.5068,158.89899049401285L189.96096,154.883994948864L190.11216000000002,171.43674228787424L190.67216000000002,173.88081316351892L190.80824,154.23846547007562L190.82336,135.94947461485864L190.91408,152.84570429921152L191.15656,146.64548267126085L191.2624,173.59983969926836L191.68632000000002,162.7530454516411L191.70144000000002,149.05254934430124L191.83752,146.26101348996164L191.91312,171.11604799032213L192.08,171.86586443781854L192.21608,160.8346030533314L192.42776,151.75153512954714L192.59408,153.65810875296594L193.00288,148.14912457466127L193.04824,146.4743613123894L193.18432,159.3964240372181L193.56288,148.95013500452043L193.62336,140.17077584266664L193.76,174.54353917837145L193.97168000000002,154.40927032828333L194.0624,172.70424832105638L194.09264000000002,157.8950240135193L194.60728,141.0484321832657L194.698,153.89142249226572L194.78872,139.97502018213274L194.81896,153.98961682319643L194.83408,167.2577993988991L194.98584000000002,165.45553911924364L195.06144,152.95969728827478L195.27312,165.00025291442873L195.4092,148.93172521591188L195.65168,162.54328463673593L196.03024,154.96813137531282L196.31752,154.1291672408581L196.4536,161.24046240448953L196.72632000000002,169.503767234087L197.13512,143.2871205031872L197.48288000000002,156.20084871053697L197.51312000000001,170.32914821505548L197.52824,149.55238301754L198.30048,155.59419606328012L198.42144,149.28314645290376L198.4668,159.28702030777933L198.60288,152.70752538442613L199.178,156.35809679031374L199.64728000000002,144.13774241209032L199.95023999999998,153.0118143975735L200.05607999999998,152.9651569247246L200.16192,175.20204518437387L200.23752000000002,150.16431067585947L200.7068,153.06765038967134L200.82776,165.40766839385034L200.858,155.75281564593317L201.37264000000002,165.0466730117798L201.418,157.49172304272653L201.63024,158.49463452100755L201.6756,175.87268371582033L201.84192,176.38507191538812L201.93264000000002,163.1891833662987L202.35656,151.8035467386246L202.40192,170.47500227093698L202.41704,154.55475513339044L202.50776000000002,145.8847469508648L202.538,159.7699739456177L202.79559999999998,171.4020854651928L202.91655999999998,150.7115666985512L203.05264000000003,169.06240705847742L203.28,173.45773090124132L203.52192,173.15447051525118L204.11216,181.80926029086115L204.29360000000003,167.96095837354662L204.32384000000002,154.6662952423096L204.4756,163.40379719138147L204.64192,163.5116975426674L204.74775999999997,153.60380251407625L204.8536,154.9260367870331L204.88384000000002,159.2020926296711L205.14144,161.38470758199693L205.42872000000003,139.80542857646944L205.9736,168.5936168253422L206.12536,168.71562783122064L206.3824,175.99846635460855L206.47312,160.7398638546467L206.60920000000002,154.42564923763277L207.06336,154.27446742057802L207.41168,167.50074003338815L207.4268,159.12043545842172L207.69896000000003,165.01858357787134L208.12287999999998,150.52013654708864L208.19848,145.87374855279924L208.3956,175.14586631655695L208.60728,148.60799778699877L208.72824,151.20029647350313L208.80383999999998,162.02894468307497L208.83408000000003,153.99887446761133L208.84920000000002,149.93194643855097L209.15215999999998,187.77600992918016L209.22776,155.01906160712244L209.44,176.18815575242044L209.5912,169.99357838630678L209.6668,144.31245077848436L209.77264,170.79036880731584L210.06047999999998,160.12893844842912L210.24192,174.70450614094736L210.77168,163.08207426667215L210.90776,143.77107639312746L211.63407999999998,170.732765686512L211.71024,162.08765555620195L211.93704,157.95001600384714L212.10335999999998,142.37354133725168L212.16384,161.10062186121942L212.40632,169.27335475087168L212.60288,153.99895359277727L212.90584,170.99559311270716L213.04192,166.17341537475588L213.16288,146.46850605010988L213.46584000000001,172.45674480199816L213.70776,153.14548317790033L214.01072,153.08774818181993L214.05608,161.5825732469559L214.298,150.33804316520693L214.54048,164.15192563533785L214.7068,154.72054873108866L215.61512,150.48392359614374L215.7512,191.67376835346224L215.76632,169.5808087706566L216.22048,170.45300547480585L216.50776,151.30197231173517L216.55312,168.82326443195345L216.88632,167.95391623377802L217.55216,180.82776535749437L217.87024,166.15144495368006L217.96096,152.39134122133257L217.9912,183.05904228687288L218.30872,148.90709091424944L218.64192,182.82528017163278L219.08096,162.3084675192833L219.77704,146.01543534994127L220.01896,162.94864286184313L220.20096,161.65929828286173L221.0936,166.33227233290674L221.33608,157.1425964355469L221.80536,165.99108461737634L221.92632,163.9120445072651L222.24384,151.46288652420046L222.6224,171.07812066078188L222.698,153.16307533979418L222.89512000000002,145.0260806500912L223.09168,170.90164516568186L223.1824,184.80660070180895L223.818,166.10302035212518L223.83312,165.36686618328096L223.90872,148.3863418221474L224.13608000000002,159.77575008273126L225.0136,168.19561724066736L225.27120000000002,191.42737258672716L225.68,183.70900277495386L225.69512,155.7649745464325L225.81608,153.23890362381937L225.99752,158.23273022174837L226.04288,153.43803529143335L226.17896,162.67684791684152L226.40632000000002,180.8165559589863L226.4668,158.31805352568628L226.49704,149.1721865952015L226.72384,170.06210078001024L226.99656000000002,154.48211823105814L227.26872,149.66853876113893L227.49608,159.04410604834558L227.64728,156.21561874151232L227.69264,166.52193535566332L227.87408,175.72268877625467L227.8892,154.2231151878834L227.95024,158.22381545305254L228.3736,167.97145564556124L228.76728,154.16247893571855L229.26680000000002,170.7323700606823L229.49360000000001,161.99333835840227L230.03848,154.52901307940485L230.11408,169.84247569441797L230.84096000000002,164.35891706943514L230.90144,150.25757287144663L231.20384,168.61147273778917L231.93071999999998,158.15447543263437L231.94583999999998,169.55820534825327L232.33896000000001,169.39125124812128L232.38432,164.6197927415371L233.02048,162.50446055531503L233.2624,190.27014065980913L233.79216000000002,187.19280470609667L234.01896,173.38691387772562L234.14048,172.6179491400719L234.21607999999998,164.5209654092789L234.23119999999997,179.37014792561533L234.73072,156.96667481660845L234.98776,162.65076298713686L235.03312,157.296336632967L235.07848,159.31624386906626L235.2756,178.90283469557764L235.68384,158.5315595984459L235.95656,148.49350367188455L236.06240000000003,192.21350748538973L236.16824000000003,161.7177981555462L236.50143999999997,160.58746878504755L236.81896,173.71069405674936L237.01608,172.16363881230356L237.54584,168.03647015690805L237.89360000000002,171.6694494009018L237.93896,167.8398177444935L238.13608,161.75812561511995L238.19655999999998,167.34016869664194L238.28727999999998,155.38419787287714L238.93800000000002,165.03665049076082L238.95312,172.04853807091715L239.24096,170.00299428105356L239.28632,166.4098677456379L239.40728,163.9424285709858L239.42239999999998,180.73919792175295L239.43751999999998,157.37511892318727L239.52824,167.27541793584825L239.8312,185.68758029937746L239.86144,154.26507790088655L240.1336,170.6279512166977L240.89072,162.6361512064934L241.1024,181.3571390926838L241.19312,164.44801200628282L241.70775999999998,159.6569040834904L242.32824,157.932819467783L242.75216,184.56637669801714L243.16096,172.0942987918854L243.23656,157.59440113306047L243.32728,147.47125927805902L243.6756,172.38089014291765L244.0536,168.44731439352037L244.2356,173.6572318196297L244.25072,159.03925303816797L244.34144,153.96978278160097L244.47752,159.06934697628023L244.73512,148.63413546681406L244.91656,158.3092442572117L245.00727999999998,162.55995367169382L245.31024,167.75963757634165L245.37072,165.47671828866007L245.7336,167.4633929550648L245.76384,166.1626016020775L245.90048,161.07654143571855L246.65704,152.60376591682436L247.02048,156.72223080396654L247.0356,178.98559961915018L247.36824,153.06788776516916L247.898,153.61066002845766L247.91312,171.0457584679127L248.27656,162.16527734398844L248.3068,160.2188246369362L248.32192,182.2895764231682L248.77608,162.79202778339388L249.018,162.49963392019274L249.15408,168.50096125602724L249.20000000000002,173.96078233122827L249.23024,160.75866926908495L249.45704,154.32502840161325L249.54775999999998,154.8876347064972L249.85072,159.85033873915674L250.00191999999998,181.88424457311632L250.01704,151.27201024889948L250.138,160.11350904107096L250.19848,150.3887096464634L250.2892,151.54533494710924L250.53168,169.7003141462803L251.1824,185.87903682589533L251.36383999999998,161.04752887487413L251.53072,169.09384612441065L251.68192,186.03615303039552L251.69704,141.7424653887749L251.75752,165.23319740295412L251.81799999999998,166.64086048007013L251.87848,153.92647494077684L252.13608,164.74135537147524L252.2268,160.04263926744463L252.28728,160.05822692513468L252.31752,155.7844657123089L252.54432,169.5049541115761" style="fill: none;" fill="none"></path></g></g></g></g></g></g><g transform="translate(50, 177)" clip-path="url(#clip_1)"><clipPath id="clip_1"><rect width="280" height="22"></rect></clipPath><g><g><line x1="0" y1="0" x2="0" y2="5" style="visibility: inherit;" fill="rgb(0, 0, 0)" stroke="rgb(204, 204, 204)" stroke-width="1px"></line><line x1="28" y1="0" x2="28" y2="5" style="visibility: inherit;" fill="rgb(0, 0, 0)" stroke="rgb(204, 204, 204)" stroke-width="1px"></line><line x1="56" y1="0" x2="56" y2="5" style="visibility: inherit;" fill="rgb(0, 0, 0)" stroke="rgb(204, 204, 204)" stroke-width="1px"></line><line x1="84" y1="0" x2="84" y2="5" style="visibility: inherit;" fill="rgb(0, 0, 0)" stroke="rgb(204, 204, 204)" stroke-width="1px"></line><line x1="112" y1="0" x2="112" y2="5" style="visibility: inherit;" fill="rgb(0, 0, 0)" stroke="rgb(204, 204, 204)" stroke-width="1px"></line><line x1="140" y1="0" x2="140" y2="5" style="visibility: inherit;" fill="rgb(0, 0, 0)" stroke="rgb(204, 204, 204)" stroke-width="1px"></line><line x1="168" y1="0" x2="168" y2="5" style="visibility: inherit;" fill="rgb(0, 0, 0)" stroke="rgb(204, 204, 204)" stroke-width="1px"></line><line x1="196" y1="0" x2="196" y2="5" style="visibility: inherit;" fill="rgb(0, 0, 0)" stroke="rgb(204, 204, 204)" stroke-width="1px"></line><line x1="224" y1="0" x2="224" y2="5" style="visibility: inherit;" fill="rgb(0, 0, 0)" stroke="rgb(204, 204, 204)" stroke-width="1px"></line><line x1="252" y1="0" x2="252" y2="5" style="visibility: inherit;" fill="rgb(0, 0, 0)" stroke="rgb(204, 204, 204)" stroke-width="1px"></line><line x1="280" y1="0" x2="280" y2="5" style="visibility: inherit;" fill="rgb(0, 0, 0)" stroke="rgb(204, 204, 204)" stroke-width="1px"></line></g><g transform="translate(0, 8)"><text x="0" y="0" dx="0em" dy="0.95em" style="text-anchor: middle; visibility: hidden; font-family: Roboto, sans-serif; font-size: 12px; font-weight: 200;" fill="rgb(33, 33, 33)" stroke="none" stroke-width="1px">-50k</text><text x="28" y="0" dx="0em" dy="0.95em" style="text-anchor: middle; visibility: inherit; font-family: Roboto, sans-serif; font-size: 12px; font-weight: 200;" fill="rgb(33, 33, 33)" stroke="none" stroke-width="1px">0</text><text x="56" y="0" dx="0em" dy="0.95em" style="text-anchor: middle; visibility: hidden; font-family: Roboto, sans-serif; font-size: 12px; font-weight: 200;" fill="rgb(33, 33, 33)" stroke="none" stroke-width="1px">50k</text><text x="84" y="0" dx="0em" dy="0.95em" style="text-anchor: middle; visibility: inherit; font-family: Roboto, sans-serif; font-size: 12px; font-weight: 200;" fill="rgb(33, 33, 33)" stroke="none" stroke-width="1px">100k</text><text x="112" y="0" dx="0em" dy="0.95em" style="text-anchor: middle; visibility: hidden; font-family: Roboto, sans-serif; font-size: 12px; font-weight: 200;" fill="rgb(33, 33, 33)" stroke="none" stroke-width="1px">150k</text><text x="140" y="0" dx="0em" dy="0.95em" style="text-anchor: middle; visibility: inherit; font-family: Roboto, sans-serif; font-size: 12px; font-weight: 200;" fill="rgb(33, 33, 33)" stroke="none" stroke-width="1px">200k</text><text x="168" y="0" dx="0em" dy="0.95em" style="text-anchor: middle; visibility: hidden; font-family: Roboto, sans-serif; font-size: 12px; font-weight: 200;" fill="rgb(33, 33, 33)" stroke="none" stroke-width="1px">250k</text><text x="196" y="0" dx="0em" dy="0.95em" style="text-anchor: middle; visibility: inherit; font-family: Roboto, sans-serif; font-size: 12px; font-weight: 200;" fill="rgb(33, 33, 33)" stroke="none" stroke-width="1px">300k</text><text x="224" y="0" dx="0em" dy="0.95em" style="text-anchor: middle; visibility: hidden; font-family: Roboto, sans-serif; font-size: 12px; font-weight: 200;" fill="rgb(33, 33, 33)" stroke="none" stroke-width="1px">350k</text><text x="252" y="0" dx="0em" dy="0.95em" style="text-anchor: middle; visibility: inherit; font-family: Roboto, sans-serif; font-size: 12px; font-weight: 200;" fill="rgb(33, 33, 33)" stroke="none" stroke-width="1px">400k</text><text x="280" y="0" dx="0em" dy="0.95em" style="text-anchor: middle; visibility: hidden; font-family: Roboto, sans-serif; font-size: 12px; font-weight: 200;" fill="rgb(33, 33, 33)" stroke="none" stroke-width="1px">450k</text></g><line x1="0" y1="0" x2="280" y2="0" fill="rgb(0, 0, 0)" stroke="rgb(204, 204, 204)" stroke-width="1px"></line></g></g></g></g></svg>